M48
;Layer_Color=9474304
;FILE_FORMAT=2:3
INCH,LZ
;TYPE=PLATED
T1F00S00C0.020
T2F00S00C0.043
%
T01
X04724Y02559
X05118
X05315
X05512
X0549Y0251
X05413Y02362
X0561
X05217
X05315Y02953
X05512
X0549Y0286
X05118Y02953
X04724
X04528
X04331
X04134
X04035Y02756
X03835
X03642
X0353Y02735
X03543Y02559
X0374
X03839Y02362
X03642
X03445
X03248
Y02756
X03543Y02165
X0374
X03937
X04331
X04528
X04626Y02362
X04232
X0312Y023
X03051Y02756
X02854
X02657
X02559Y02953
X02362
Y02559
X02264Y02362
X02362Y02165
X02165
X02657Y02362
X02953Y02953
X03051Y0315
X0301Y0345
X0295
X0289
X02854Y03543
X02657
X02461
X02264
X02362Y03346
X02559
X02756
Y0374
X02559
X02657Y03937
X02854
X02756Y04134
X02559
X02362
X02461Y04331
X02264
X02362Y04528
X02559
X02756
X02854Y04331
X03051
X0304Y04595
X031
X02461Y03937
X02264
X03248
X03445
X03525Y04045
Y041
X0371Y04075
X0371Y04015
Y04135
X0363Y0424
X03642Y04331
X0344Y0438
X0337
X03375Y04535
X03435
X0374Y04528
X03955Y0445
X04035Y04331
X04245Y04365
X0445Y044
X04415Y04445
X0438Y04495
Y04555
Y04615
X04626Y04331
Y03937
X04535Y03755
Y03665
X0438Y03595
X04331Y03346
X04134
X04232Y0315
X04429
X04626
X04675Y03525
X0415Y03725
Y03785
Y03845
X0409Y03732
X0374Y0374
X03775Y0385
X03839Y03543
X03642Y03583
X03615Y035
X03445Y03543
X0343Y03425
X03346Y03346
X0315
X0315Y03615
X0321
X0327
X0314Y03705
X03248Y0315
X03445
X03642
X03839
X04035
X0374Y03346
X03937Y04138
X03248Y04331
X0316Y04595
X04955Y0439
Y0433
Y0427
Y0421
Y0415
Y0409
Y0403
Y0397
X05217Y03937
X05315Y04134
X0548Y04118
Y03978
Y04258
Y04428
X05512Y04528
X05709
X05315
X05118
X05217Y04331
X0502Y03543
X04823
X04921Y03346
X05118
X05315
X05512
X0561Y03543
Y0315
X05413
X0502
X04823
X04724Y03346
X0502Y04724
X05217
X05315Y04921
X05512
X0561Y04724
X05118Y04921
X05075Y0546
X04975
X04875
X04775
X05175
X05275
X0548Y05494
Y05354
Y05634
Y05805
X04675Y0546
X04575
X04475
X04375
X04275
X04175
X04085Y0516
Y0507
Y04985
X04035Y04724
X04429
X04626
X04385Y0501
Y0507
Y0513
X03642Y05118
X03445
X03248
X03346Y05315
X03543
X0374
X03642Y05512
X03445
X03248
X0315Y05315
Y04921
X03346
X03543
X0374
X03642Y04724
X03445
X03248
X03051
X02953Y04921
X03051Y05118
X02854
X02953Y05315
X02756
X0276Y05485
X02854Y05512
X03051
X02953Y05709
X0256Y05485
X0246
X02264Y05512
X02165Y05709
X02461Y05118
Y04724
X02657
X02264
T02
X04774Y02165
X05709Y02155
Y02255
Y02509
Y02609
Y02863
Y02963
X04674Y02165
X04234
X04134
X04034
X02915Y0359
Y0369
Y0379
Y0389
Y0399
Y0409
Y0419
Y0429
X02165Y04278
Y04378
Y04478
Y04578
Y04678
Y04178
Y04078
Y03978
Y03878
Y03778
Y03298
Y03198
X05709Y0323
Y0333
Y0343
Y0353
Y0363
Y0373
Y0383
Y0393
Y0403
Y0413
Y0423
Y0433
Y04607
Y04707
Y04807
Y04907
Y05007
Y05107
Y05207
Y05307
Y05407
Y05507
Y05607
Y05707
X05274Y05709
X05174
X05074
X04974
X04874
X04774
X04674
X04574
X04474
X04374
X04274
X04174
X03893
X03793
X03693
X03593
X03493
X03393
X03293
X03193
X02759
X02659
X02559
X02459
X02359
X02165Y05278
Y05178
Y05078
Y04978
Y04878
Y04778
M30
