G04 Layer_Physical_Order=2*
G04 Layer_Color=16711680*
%FSLAX23Y23*%
%MOIN*%
%TF.FileFunction,Copper,L2,Bot,Signal*%
%TF.Part,Single*%
G01*
G75*
%ADD10C,0.012*%
%ADD28C,0.020*%
%ADD29C,0.039*%
%TA.AperFunction,ViaPad*%
%ADD30C,0.063*%
%TA.AperFunction,ViaPad*%
%ADD31C,0.039*%
G36*
X5823Y5905D02*
X5838Y5901D01*
X5852Y5895D01*
X5865Y5887D01*
X5877Y5877D01*
X5887Y5865D01*
X5895Y5852D01*
X5901Y5838D01*
X5905Y5823D01*
X5906Y5807D01*
X5906Y5807D01*
X5906D01*
X5906Y2067D01*
X5905Y2051D01*
X5901Y2036D01*
X5895Y2022D01*
X5887Y2009D01*
X5877Y1997D01*
X5865Y1987D01*
X5852Y1979D01*
X5838Y1973D01*
X5823Y1969D01*
X5807Y1968D01*
X5807Y1969D01*
Y1969D01*
X2067Y1968D01*
X2051Y1969D01*
X2036Y1973D01*
X2022Y1979D01*
X2009Y1987D01*
X1997Y1997D01*
X1987Y2009D01*
X1979Y2022D01*
X1973Y2036D01*
X1969Y2051D01*
X1968Y2067D01*
X1969Y2067D01*
X1969D01*
X1968Y5807D01*
X1969Y5823D01*
X1973Y5838D01*
X1979Y5852D01*
X1987Y5865D01*
X1997Y5877D01*
X2009Y5887D01*
X2022Y5895D01*
X2036Y5901D01*
X2051Y5905D01*
X2067Y5906D01*
X2067Y5906D01*
Y5906D01*
X5807Y5906D01*
X5823Y5905D01*
D02*
G37*
%LPC*%
G36*
X5310Y3342D02*
X5286D01*
X5286Y3339D01*
X5289Y3332D01*
X5294Y3325D01*
X5300Y3321D01*
X5307Y3318D01*
X5310Y3317D01*
Y3342D01*
D02*
G37*
G36*
X5344D02*
X5320D01*
Y3317D01*
X5323Y3318D01*
X5330Y3321D01*
X5336Y3325D01*
X5341Y3332D01*
X5344Y3339D01*
X5344Y3342D01*
D02*
G37*
G36*
X5507D02*
X5483D01*
X5483Y3339D01*
X5486Y3332D01*
X5491Y3325D01*
X5497Y3321D01*
X5504Y3318D01*
X5507Y3317D01*
Y3342D01*
D02*
G37*
G36*
X4950D02*
X4926D01*
Y3317D01*
X4929Y3318D01*
X4936Y3321D01*
X4942Y3325D01*
X4947Y3332D01*
X4950Y3339D01*
X4950Y3342D01*
D02*
G37*
G36*
X5113D02*
X5089D01*
X5089Y3339D01*
X5092Y3332D01*
X5097Y3325D01*
X5103Y3321D01*
X5110Y3318D01*
X5113Y3317D01*
Y3342D01*
D02*
G37*
G36*
X5147D02*
X5123D01*
Y3317D01*
X5126Y3318D01*
X5133Y3321D01*
X5139Y3325D01*
X5144Y3332D01*
X5147Y3339D01*
X5147Y3342D01*
D02*
G37*
G36*
X2357Y3376D02*
X2354Y3375D01*
X2347Y3372D01*
X2341Y3368D01*
X2336Y3361D01*
X2333Y3354D01*
X2333Y3351D01*
X2357D01*
Y3376D01*
D02*
G37*
G36*
X2367D02*
Y3351D01*
X2391D01*
X2391Y3354D01*
X2388Y3361D01*
X2383Y3368D01*
X2377Y3372D01*
X2370Y3375D01*
X2367Y3376D01*
D02*
G37*
G36*
X2554D02*
X2551Y3375D01*
X2544Y3372D01*
X2538Y3368D01*
X2533Y3361D01*
X2530Y3354D01*
X2530Y3351D01*
X2554D01*
Y3376D01*
D02*
G37*
G36*
X5541Y3342D02*
X5517D01*
Y3317D01*
X5520Y3318D01*
X5527Y3321D01*
X5533Y3325D01*
X5538Y3332D01*
X5541Y3339D01*
X5541Y3342D01*
D02*
G37*
G36*
X5704Y3371D02*
X5698Y3370D01*
X5688Y3366D01*
X5679Y3359D01*
X5673Y3350D01*
X5668Y3340D01*
X5668Y3334D01*
X5704D01*
Y3371D01*
D02*
G37*
G36*
X5714D02*
Y3334D01*
X5750D01*
X5749Y3340D01*
X5745Y3350D01*
X5738Y3359D01*
X5730Y3366D01*
X5719Y3370D01*
X5714Y3371D01*
D02*
G37*
G36*
X4916Y3342D02*
X4892D01*
X4892Y3339D01*
X4895Y3332D01*
X4900Y3325D01*
X4906Y3321D01*
X4914Y3318D01*
X4916Y3317D01*
Y3342D01*
D02*
G37*
G36*
X3376D02*
X3351D01*
Y3317D01*
X3354Y3318D01*
X3361Y3321D01*
X3368Y3325D01*
X3372Y3332D01*
X3375Y3339D01*
X3376Y3342D01*
D02*
G37*
G36*
X3735D02*
X3711D01*
X3711Y3339D01*
X3714Y3332D01*
X3719Y3325D01*
X3725Y3321D01*
X3732Y3318D01*
X3735Y3317D01*
Y3342D01*
D02*
G37*
G36*
X3769D02*
X3745D01*
Y3317D01*
X3748Y3318D01*
X3755Y3321D01*
X3761Y3325D01*
X3766Y3332D01*
X3769Y3339D01*
X3769Y3342D01*
D02*
G37*
G36*
X3145D02*
X3120D01*
X3121Y3339D01*
X3124Y3332D01*
X3129Y3325D01*
X3135Y3321D01*
X3142Y3318D01*
X3145Y3317D01*
Y3342D01*
D02*
G37*
G36*
X3179D02*
X3155D01*
Y3317D01*
X3157Y3318D01*
X3164Y3321D01*
X3171Y3325D01*
X3175Y3332D01*
X3178Y3339D01*
X3179Y3342D01*
D02*
G37*
G36*
X3342D02*
X3317D01*
X3318Y3339D01*
X3321Y3332D01*
X3325Y3325D01*
X3332Y3321D01*
X3339Y3318D01*
X3342Y3317D01*
Y3342D01*
D02*
G37*
G36*
X4360D02*
X4336D01*
Y3317D01*
X4338Y3318D01*
X4346Y3321D01*
X4352Y3325D01*
X4357Y3332D01*
X4359Y3339D01*
X4360Y3342D01*
D02*
G37*
G36*
X4719D02*
X4695D01*
X4696Y3339D01*
X4699Y3332D01*
X4703Y3325D01*
X4710Y3321D01*
X4717Y3318D01*
X4719Y3317D01*
Y3342D01*
D02*
G37*
G36*
X4754D02*
X4729D01*
Y3317D01*
X4732Y3318D01*
X4739Y3321D01*
X4745Y3325D01*
X4750Y3332D01*
X4753Y3339D01*
X4754Y3342D01*
D02*
G37*
G36*
X4129D02*
X4105D01*
X4105Y3339D01*
X4108Y3332D01*
X4113Y3325D01*
X4119Y3321D01*
X4126Y3318D01*
X4129Y3317D01*
Y3342D01*
D02*
G37*
G36*
X4163D02*
X4139D01*
Y3317D01*
X4142Y3318D01*
X4149Y3321D01*
X4155Y3325D01*
X4160Y3332D01*
X4163Y3339D01*
X4163Y3342D01*
D02*
G37*
G36*
X4326D02*
X4302D01*
X4302Y3339D01*
X4305Y3332D01*
X4310Y3325D01*
X4316Y3321D01*
X4323Y3318D01*
X4326Y3317D01*
Y3342D01*
D02*
G37*
G36*
X4926Y3376D02*
Y3351D01*
X4950D01*
X4950Y3354D01*
X4947Y3361D01*
X4942Y3368D01*
X4936Y3372D01*
X4929Y3375D01*
X4926Y3376D01*
D02*
G37*
G36*
X5113D02*
X5110Y3375D01*
X5103Y3372D01*
X5097Y3368D01*
X5092Y3361D01*
X5089Y3354D01*
X5089Y3351D01*
X5113D01*
Y3376D01*
D02*
G37*
G36*
X5123D02*
Y3351D01*
X5147D01*
X5147Y3354D01*
X5144Y3361D01*
X5139Y3368D01*
X5133Y3372D01*
X5126Y3375D01*
X5123Y3376D01*
D02*
G37*
G36*
X4719D02*
X4717Y3375D01*
X4710Y3372D01*
X4703Y3368D01*
X4699Y3361D01*
X4696Y3354D01*
X4695Y3351D01*
X4719D01*
Y3376D01*
D02*
G37*
G36*
X4729D02*
Y3351D01*
X4754D01*
X4753Y3354D01*
X4750Y3361D01*
X4745Y3368D01*
X4739Y3372D01*
X4732Y3375D01*
X4729Y3376D01*
D02*
G37*
G36*
X4916D02*
X4914Y3375D01*
X4906Y3372D01*
X4900Y3368D01*
X4895Y3361D01*
X4892Y3354D01*
X4892Y3351D01*
X4916D01*
Y3376D01*
D02*
G37*
G36*
X5517D02*
Y3351D01*
X5541D01*
X5541Y3354D01*
X5538Y3361D01*
X5533Y3368D01*
X5527Y3372D01*
X5520Y3375D01*
X5517Y3376D01*
D02*
G37*
G36*
X5704Y3525D02*
X5668D01*
X5668Y3519D01*
X5673Y3509D01*
X5679Y3500D01*
X5688Y3493D01*
X5698Y3489D01*
X5704Y3488D01*
Y3525D01*
D02*
G37*
G36*
X5750D02*
X5714D01*
Y3488D01*
X5719Y3489D01*
X5730Y3493D01*
X5738Y3500D01*
X5745Y3509D01*
X5749Y3519D01*
X5750Y3525D01*
D02*
G37*
G36*
X5310Y3376D02*
X5307Y3375D01*
X5300Y3372D01*
X5294Y3368D01*
X5289Y3361D01*
X5286Y3354D01*
X5286Y3351D01*
X5310D01*
Y3376D01*
D02*
G37*
G36*
X5320D02*
Y3351D01*
X5344D01*
X5344Y3354D01*
X5341Y3361D01*
X5336Y3368D01*
X5330Y3372D01*
X5323Y3375D01*
X5320Y3376D01*
D02*
G37*
G36*
X5507D02*
X5504Y3375D01*
X5497Y3372D01*
X5491Y3368D01*
X5486Y3361D01*
X5483Y3354D01*
X5483Y3351D01*
X5507D01*
Y3376D01*
D02*
G37*
G36*
X4336D02*
Y3351D01*
X4360D01*
X4359Y3354D01*
X4357Y3361D01*
X4352Y3368D01*
X4346Y3372D01*
X4338Y3375D01*
X4336Y3376D01*
D02*
G37*
G36*
X3145D02*
X3142Y3375D01*
X3135Y3372D01*
X3129Y3368D01*
X3124Y3361D01*
X3121Y3354D01*
X3120Y3351D01*
X3145D01*
Y3376D01*
D02*
G37*
G36*
X3155D02*
Y3351D01*
X3179D01*
X3178Y3354D01*
X3175Y3361D01*
X3171Y3368D01*
X3164Y3372D01*
X3157Y3375D01*
X3155Y3376D01*
D02*
G37*
G36*
X3342D02*
X3339Y3375D01*
X3332Y3372D01*
X3325Y3368D01*
X3321Y3361D01*
X3318Y3354D01*
X3317Y3351D01*
X3342D01*
Y3376D01*
D02*
G37*
G36*
X2564D02*
Y3351D01*
X2588D01*
X2588Y3354D01*
X2585Y3361D01*
X2580Y3368D01*
X2574Y3372D01*
X2567Y3375D01*
X2564Y3376D01*
D02*
G37*
G36*
X2751D02*
X2748Y3375D01*
X2741Y3372D01*
X2735Y3368D01*
X2730Y3361D01*
X2727Y3354D01*
X2727Y3351D01*
X2751D01*
Y3376D01*
D02*
G37*
G36*
X2761D02*
Y3351D01*
X2785D01*
X2785Y3354D01*
X2782Y3361D01*
X2777Y3368D01*
X2771Y3372D01*
X2764Y3375D01*
X2761Y3376D01*
D02*
G37*
G36*
X4129D02*
X4126Y3375D01*
X4119Y3372D01*
X4113Y3368D01*
X4108Y3361D01*
X4105Y3354D01*
X4105Y3351D01*
X4129D01*
Y3376D01*
D02*
G37*
G36*
X4139D02*
Y3351D01*
X4163D01*
X4163Y3354D01*
X4160Y3361D01*
X4155Y3368D01*
X4149Y3372D01*
X4142Y3375D01*
X4139Y3376D01*
D02*
G37*
G36*
X4326D02*
X4323Y3375D01*
X4316Y3372D01*
X4310Y3368D01*
X4305Y3361D01*
X4302Y3354D01*
X4302Y3351D01*
X4326D01*
Y3376D01*
D02*
G37*
G36*
X3351D02*
Y3351D01*
X3376D01*
X3375Y3354D01*
X3372Y3361D01*
X3368Y3368D01*
X3361Y3372D01*
X3354Y3375D01*
X3351Y3376D01*
D02*
G37*
G36*
X3735D02*
X3732Y3375D01*
X3725Y3372D01*
X3719Y3368D01*
X3714Y3361D01*
X3711Y3354D01*
X3711Y3351D01*
X3735D01*
Y3376D01*
D02*
G37*
G36*
X3745D02*
Y3351D01*
X3769D01*
X3769Y3354D01*
X3766Y3361D01*
X3761Y3368D01*
X3755Y3372D01*
X3748Y3375D01*
X3745Y3376D01*
D02*
G37*
G36*
X3253Y3179D02*
Y3155D01*
X3277D01*
X3277Y3157D01*
X3274Y3164D01*
X3269Y3171D01*
X3263Y3175D01*
X3256Y3178D01*
X3253Y3179D01*
D02*
G37*
G36*
X3440D02*
X3437Y3178D01*
X3430Y3175D01*
X3424Y3171D01*
X3419Y3164D01*
X3416Y3157D01*
X3416Y3155D01*
X3440D01*
Y3179D01*
D02*
G37*
G36*
X3450D02*
Y3155D01*
X3474D01*
X3474Y3157D01*
X3471Y3164D01*
X3466Y3171D01*
X3460Y3175D01*
X3453Y3178D01*
X3450Y3179D01*
D02*
G37*
G36*
X3046D02*
X3043Y3178D01*
X3036Y3175D01*
X3030Y3171D01*
X3025Y3164D01*
X3022Y3157D01*
X3022Y3155D01*
X3046D01*
Y3179D01*
D02*
G37*
G36*
X3056D02*
Y3155D01*
X3080D01*
X3080Y3157D01*
X3077Y3164D01*
X3072Y3171D01*
X3066Y3175D01*
X3059Y3178D01*
X3056Y3179D01*
D02*
G37*
G36*
X3243D02*
X3240Y3178D01*
X3233Y3175D01*
X3227Y3171D01*
X3222Y3164D01*
X3219Y3157D01*
X3219Y3155D01*
X3243D01*
Y3179D01*
D02*
G37*
G36*
X3844D02*
Y3155D01*
X3868D01*
X3867Y3157D01*
X3864Y3164D01*
X3860Y3171D01*
X3853Y3175D01*
X3846Y3178D01*
X3844Y3179D01*
D02*
G37*
G36*
X4031D02*
X4028Y3178D01*
X4021Y3175D01*
X4014Y3171D01*
X4010Y3164D01*
X4007Y3157D01*
X4006Y3155D01*
X4031D01*
Y3179D01*
D02*
G37*
G36*
X4040D02*
Y3155D01*
X4065D01*
X4064Y3157D01*
X4061Y3164D01*
X4056Y3171D01*
X4050Y3175D01*
X4043Y3178D01*
X4040Y3179D01*
D02*
G37*
G36*
X3637D02*
X3634Y3178D01*
X3627Y3175D01*
X3621Y3171D01*
X3616Y3164D01*
X3613Y3157D01*
X3613Y3155D01*
X3637D01*
Y3179D01*
D02*
G37*
G36*
X3647D02*
Y3155D01*
X3671D01*
X3671Y3157D01*
X3668Y3164D01*
X3663Y3171D01*
X3657Y3175D01*
X3649Y3178D01*
X3647Y3179D01*
D02*
G37*
G36*
X3834D02*
X3831Y3178D01*
X3824Y3175D01*
X3818Y3171D01*
X3813Y3164D01*
X3810Y3157D01*
X3809Y3155D01*
X3834D01*
Y3179D01*
D02*
G37*
G36*
X5639Y3145D02*
X5615D01*
Y3120D01*
X5618Y3121D01*
X5625Y3124D01*
X5631Y3129D01*
X5636Y3135D01*
X5639Y3142D01*
X5639Y3145D01*
D02*
G37*
G36*
X4621D02*
X4597D01*
X4597Y3142D01*
X4600Y3135D01*
X4605Y3129D01*
X4611Y3124D01*
X4618Y3121D01*
X4621Y3120D01*
Y3145D01*
D02*
G37*
G36*
X4655D02*
X4631D01*
Y3120D01*
X4634Y3121D01*
X4641Y3124D01*
X4647Y3129D01*
X4652Y3135D01*
X4655Y3142D01*
X4655Y3145D01*
D02*
G37*
G36*
X4818D02*
X4794D01*
X4794Y3142D01*
X4797Y3135D01*
X4802Y3129D01*
X4808Y3124D01*
X4815Y3121D01*
X4818Y3120D01*
Y3145D01*
D02*
G37*
G36*
X4261D02*
X4237D01*
Y3120D01*
X4240Y3121D01*
X4247Y3124D01*
X4253Y3129D01*
X4258Y3135D01*
X4261Y3142D01*
X4261Y3145D01*
D02*
G37*
G36*
X4424D02*
X4400D01*
X4400Y3142D01*
X4403Y3135D01*
X4408Y3129D01*
X4414Y3124D01*
X4421Y3121D01*
X4424Y3120D01*
Y3145D01*
D02*
G37*
G36*
X4458D02*
X4434D01*
Y3120D01*
X4437Y3121D01*
X4444Y3124D01*
X4450Y3129D01*
X4455Y3135D01*
X4458Y3142D01*
X4458Y3145D01*
D02*
G37*
G36*
X5408D02*
X5384D01*
X5385Y3142D01*
X5388Y3135D01*
X5392Y3129D01*
X5398Y3124D01*
X5406Y3121D01*
X5408Y3120D01*
Y3145D01*
D02*
G37*
G36*
X5443D02*
X5418D01*
Y3120D01*
X5421Y3121D01*
X5428Y3124D01*
X5434Y3129D01*
X5439Y3135D01*
X5442Y3142D01*
X5443Y3145D01*
D02*
G37*
G36*
X5605D02*
X5581D01*
X5581Y3142D01*
X5584Y3135D01*
X5589Y3129D01*
X5595Y3124D01*
X5603Y3121D01*
X5605Y3120D01*
Y3145D01*
D02*
G37*
G36*
X4852D02*
X4828D01*
Y3120D01*
X4831Y3121D01*
X4838Y3124D01*
X4844Y3129D01*
X4849Y3135D01*
X4852Y3142D01*
X4852Y3145D01*
D02*
G37*
G36*
X5015D02*
X4991D01*
X4991Y3142D01*
X4994Y3135D01*
X4999Y3129D01*
X5005Y3124D01*
X5012Y3121D01*
X5015Y3120D01*
Y3145D01*
D02*
G37*
G36*
X5049D02*
X5025D01*
Y3120D01*
X5027Y3121D01*
X5035Y3124D01*
X5041Y3129D01*
X5045Y3135D01*
X5048Y3142D01*
X5049Y3145D01*
D02*
G37*
G36*
X2165Y3338D02*
X2155Y3336D01*
X2145Y3332D01*
X2137Y3326D01*
X2131Y3318D01*
X2127Y3308D01*
X2126Y3298D01*
X2127Y3288D01*
X2131Y3278D01*
X2137Y3270D01*
X2145Y3264D01*
X2155Y3260D01*
X2165Y3258D01*
X2176Y3260D01*
X2185Y3264D01*
X2193Y3270D01*
X2200Y3278D01*
X2204Y3288D01*
X2205Y3298D01*
X2204Y3308D01*
X2200Y3318D01*
X2193Y3326D01*
X2185Y3332D01*
X2176Y3336D01*
X2165Y3338D01*
D02*
G37*
G36*
X5704Y3325D02*
X5668D01*
X5668Y3319D01*
X5673Y3309D01*
X5679Y3300D01*
X5688Y3293D01*
X5698Y3289D01*
X5704Y3288D01*
Y3325D01*
D02*
G37*
G36*
X5750D02*
X5714D01*
Y3288D01*
X5719Y3289D01*
X5730Y3293D01*
X5738Y3300D01*
X5745Y3309D01*
X5749Y3319D01*
X5750Y3325D01*
D02*
G37*
G36*
X5615Y3179D02*
Y3155D01*
X5639D01*
X5639Y3157D01*
X5636Y3164D01*
X5631Y3171D01*
X5625Y3175D01*
X5618Y3178D01*
X5615Y3179D01*
D02*
G37*
G36*
X2165Y3238D02*
X2155Y3236D01*
X2145Y3232D01*
X2137Y3226D01*
X2131Y3218D01*
X2127Y3208D01*
X2126Y3198D01*
X2127Y3188D01*
X2131Y3178D01*
X2137Y3170D01*
X2145Y3164D01*
X2155Y3160D01*
X2165Y3158D01*
X2176Y3160D01*
X2185Y3164D01*
X2193Y3170D01*
X2200Y3178D01*
X2204Y3188D01*
X2205Y3198D01*
X2204Y3208D01*
X2200Y3218D01*
X2193Y3226D01*
X2185Y3232D01*
X2176Y3236D01*
X2165Y3238D01*
D02*
G37*
G36*
X5709Y3269D02*
X5698Y3268D01*
X5689Y3264D01*
X5681Y3258D01*
X5674Y3249D01*
X5670Y3240D01*
X5669Y3230D01*
X5670Y3219D01*
X5674Y3210D01*
X5681Y3201D01*
X5689Y3195D01*
X5698Y3191D01*
X5709Y3190D01*
X5719Y3191D01*
X5729Y3195D01*
X5737Y3201D01*
X5743Y3210D01*
X5747Y3219D01*
X5748Y3230D01*
X5747Y3240D01*
X5743Y3249D01*
X5737Y3258D01*
X5729Y3264D01*
X5719Y3268D01*
X5709Y3269D01*
D02*
G37*
G36*
X2588Y3342D02*
X2564D01*
Y3317D01*
X2567Y3318D01*
X2574Y3321D01*
X2580Y3325D01*
X2585Y3332D01*
X2588Y3339D01*
X2588Y3342D01*
D02*
G37*
G36*
X2751D02*
X2727D01*
X2727Y3339D01*
X2730Y3332D01*
X2735Y3325D01*
X2741Y3321D01*
X2748Y3318D01*
X2751Y3317D01*
Y3342D01*
D02*
G37*
G36*
X2785D02*
X2761D01*
Y3317D01*
X2764Y3318D01*
X2771Y3321D01*
X2777Y3325D01*
X2782Y3332D01*
X2785Y3339D01*
X2785Y3342D01*
D02*
G37*
G36*
X2357D02*
X2333D01*
X2333Y3339D01*
X2336Y3332D01*
X2341Y3325D01*
X2347Y3321D01*
X2354Y3318D01*
X2357Y3317D01*
Y3342D01*
D02*
G37*
G36*
X2391D02*
X2367D01*
Y3317D01*
X2370Y3318D01*
X2377Y3321D01*
X2383Y3325D01*
X2388Y3332D01*
X2391Y3339D01*
X2391Y3342D01*
D02*
G37*
G36*
X2554D02*
X2530D01*
X2530Y3339D01*
X2533Y3332D01*
X2538Y3325D01*
X2544Y3321D01*
X2551Y3318D01*
X2554Y3317D01*
Y3342D01*
D02*
G37*
G36*
X5605Y3179D02*
X5603Y3178D01*
X5595Y3175D01*
X5589Y3171D01*
X5584Y3164D01*
X5581Y3157D01*
X5581Y3155D01*
X5605D01*
Y3179D01*
D02*
G37*
G36*
X4434D02*
Y3155D01*
X4458D01*
X4458Y3157D01*
X4455Y3164D01*
X4450Y3171D01*
X4444Y3175D01*
X4437Y3178D01*
X4434Y3179D01*
D02*
G37*
G36*
X4621D02*
X4618Y3178D01*
X4611Y3175D01*
X4605Y3171D01*
X4600Y3164D01*
X4597Y3157D01*
X4597Y3155D01*
X4621D01*
Y3179D01*
D02*
G37*
G36*
X4631D02*
Y3155D01*
X4655D01*
X4655Y3157D01*
X4652Y3164D01*
X4647Y3171D01*
X4641Y3175D01*
X4634Y3178D01*
X4631Y3179D01*
D02*
G37*
G36*
X4227D02*
X4225Y3178D01*
X4217Y3175D01*
X4211Y3171D01*
X4206Y3164D01*
X4204Y3157D01*
X4203Y3155D01*
X4227D01*
Y3179D01*
D02*
G37*
G36*
X4237D02*
Y3155D01*
X4261D01*
X4261Y3157D01*
X4258Y3164D01*
X4253Y3171D01*
X4247Y3175D01*
X4240Y3178D01*
X4237Y3179D01*
D02*
G37*
G36*
X4424D02*
X4421Y3178D01*
X4414Y3175D01*
X4408Y3171D01*
X4403Y3164D01*
X4400Y3157D01*
X4400Y3155D01*
X4424D01*
Y3179D01*
D02*
G37*
G36*
X5025D02*
Y3155D01*
X5049D01*
X5048Y3157D01*
X5045Y3164D01*
X5041Y3171D01*
X5035Y3175D01*
X5027Y3178D01*
X5025Y3179D01*
D02*
G37*
G36*
X5408D02*
X5406Y3178D01*
X5398Y3175D01*
X5392Y3171D01*
X5388Y3164D01*
X5385Y3157D01*
X5384Y3155D01*
X5408D01*
Y3179D01*
D02*
G37*
G36*
X5418D02*
Y3155D01*
X5443D01*
X5442Y3157D01*
X5439Y3164D01*
X5434Y3171D01*
X5428Y3175D01*
X5421Y3178D01*
X5418Y3179D01*
D02*
G37*
G36*
X4818D02*
X4815Y3178D01*
X4808Y3175D01*
X4802Y3171D01*
X4797Y3164D01*
X4794Y3157D01*
X4794Y3155D01*
X4818D01*
Y3179D01*
D02*
G37*
G36*
X4828D02*
Y3155D01*
X4852D01*
X4852Y3157D01*
X4849Y3164D01*
X4844Y3171D01*
X4838Y3175D01*
X4831Y3178D01*
X4828Y3179D01*
D02*
G37*
G36*
X5015D02*
X5012Y3178D01*
X5005Y3175D01*
X4999Y3171D01*
X4994Y3164D01*
X4991Y3157D01*
X4991Y3155D01*
X5015D01*
Y3179D01*
D02*
G37*
G36*
X4535Y3783D02*
X4528Y3782D01*
X4521Y3779D01*
X4515Y3775D01*
X4511Y3769D01*
X4508Y3762D01*
X4507Y3755D01*
Y3665D01*
X4508Y3658D01*
X4511Y3651D01*
X4515Y3645D01*
X4655Y3505D01*
X4661Y3501D01*
X4668Y3498D01*
X4675Y3497D01*
X4682Y3498D01*
X4689Y3501D01*
X4695Y3505D01*
X4699Y3511D01*
X4702Y3518D01*
X4703Y3525D01*
X4702Y3532D01*
X4699Y3539D01*
X4695Y3545D01*
X4563Y3677D01*
Y3755D01*
X4562Y3762D01*
X4559Y3769D01*
X4555Y3775D01*
X4549Y3779D01*
X4542Y3782D01*
X4535Y3783D01*
D02*
G37*
G36*
X2170Y3819D02*
Y3782D01*
X2206D01*
X2206Y3788D01*
X2201Y3798D01*
X2195Y3807D01*
X2186Y3814D01*
X2176Y3818D01*
X2170Y3819D01*
D02*
G37*
G36*
X5709Y3869D02*
X5698Y3868D01*
X5689Y3864D01*
X5681Y3858D01*
X5674Y3849D01*
X5670Y3840D01*
X5669Y3830D01*
X5670Y3819D01*
X5674Y3810D01*
X5681Y3801D01*
X5689Y3795D01*
X5698Y3791D01*
X5709Y3790D01*
X5719Y3791D01*
X5729Y3795D01*
X5737Y3801D01*
X5743Y3810D01*
X5747Y3819D01*
X5748Y3830D01*
X5747Y3840D01*
X5743Y3849D01*
X5737Y3858D01*
X5729Y3864D01*
X5719Y3868D01*
X5709Y3869D01*
D02*
G37*
G36*
X2165Y3917D02*
X2155Y3916D01*
X2145Y3912D01*
X2137Y3906D01*
X2131Y3897D01*
X2127Y3888D01*
X2126Y3878D01*
X2127Y3867D01*
X2131Y3858D01*
X2137Y3849D01*
X2145Y3843D01*
X2155Y3839D01*
X2165Y3838D01*
X2176Y3839D01*
X2185Y3843D01*
X2193Y3849D01*
X2200Y3858D01*
X2204Y3867D01*
X2205Y3878D01*
X2204Y3888D01*
X2200Y3897D01*
X2193Y3906D01*
X2185Y3912D01*
X2176Y3916D01*
X2165Y3917D01*
D02*
G37*
G36*
X3745Y3769D02*
Y3745D01*
X3769D01*
X3769Y3748D01*
X3766Y3755D01*
X3761Y3761D01*
X3755Y3766D01*
X3748Y3769D01*
X3745Y3769D01*
D02*
G37*
G36*
X2915Y3830D02*
X2905Y3828D01*
X2895Y3824D01*
X2887Y3818D01*
X2881Y3810D01*
X2877Y3800D01*
X2875Y3790D01*
X2877Y3780D01*
X2881Y3770D01*
X2887Y3762D01*
X2895Y3756D01*
X2905Y3752D01*
X2915Y3750D01*
X2925Y3752D01*
X2935Y3756D01*
X2943Y3762D01*
X2949Y3770D01*
X2953Y3780D01*
X2955Y3790D01*
X2953Y3800D01*
X2949Y3810D01*
X2943Y3818D01*
X2935Y3824D01*
X2925Y3828D01*
X2915Y3830D01*
D02*
G37*
G36*
X2160Y3819D02*
X2155Y3818D01*
X2145Y3814D01*
X2136Y3807D01*
X2129Y3798D01*
X2125Y3788D01*
X2124Y3782D01*
X2160D01*
Y3819D01*
D02*
G37*
G36*
X2293Y3932D02*
X2269D01*
Y3908D01*
X2271Y3908D01*
X2279Y3911D01*
X2285Y3916D01*
X2290Y3922D01*
X2293Y3929D01*
X2293Y3932D01*
D02*
G37*
G36*
X2456D02*
X2431D01*
X2432Y3929D01*
X2435Y3922D01*
X2440Y3916D01*
X2446Y3911D01*
X2453Y3908D01*
X2456Y3908D01*
Y3932D01*
D02*
G37*
G36*
X2490D02*
X2466D01*
Y3908D01*
X2468Y3908D01*
X2476Y3911D01*
X2482Y3916D01*
X2486Y3922D01*
X2489Y3929D01*
X2490Y3932D01*
D02*
G37*
G36*
X2883D02*
X2859D01*
Y3908D01*
X2862Y3908D01*
X2869Y3911D01*
X2871Y3913D01*
X2879Y3906D01*
X2877Y3900D01*
X2875Y3890D01*
X2877Y3880D01*
X2881Y3870D01*
X2887Y3862D01*
X2895Y3856D01*
X2905Y3852D01*
X2915Y3850D01*
X2925Y3852D01*
X2935Y3856D01*
X2943Y3862D01*
X2949Y3870D01*
X2953Y3880D01*
X2955Y3890D01*
X2953Y3900D01*
X2949Y3910D01*
X2943Y3918D01*
X2935Y3924D01*
X2925Y3928D01*
X2915Y3930D01*
X2905Y3928D01*
X2895Y3924D01*
X2890Y3921D01*
X2882Y3927D01*
X2883Y3929D01*
X2883Y3932D01*
D02*
G37*
G36*
X5709Y3969D02*
X5698Y3968D01*
X5689Y3964D01*
X5681Y3958D01*
X5674Y3949D01*
X5670Y3940D01*
X5669Y3930D01*
X5670Y3919D01*
X5674Y3910D01*
X5681Y3901D01*
X5689Y3895D01*
X5698Y3891D01*
X5709Y3890D01*
X5719Y3891D01*
X5729Y3895D01*
X5737Y3901D01*
X5743Y3910D01*
X5747Y3919D01*
X5748Y3930D01*
X5747Y3940D01*
X5743Y3949D01*
X5737Y3958D01*
X5729Y3964D01*
X5719Y3968D01*
X5709Y3969D01*
D02*
G37*
G36*
X2259Y3932D02*
X2235D01*
X2235Y3929D01*
X2238Y3922D01*
X2243Y3916D01*
X2249Y3911D01*
X2256Y3908D01*
X2259Y3908D01*
Y3932D01*
D02*
G37*
G36*
X3735Y3769D02*
X3732Y3769D01*
X3725Y3766D01*
X3719Y3761D01*
X3714Y3755D01*
X3711Y3748D01*
X3711Y3745D01*
X3735D01*
Y3769D01*
D02*
G37*
G36*
X2785Y3735D02*
X2761D01*
Y3711D01*
X2764Y3711D01*
X2771Y3714D01*
X2777Y3719D01*
X2782Y3725D01*
X2785Y3732D01*
X2785Y3735D01*
D02*
G37*
G36*
X3735D02*
X3711D01*
X3711Y3732D01*
X3714Y3725D01*
X3719Y3719D01*
X3725Y3714D01*
X3732Y3711D01*
X3735Y3711D01*
Y3735D01*
D02*
G37*
G36*
X3769D02*
X3745D01*
Y3711D01*
X3748Y3711D01*
X3755Y3714D01*
X3761Y3719D01*
X3766Y3725D01*
X3769Y3732D01*
X3769Y3735D01*
D02*
G37*
G36*
X2554D02*
X2530D01*
X2530Y3732D01*
X2533Y3725D01*
X2538Y3719D01*
X2544Y3714D01*
X2551Y3711D01*
X2554Y3711D01*
Y3735D01*
D02*
G37*
G36*
X2588D02*
X2564D01*
Y3711D01*
X2567Y3711D01*
X2574Y3714D01*
X2580Y3719D01*
X2585Y3725D01*
X2588Y3732D01*
X2588Y3735D01*
D02*
G37*
G36*
X2751D02*
X2727D01*
X2727Y3732D01*
X2730Y3725D01*
X2735Y3719D01*
X2741Y3714D01*
X2748Y3711D01*
X2751Y3711D01*
Y3735D01*
D02*
G37*
G36*
X2564Y3769D02*
Y3745D01*
X2588D01*
X2588Y3748D01*
X2585Y3755D01*
X2580Y3761D01*
X2574Y3766D01*
X2567Y3769D01*
X2564Y3769D01*
D02*
G37*
G36*
X2751D02*
X2748Y3769D01*
X2741Y3766D01*
X2735Y3761D01*
X2730Y3755D01*
X2727Y3748D01*
X2727Y3745D01*
X2751D01*
Y3769D01*
D02*
G37*
G36*
X2761D02*
Y3745D01*
X2785D01*
X2785Y3748D01*
X2782Y3755D01*
X2777Y3761D01*
X2771Y3766D01*
X2764Y3769D01*
X2761Y3769D01*
D02*
G37*
G36*
X2160Y3773D02*
X2124D01*
X2125Y3767D01*
X2129Y3757D01*
X2136Y3748D01*
X2145Y3741D01*
X2155Y3737D01*
X2160Y3737D01*
Y3773D01*
D02*
G37*
G36*
X2206D02*
X2170D01*
Y3737D01*
X2176Y3737D01*
X2186Y3741D01*
X2195Y3748D01*
X2201Y3757D01*
X2206Y3767D01*
X2206Y3773D01*
D02*
G37*
G36*
X2554Y3769D02*
X2551Y3769D01*
X2544Y3766D01*
X2538Y3761D01*
X2533Y3755D01*
X2530Y3748D01*
X2530Y3745D01*
X2554D01*
Y3769D01*
D02*
G37*
G36*
X2653Y3966D02*
X2650Y3966D01*
X2643Y3963D01*
X2636Y3958D01*
X2632Y3952D01*
X2629Y3945D01*
X2628Y3942D01*
X2653D01*
Y3966D01*
D02*
G37*
G36*
X2662D02*
Y3942D01*
X2687D01*
X2686Y3945D01*
X2683Y3952D01*
X2679Y3958D01*
X2672Y3963D01*
X2665Y3966D01*
X2662Y3966D01*
D02*
G37*
G36*
X2849D02*
X2847Y3966D01*
X2839Y3963D01*
X2833Y3958D01*
X2829Y3952D01*
X2826Y3945D01*
X2825Y3942D01*
X2849D01*
Y3966D01*
D02*
G37*
G36*
X2269D02*
Y3942D01*
X2293D01*
X2293Y3945D01*
X2290Y3952D01*
X2285Y3958D01*
X2279Y3963D01*
X2271Y3966D01*
X2269Y3966D01*
D02*
G37*
G36*
X2456D02*
X2453Y3966D01*
X2446Y3963D01*
X2440Y3958D01*
X2435Y3952D01*
X2432Y3945D01*
X2431Y3942D01*
X2456D01*
Y3966D01*
D02*
G37*
G36*
X2466D02*
Y3942D01*
X2490D01*
X2489Y3945D01*
X2486Y3952D01*
X2482Y3958D01*
X2476Y3963D01*
X2468Y3966D01*
X2466Y3966D01*
D02*
G37*
G36*
X5212D02*
X5209Y3966D01*
X5202Y3963D01*
X5195Y3958D01*
X5191Y3952D01*
X5188Y3945D01*
X5187Y3942D01*
X5212D01*
Y3966D01*
D02*
G37*
G36*
X5221D02*
Y3942D01*
X5246D01*
X5245Y3945D01*
X5242Y3952D01*
X5238Y3958D01*
X5231Y3963D01*
X5224Y3966D01*
X5221Y3966D01*
D02*
G37*
G36*
X5475Y3973D02*
X5451D01*
X5451Y3970D01*
X5454Y3963D01*
X5459Y3957D01*
X5465Y3952D01*
X5472Y3949D01*
X5475Y3949D01*
Y3973D01*
D02*
G37*
G36*
X2859Y3966D02*
Y3942D01*
X2883D01*
X2883Y3945D01*
X2880Y3952D01*
X2875Y3958D01*
X2869Y3963D01*
X2862Y3966D01*
X2859Y3966D01*
D02*
G37*
G36*
X4621D02*
X4618Y3966D01*
X4611Y3963D01*
X4605Y3958D01*
X4600Y3952D01*
X4597Y3945D01*
X4597Y3942D01*
X4621D01*
Y3966D01*
D02*
G37*
G36*
X4631D02*
Y3942D01*
X4655D01*
X4655Y3945D01*
X4652Y3952D01*
X4647Y3958D01*
X4641Y3963D01*
X4634Y3966D01*
X4631Y3966D01*
D02*
G37*
G36*
X2259D02*
X2256Y3966D01*
X2249Y3963D01*
X2243Y3958D01*
X2238Y3952D01*
X2235Y3945D01*
X2235Y3942D01*
X2259D01*
Y3966D01*
D02*
G37*
G36*
X3243Y3932D02*
X3219D01*
X3219Y3929D01*
X3222Y3922D01*
X3227Y3916D01*
X3233Y3911D01*
X3240Y3908D01*
X3243Y3908D01*
Y3932D01*
D02*
G37*
G36*
X3277D02*
X3253D01*
Y3908D01*
X3256Y3908D01*
X3263Y3911D01*
X3269Y3916D01*
X3274Y3922D01*
X3277Y3929D01*
X3277Y3932D01*
D02*
G37*
G36*
X3440D02*
X3416D01*
X3416Y3929D01*
X3419Y3922D01*
X3424Y3916D01*
X3430Y3911D01*
X3437Y3908D01*
X3440Y3908D01*
Y3932D01*
D02*
G37*
G36*
X2653D02*
X2628D01*
X2629Y3929D01*
X2632Y3922D01*
X2636Y3916D01*
X2643Y3911D01*
X2650Y3908D01*
X2653Y3908D01*
Y3932D01*
D02*
G37*
G36*
X2687D02*
X2662D01*
Y3908D01*
X2665Y3908D01*
X2672Y3911D01*
X2679Y3916D01*
X2683Y3922D01*
X2686Y3929D01*
X2687Y3932D01*
D02*
G37*
G36*
X2849D02*
X2825D01*
X2826Y3929D01*
X2829Y3922D01*
X2833Y3916D01*
X2839Y3911D01*
X2847Y3908D01*
X2849Y3908D01*
Y3932D01*
D02*
G37*
G36*
X5212D02*
X5187D01*
X5188Y3929D01*
X5191Y3922D01*
X5195Y3916D01*
X5202Y3911D01*
X5209Y3908D01*
X5212Y3908D01*
Y3932D01*
D02*
G37*
G36*
X5246D02*
X5221D01*
Y3908D01*
X5224Y3908D01*
X5231Y3911D01*
X5238Y3916D01*
X5242Y3922D01*
X5245Y3929D01*
X5246Y3932D01*
D02*
G37*
G36*
X2165Y4017D02*
X2155Y4016D01*
X2145Y4012D01*
X2137Y4006D01*
X2131Y3997D01*
X2127Y3988D01*
X2126Y3978D01*
X2127Y3967D01*
X2131Y3958D01*
X2137Y3949D01*
X2145Y3943D01*
X2155Y3939D01*
X2165Y3938D01*
X2176Y3939D01*
X2185Y3943D01*
X2193Y3949D01*
X2200Y3958D01*
X2204Y3967D01*
X2205Y3978D01*
X2204Y3988D01*
X2200Y3997D01*
X2193Y4006D01*
X2185Y4012D01*
X2176Y4016D01*
X2165Y4017D01*
D02*
G37*
G36*
X3474Y3932D02*
X3450D01*
Y3908D01*
X3453Y3908D01*
X3460Y3911D01*
X3466Y3916D01*
X3471Y3922D01*
X3474Y3929D01*
X3474Y3932D01*
D02*
G37*
G36*
X4621D02*
X4597D01*
X4597Y3929D01*
X4600Y3922D01*
X4605Y3916D01*
X4611Y3911D01*
X4618Y3908D01*
X4621Y3908D01*
Y3932D01*
D02*
G37*
G36*
X4655D02*
X4631D01*
Y3908D01*
X4634Y3908D01*
X4641Y3911D01*
X4647Y3916D01*
X4652Y3922D01*
X4655Y3929D01*
X4655Y3932D01*
D02*
G37*
G36*
X5639Y3538D02*
X5615D01*
Y3514D01*
X5618Y3515D01*
X5625Y3518D01*
X5631Y3522D01*
X5636Y3528D01*
X5639Y3536D01*
X5639Y3538D01*
D02*
G37*
G36*
X5704Y3571D02*
X5698Y3570D01*
X5688Y3566D01*
X5679Y3559D01*
X5673Y3550D01*
X5668Y3540D01*
X5668Y3534D01*
X5704D01*
Y3571D01*
D02*
G37*
G36*
X5714D02*
Y3534D01*
X5750D01*
X5749Y3540D01*
X5745Y3550D01*
X5738Y3559D01*
X5730Y3566D01*
X5719Y3570D01*
X5714Y3571D01*
D02*
G37*
G36*
X5015Y3538D02*
X4991D01*
X4991Y3536D01*
X4994Y3528D01*
X4999Y3522D01*
X5005Y3518D01*
X5012Y3515D01*
X5015Y3514D01*
Y3538D01*
D02*
G37*
G36*
X5049D02*
X5025D01*
Y3514D01*
X5027Y3515D01*
X5035Y3518D01*
X5041Y3522D01*
X5045Y3528D01*
X5048Y3536D01*
X5049Y3538D01*
D02*
G37*
G36*
X5605D02*
X5581D01*
X5581Y3536D01*
X5584Y3528D01*
X5589Y3522D01*
X5595Y3518D01*
X5603Y3515D01*
X5605Y3514D01*
Y3538D01*
D02*
G37*
G36*
X2466Y3572D02*
Y3548D01*
X2490D01*
X2489Y3551D01*
X2486Y3558D01*
X2482Y3564D01*
X2476Y3569D01*
X2468Y3572D01*
X2466Y3572D01*
D02*
G37*
G36*
X2653D02*
X2650Y3572D01*
X2643Y3569D01*
X2636Y3564D01*
X2632Y3558D01*
X2629Y3551D01*
X2628Y3548D01*
X2653D01*
Y3572D01*
D02*
G37*
G36*
X2662D02*
Y3548D01*
X2687D01*
X2686Y3551D01*
X2683Y3558D01*
X2679Y3564D01*
X2672Y3569D01*
X2665Y3572D01*
X2662Y3572D01*
D02*
G37*
G36*
X2259D02*
X2256Y3572D01*
X2249Y3569D01*
X2243Y3564D01*
X2238Y3558D01*
X2235Y3551D01*
X2235Y3548D01*
X2259D01*
Y3572D01*
D02*
G37*
G36*
X2269D02*
Y3548D01*
X2293D01*
X2293Y3551D01*
X2290Y3558D01*
X2285Y3564D01*
X2279Y3569D01*
X2271Y3572D01*
X2269Y3572D01*
D02*
G37*
G36*
X2456D02*
X2453Y3572D01*
X2446Y3569D01*
X2440Y3564D01*
X2435Y3558D01*
X2432Y3551D01*
X2431Y3548D01*
X2456D01*
Y3572D01*
D02*
G37*
G36*
X4852Y3538D02*
X4828D01*
Y3514D01*
X4831Y3515D01*
X4838Y3518D01*
X4844Y3522D01*
X4849Y3528D01*
X4852Y3536D01*
X4852Y3538D01*
D02*
G37*
G36*
X2490D02*
X2466D01*
Y3514D01*
X2468Y3515D01*
X2476Y3518D01*
X2482Y3522D01*
X2486Y3528D01*
X2489Y3536D01*
X2490Y3538D01*
D02*
G37*
G36*
X2653D02*
X2628D01*
X2629Y3536D01*
X2632Y3528D01*
X2636Y3522D01*
X2643Y3518D01*
X2650Y3515D01*
X2653Y3514D01*
Y3538D01*
D02*
G37*
G36*
X2687D02*
X2662D01*
Y3514D01*
X2665Y3515D01*
X2672Y3518D01*
X2679Y3522D01*
X2683Y3528D01*
X2686Y3536D01*
X2687Y3538D01*
D02*
G37*
G36*
X2259D02*
X2235D01*
X2235Y3536D01*
X2238Y3528D01*
X2243Y3522D01*
X2249Y3518D01*
X2256Y3515D01*
X2259Y3514D01*
Y3538D01*
D02*
G37*
G36*
X2293D02*
X2269D01*
Y3514D01*
X2271Y3515D01*
X2279Y3518D01*
X2285Y3522D01*
X2290Y3528D01*
X2293Y3536D01*
X2293Y3538D01*
D02*
G37*
G36*
X2456D02*
X2431D01*
X2432Y3536D01*
X2435Y3528D01*
X2440Y3522D01*
X2446Y3518D01*
X2453Y3515D01*
X2456Y3514D01*
Y3538D01*
D02*
G37*
G36*
X3834D02*
X3809D01*
X3810Y3536D01*
X3813Y3528D01*
X3818Y3522D01*
X3824Y3518D01*
X3831Y3515D01*
X3834Y3514D01*
Y3538D01*
D02*
G37*
G36*
X3868D02*
X3844D01*
Y3514D01*
X3846Y3515D01*
X3853Y3518D01*
X3860Y3522D01*
X3864Y3528D01*
X3867Y3536D01*
X3868Y3538D01*
D02*
G37*
G36*
X4818D02*
X4794D01*
X4794Y3536D01*
X4797Y3528D01*
X4802Y3522D01*
X4808Y3518D01*
X4815Y3515D01*
X4818Y3514D01*
Y3538D01*
D02*
G37*
G36*
X2849D02*
X2825D01*
X2826Y3536D01*
X2829Y3528D01*
X2833Y3522D01*
X2839Y3518D01*
X2847Y3515D01*
X2849Y3514D01*
Y3538D01*
D02*
G37*
G36*
X3440D02*
X3416D01*
X3416Y3536D01*
X3419Y3528D01*
X3424Y3522D01*
X3430Y3518D01*
X3437Y3515D01*
X3440Y3514D01*
Y3538D01*
D02*
G37*
G36*
X3474D02*
X3450D01*
Y3514D01*
X3453Y3515D01*
X3460Y3518D01*
X3466Y3522D01*
X3471Y3528D01*
X3474Y3536D01*
X3474Y3538D01*
D02*
G37*
G36*
X3647Y3612D02*
Y3588D01*
X3671D01*
X3671Y3590D01*
X3668Y3598D01*
X3663Y3604D01*
X3657Y3608D01*
X3649Y3611D01*
X3647Y3612D01*
D02*
G37*
G36*
X5709Y3669D02*
X5698Y3668D01*
X5689Y3664D01*
X5681Y3658D01*
X5674Y3649D01*
X5670Y3640D01*
X5669Y3630D01*
X5670Y3619D01*
X5674Y3610D01*
X5681Y3601D01*
X5689Y3595D01*
X5698Y3591D01*
X5709Y3590D01*
X5719Y3591D01*
X5729Y3595D01*
X5737Y3601D01*
X5743Y3610D01*
X5747Y3619D01*
X5748Y3630D01*
X5747Y3640D01*
X5743Y3649D01*
X5737Y3658D01*
X5729Y3664D01*
X5719Y3668D01*
X5709Y3669D01*
D02*
G37*
G36*
X2910Y3631D02*
X2904Y3630D01*
X2894Y3626D01*
X2886Y3619D01*
X2879Y3611D01*
X2875Y3601D01*
X2874Y3595D01*
X2910D01*
Y3631D01*
D02*
G37*
G36*
X4375Y3590D02*
X4351D01*
X4351Y3587D01*
X4354Y3580D01*
X4359Y3574D01*
X4365Y3569D01*
X4372Y3566D01*
X4375Y3566D01*
Y3590D01*
D02*
G37*
G36*
X4409D02*
X4385D01*
Y3566D01*
X4388Y3566D01*
X4395Y3569D01*
X4401Y3574D01*
X4406Y3580D01*
X4409Y3587D01*
X4409Y3590D01*
D02*
G37*
G36*
X3637Y3612D02*
X3634Y3611D01*
X3627Y3608D01*
X3621Y3604D01*
X3616Y3598D01*
X3613Y3590D01*
X3613Y3588D01*
X3637D01*
Y3612D01*
D02*
G37*
G36*
X3140Y3733D02*
X3133Y3732D01*
X3126Y3729D01*
X3120Y3725D01*
X3116Y3719D01*
X3113Y3712D01*
X3112Y3705D01*
X3113Y3698D01*
X3116Y3691D01*
X3120Y3685D01*
X3126Y3681D01*
X3133Y3678D01*
X3140Y3677D01*
X3147Y3678D01*
X3154Y3681D01*
X3160Y3685D01*
X3161Y3687D01*
X3228D01*
X3263Y3652D01*
X3263Y3649D01*
X3260Y3641D01*
X3256Y3639D01*
X3250Y3635D01*
X3246Y3629D01*
X3245Y3627D01*
X3235D01*
X3234Y3629D01*
X3230Y3635D01*
X3224Y3639D01*
X3217Y3642D01*
X3210Y3643D01*
X3203Y3642D01*
X3196Y3639D01*
X3190Y3635D01*
X3186Y3629D01*
X3185Y3627D01*
X3175D01*
X3174Y3629D01*
X3170Y3635D01*
X3164Y3639D01*
X3157Y3642D01*
X3150Y3643D01*
X3143Y3642D01*
X3136Y3639D01*
X3130Y3635D01*
X3126Y3629D01*
X3123Y3622D01*
X3122Y3615D01*
X3123Y3608D01*
X3126Y3601D01*
X3130Y3595D01*
X3136Y3591D01*
Y3571D01*
X3114Y3549D01*
X2946D01*
X2942Y3559D01*
X2944Y3561D01*
X2951Y3569D01*
X2955Y3579D01*
X2956Y3585D01*
X2874D01*
X2875Y3579D01*
X2876Y3576D01*
X2871Y3572D01*
X2868Y3570D01*
X2862Y3572D01*
X2859Y3572D01*
Y3543D01*
Y3514D01*
X2862Y3515D01*
X2867Y3517D01*
X2873Y3514D01*
X2876Y3510D01*
X2876Y3510D01*
Y3474D01*
X2870Y3470D01*
X2866Y3464D01*
X2863Y3457D01*
X2862Y3450D01*
X2863Y3443D01*
X2866Y3436D01*
X2870Y3430D01*
X2876Y3426D01*
X2883Y3423D01*
X2890Y3422D01*
X2897Y3423D01*
X2904Y3426D01*
X2910Y3430D01*
X2914Y3436D01*
X2915Y3438D01*
X2925D01*
X2926Y3436D01*
X2930Y3430D01*
X2936Y3426D01*
X2943Y3423D01*
X2950Y3422D01*
X2957Y3423D01*
X2964Y3426D01*
X2970Y3430D01*
X2974Y3436D01*
X2975Y3438D01*
X2985D01*
X2986Y3436D01*
X2990Y3430D01*
X2996Y3426D01*
X3003Y3423D01*
X3010Y3422D01*
X3017Y3423D01*
X3024Y3426D01*
X3030Y3430D01*
X3034Y3436D01*
X3037Y3443D01*
X3038Y3450D01*
X3037Y3457D01*
X3034Y3464D01*
X3030Y3470D01*
X3031Y3481D01*
X3031Y3482D01*
X3246D01*
X3251Y3483D01*
X3256Y3486D01*
X3280Y3510D01*
X3283Y3515D01*
X3284Y3520D01*
Y3531D01*
X3286Y3532D01*
X3297Y3532D01*
X3402Y3427D01*
X3402Y3425D01*
X3403Y3418D01*
X3406Y3411D01*
X3410Y3405D01*
X3416Y3401D01*
X3423Y3398D01*
X3430Y3397D01*
X3437Y3398D01*
X3444Y3401D01*
X3450Y3405D01*
X3454Y3411D01*
X3457Y3418D01*
X3458Y3425D01*
X3458Y3427D01*
X3472Y3442D01*
X3575D01*
X3582Y3443D01*
X3588Y3447D01*
X3613Y3472D01*
X3615Y3472D01*
X3622Y3473D01*
X3629Y3476D01*
X3635Y3480D01*
X3639Y3486D01*
X3642Y3493D01*
X3643Y3500D01*
X3642Y3507D01*
X3639Y3514D01*
X3635Y3520D01*
X3629Y3524D01*
X3622Y3527D01*
X3615Y3528D01*
X3608Y3527D01*
X3601Y3524D01*
X3595Y3520D01*
X3591Y3514D01*
X3588Y3507D01*
X3587Y3500D01*
X3587Y3498D01*
X3568Y3478D01*
X3465D01*
X3458Y3477D01*
X3452Y3473D01*
X3432Y3453D01*
X3430Y3453D01*
X3428Y3453D01*
X3328Y3552D01*
Y3630D01*
X3327Y3637D01*
X3323Y3643D01*
X3248Y3718D01*
X3242Y3722D01*
X3235Y3723D01*
X3161D01*
X3160Y3725D01*
X3154Y3729D01*
X3147Y3732D01*
X3140Y3733D01*
D02*
G37*
G36*
X2915Y3730D02*
X2905Y3728D01*
X2895Y3724D01*
X2887Y3718D01*
X2881Y3710D01*
X2877Y3700D01*
X2875Y3690D01*
X2877Y3680D01*
X2881Y3670D01*
X2887Y3662D01*
X2895Y3656D01*
X2905Y3652D01*
X2915Y3650D01*
X2925Y3652D01*
X2935Y3656D01*
X2943Y3662D01*
X2949Y3670D01*
X2953Y3680D01*
X2955Y3690D01*
X2953Y3700D01*
X2949Y3710D01*
X2943Y3718D01*
X2935Y3724D01*
X2925Y3728D01*
X2915Y3730D01*
D02*
G37*
G36*
X5709Y3769D02*
X5698Y3768D01*
X5689Y3764D01*
X5681Y3758D01*
X5674Y3749D01*
X5670Y3740D01*
X5669Y3730D01*
X5670Y3719D01*
X5674Y3710D01*
X5681Y3701D01*
X5689Y3695D01*
X5698Y3691D01*
X5709Y3690D01*
X5719Y3691D01*
X5729Y3695D01*
X5737Y3701D01*
X5743Y3710D01*
X5747Y3719D01*
X5748Y3730D01*
X5747Y3740D01*
X5743Y3749D01*
X5737Y3758D01*
X5729Y3764D01*
X5719Y3768D01*
X5709Y3769D01*
D02*
G37*
G36*
X2920Y3631D02*
Y3595D01*
X2956D01*
X2955Y3601D01*
X2951Y3611D01*
X2944Y3619D01*
X2936Y3626D01*
X2926Y3630D01*
X2920Y3631D01*
D02*
G37*
G36*
X4375Y3624D02*
X4372Y3624D01*
X4365Y3621D01*
X4359Y3616D01*
X4354Y3610D01*
X4351Y3603D01*
X4351Y3600D01*
X4375D01*
Y3624D01*
D02*
G37*
G36*
X4385D02*
Y3600D01*
X4409D01*
X4409Y3603D01*
X4406Y3610D01*
X4401Y3616D01*
X4395Y3621D01*
X4388Y3624D01*
X4385Y3624D01*
D02*
G37*
G36*
X3671Y3578D02*
X3647D01*
Y3554D01*
X3649Y3554D01*
X3657Y3557D01*
X3663Y3562D01*
X3668Y3568D01*
X3671Y3575D01*
X3671Y3578D01*
D02*
G37*
G36*
X3834Y3572D02*
X3831Y3572D01*
X3824Y3569D01*
X3818Y3564D01*
X3813Y3558D01*
X3810Y3551D01*
X3809Y3548D01*
X3834D01*
Y3572D01*
D02*
G37*
G36*
X3844D02*
Y3548D01*
X3868D01*
X3867Y3551D01*
X3864Y3558D01*
X3860Y3564D01*
X3853Y3569D01*
X3846Y3572D01*
X3844Y3572D01*
D02*
G37*
G36*
X4818D02*
X4815Y3572D01*
X4808Y3569D01*
X4802Y3564D01*
X4797Y3558D01*
X4794Y3551D01*
X4794Y3548D01*
X4818D01*
Y3572D01*
D02*
G37*
G36*
X2849D02*
X2847Y3572D01*
X2839Y3569D01*
X2833Y3564D01*
X2829Y3558D01*
X2826Y3551D01*
X2825Y3548D01*
X2849D01*
Y3572D01*
D02*
G37*
G36*
X3440D02*
X3437Y3572D01*
X3430Y3569D01*
X3424Y3564D01*
X3419Y3558D01*
X3416Y3551D01*
X3416Y3548D01*
X3440D01*
Y3572D01*
D02*
G37*
G36*
X3450D02*
Y3548D01*
X3474D01*
X3474Y3551D01*
X3471Y3558D01*
X3466Y3564D01*
X3460Y3569D01*
X3453Y3572D01*
X3450Y3572D01*
D02*
G37*
G36*
X5605D02*
X5603Y3572D01*
X5595Y3569D01*
X5589Y3564D01*
X5584Y3558D01*
X5581Y3551D01*
X5581Y3548D01*
X5605D01*
Y3572D01*
D02*
G37*
G36*
X5615D02*
Y3548D01*
X5639D01*
X5639Y3551D01*
X5636Y3558D01*
X5631Y3564D01*
X5625Y3569D01*
X5618Y3572D01*
X5615Y3572D01*
D02*
G37*
G36*
X3637Y3578D02*
X3613D01*
X3613Y3575D01*
X3616Y3568D01*
X3621Y3562D01*
X3627Y3557D01*
X3634Y3554D01*
X3637Y3554D01*
Y3578D01*
D02*
G37*
G36*
X4828Y3572D02*
Y3548D01*
X4852D01*
X4852Y3551D01*
X4849Y3558D01*
X4844Y3564D01*
X4838Y3569D01*
X4831Y3572D01*
X4828Y3572D01*
D02*
G37*
G36*
X5015D02*
X5012Y3572D01*
X5005Y3569D01*
X4999Y3564D01*
X4994Y3558D01*
X4991Y3551D01*
X4991Y3548D01*
X5015D01*
Y3572D01*
D02*
G37*
G36*
X5025D02*
Y3548D01*
X5049D01*
X5048Y3551D01*
X5045Y3558D01*
X5041Y3564D01*
X5035Y3569D01*
X5027Y3572D01*
X5025Y3572D01*
D02*
G37*
G36*
X2259Y2391D02*
X2256Y2391D01*
X2249Y2388D01*
X2243Y2383D01*
X2238Y2377D01*
X2235Y2370D01*
X2235Y2367D01*
X2259D01*
Y2391D01*
D02*
G37*
G36*
X2269D02*
Y2367D01*
X2293D01*
X2293Y2370D01*
X2290Y2377D01*
X2285Y2383D01*
X2279Y2388D01*
X2271Y2391D01*
X2269Y2391D01*
D02*
G37*
G36*
X2653D02*
X2650Y2391D01*
X2643Y2388D01*
X2636Y2383D01*
X2632Y2377D01*
X2629Y2370D01*
X2628Y2367D01*
X2653D01*
Y2391D01*
D02*
G37*
G36*
X5443Y2357D02*
X5418D01*
Y2333D01*
X5421Y2333D01*
X5428Y2336D01*
X5434Y2341D01*
X5439Y2347D01*
X5442Y2354D01*
X5443Y2357D01*
D02*
G37*
G36*
X5605D02*
X5581D01*
X5581Y2354D01*
X5584Y2347D01*
X5589Y2341D01*
X5595Y2336D01*
X5603Y2333D01*
X5605Y2333D01*
Y2357D01*
D02*
G37*
G36*
X5639D02*
X5615D01*
Y2333D01*
X5618Y2333D01*
X5625Y2336D01*
X5631Y2341D01*
X5636Y2347D01*
X5639Y2354D01*
X5639Y2357D01*
D02*
G37*
G36*
X3440Y2391D02*
X3437Y2391D01*
X3430Y2388D01*
X3424Y2383D01*
X3419Y2377D01*
X3416Y2370D01*
X3416Y2367D01*
X3440D01*
Y2391D01*
D02*
G37*
G36*
X3450D02*
Y2367D01*
X3474D01*
X3474Y2370D01*
X3471Y2377D01*
X3466Y2383D01*
X3460Y2388D01*
X3453Y2391D01*
X3450Y2391D01*
D02*
G37*
G36*
X3637D02*
X3634Y2391D01*
X3627Y2388D01*
X3621Y2383D01*
X3616Y2377D01*
X3613Y2370D01*
X3613Y2367D01*
X3637D01*
Y2391D01*
D02*
G37*
G36*
X2662D02*
Y2367D01*
X2687D01*
X2686Y2370D01*
X2683Y2377D01*
X2679Y2383D01*
X2672Y2388D01*
X2665Y2391D01*
X2662Y2391D01*
D02*
G37*
G36*
X3243D02*
X3240Y2391D01*
X3233Y2388D01*
X3227Y2383D01*
X3222Y2377D01*
X3219Y2370D01*
X3219Y2367D01*
X3243D01*
Y2391D01*
D02*
G37*
G36*
X3253D02*
Y2367D01*
X3277D01*
X3277Y2370D01*
X3274Y2377D01*
X3269Y2383D01*
X3263Y2388D01*
X3256Y2391D01*
X3253Y2391D01*
D02*
G37*
G36*
X5408Y2357D02*
X5384D01*
X5385Y2354D01*
X5388Y2347D01*
X5392Y2341D01*
X5398Y2336D01*
X5406Y2333D01*
X5408Y2333D01*
Y2357D01*
D02*
G37*
G36*
X3671D02*
X3647D01*
Y2333D01*
X3649Y2333D01*
X3657Y2336D01*
X3663Y2341D01*
X3668Y2347D01*
X3671Y2354D01*
X3671Y2357D01*
D02*
G37*
G36*
X3834D02*
X3809D01*
X3810Y2354D01*
X3813Y2347D01*
X3818Y2341D01*
X3824Y2336D01*
X3831Y2333D01*
X3834Y2333D01*
Y2357D01*
D02*
G37*
G36*
X3868D02*
X3844D01*
Y2333D01*
X3846Y2333D01*
X3853Y2336D01*
X3860Y2341D01*
X3864Y2347D01*
X3867Y2354D01*
X3868Y2357D01*
D02*
G37*
G36*
X3440D02*
X3416D01*
X3416Y2354D01*
X3419Y2347D01*
X3424Y2341D01*
X3430Y2336D01*
X3437Y2333D01*
X3440Y2333D01*
Y2357D01*
D02*
G37*
G36*
X3474D02*
X3450D01*
Y2333D01*
X3453Y2333D01*
X3460Y2336D01*
X3466Y2341D01*
X3471Y2347D01*
X3474Y2354D01*
X3474Y2357D01*
D02*
G37*
G36*
X3637D02*
X3613D01*
X3613Y2354D01*
X3616Y2347D01*
X3621Y2341D01*
X3627Y2336D01*
X3634Y2333D01*
X3637Y2333D01*
Y2357D01*
D02*
G37*
G36*
X4655D02*
X4631D01*
Y2333D01*
X4634Y2333D01*
X4641Y2336D01*
X4647Y2341D01*
X4652Y2347D01*
X4655Y2354D01*
X4655Y2357D01*
D02*
G37*
G36*
X5212D02*
X5187D01*
X5188Y2354D01*
X5191Y2347D01*
X5195Y2341D01*
X5202Y2336D01*
X5209Y2333D01*
X5212Y2333D01*
Y2357D01*
D02*
G37*
G36*
X5246D02*
X5221D01*
Y2333D01*
X5224Y2333D01*
X5231Y2336D01*
X5238Y2341D01*
X5242Y2347D01*
X5245Y2354D01*
X5246Y2357D01*
D02*
G37*
G36*
X4227D02*
X4203D01*
X4204Y2354D01*
X4206Y2347D01*
X4211Y2341D01*
X4217Y2336D01*
X4225Y2333D01*
X4227Y2333D01*
Y2357D01*
D02*
G37*
G36*
X4261D02*
X4237D01*
Y2333D01*
X4240Y2333D01*
X4247Y2336D01*
X4253Y2341D01*
X4258Y2347D01*
X4261Y2354D01*
X4261Y2357D01*
D02*
G37*
G36*
X4621D02*
X4597D01*
X4597Y2354D01*
X4600Y2347D01*
X4605Y2341D01*
X4611Y2336D01*
X4618Y2333D01*
X4621Y2333D01*
Y2357D01*
D02*
G37*
G36*
X3572Y2554D02*
X3548D01*
Y2530D01*
X3551Y2530D01*
X3558Y2533D01*
X3564Y2538D01*
X3569Y2544D01*
X3572Y2551D01*
X3572Y2554D01*
D02*
G37*
G36*
X3735D02*
X3711D01*
X3711Y2551D01*
X3714Y2544D01*
X3719Y2538D01*
X3725Y2533D01*
X3732Y2530D01*
X3735Y2530D01*
Y2554D01*
D02*
G37*
G36*
X3769D02*
X3745D01*
Y2530D01*
X3748Y2530D01*
X3755Y2533D01*
X3761Y2538D01*
X3766Y2544D01*
X3769Y2551D01*
X3769Y2554D01*
D02*
G37*
G36*
X2357D02*
X2333D01*
X2333Y2551D01*
X2336Y2544D01*
X2341Y2538D01*
X2347Y2533D01*
X2354Y2530D01*
X2357Y2530D01*
Y2554D01*
D02*
G37*
G36*
X2391D02*
X2367D01*
Y2530D01*
X2370Y2530D01*
X2377Y2533D01*
X2383Y2538D01*
X2388Y2544D01*
X2391Y2551D01*
X2391Y2554D01*
D02*
G37*
G36*
X3538D02*
X3514D01*
X3515Y2551D01*
X3518Y2544D01*
X3522Y2538D01*
X3528Y2533D01*
X3536Y2530D01*
X3538Y2530D01*
Y2554D01*
D02*
G37*
G36*
X5147D02*
X5123D01*
Y2530D01*
X5126Y2530D01*
X5133Y2533D01*
X5139Y2538D01*
X5144Y2544D01*
X5147Y2551D01*
X5147Y2554D01*
D02*
G37*
G36*
X5310D02*
X5286D01*
X5286Y2551D01*
X5289Y2544D01*
X5294Y2538D01*
X5300Y2533D01*
X5307Y2530D01*
X5310Y2530D01*
Y2554D01*
D02*
G37*
G36*
X5344D02*
X5320D01*
Y2530D01*
X5323Y2530D01*
X5330Y2533D01*
X5336Y2538D01*
X5341Y2544D01*
X5344Y2551D01*
X5344Y2554D01*
D02*
G37*
G36*
X4719D02*
X4695D01*
X4696Y2551D01*
X4699Y2544D01*
X4703Y2538D01*
X4710Y2533D01*
X4717Y2530D01*
X4719Y2530D01*
Y2554D01*
D02*
G37*
G36*
X4754D02*
X4729D01*
Y2530D01*
X4732Y2530D01*
X4739Y2533D01*
X4745Y2538D01*
X4750Y2544D01*
X4753Y2551D01*
X4754Y2554D01*
D02*
G37*
G36*
X5113D02*
X5089D01*
X5089Y2551D01*
X5092Y2544D01*
X5097Y2538D01*
X5103Y2533D01*
X5110Y2530D01*
X5113Y2530D01*
Y2554D01*
D02*
G37*
G36*
X5615Y2391D02*
Y2367D01*
X5639D01*
X5639Y2370D01*
X5636Y2377D01*
X5631Y2383D01*
X5625Y2388D01*
X5618Y2391D01*
X5615Y2391D01*
D02*
G37*
G36*
X4227D02*
X4225Y2391D01*
X4217Y2388D01*
X4211Y2383D01*
X4206Y2377D01*
X4204Y2370D01*
X4203Y2367D01*
X4227D01*
Y2391D01*
D02*
G37*
G36*
X4237D02*
Y2367D01*
X4261D01*
X4261Y2370D01*
X4258Y2377D01*
X4253Y2383D01*
X4247Y2388D01*
X4240Y2391D01*
X4237Y2391D01*
D02*
G37*
G36*
X4621D02*
X4618Y2391D01*
X4611Y2388D01*
X4605Y2383D01*
X4600Y2377D01*
X4597Y2370D01*
X4597Y2367D01*
X4621D01*
Y2391D01*
D02*
G37*
G36*
X3647D02*
Y2367D01*
X3671D01*
X3671Y2370D01*
X3668Y2377D01*
X3663Y2383D01*
X3657Y2388D01*
X3649Y2391D01*
X3647Y2391D01*
D02*
G37*
G36*
X3834D02*
X3831Y2391D01*
X3824Y2388D01*
X3818Y2383D01*
X3813Y2377D01*
X3810Y2370D01*
X3809Y2367D01*
X3834D01*
Y2391D01*
D02*
G37*
G36*
X3844D02*
Y2367D01*
X3868D01*
X3867Y2370D01*
X3864Y2377D01*
X3860Y2383D01*
X3853Y2388D01*
X3846Y2391D01*
X3844Y2391D01*
D02*
G37*
G36*
X5408D02*
X5406Y2391D01*
X5398Y2388D01*
X5392Y2383D01*
X5388Y2377D01*
X5385Y2370D01*
X5384Y2367D01*
X5408D01*
Y2391D01*
D02*
G37*
G36*
X5418D02*
Y2367D01*
X5443D01*
X5442Y2370D01*
X5439Y2377D01*
X5434Y2383D01*
X5428Y2388D01*
X5421Y2391D01*
X5418Y2391D01*
D02*
G37*
G36*
X5605D02*
X5603Y2391D01*
X5595Y2388D01*
X5589Y2383D01*
X5584Y2377D01*
X5581Y2370D01*
X5581Y2367D01*
X5605D01*
Y2391D01*
D02*
G37*
G36*
X4631D02*
Y2367D01*
X4655D01*
X4655Y2370D01*
X4652Y2377D01*
X4647Y2383D01*
X4641Y2388D01*
X4634Y2391D01*
X4631Y2391D01*
D02*
G37*
G36*
X5212D02*
X5209Y2391D01*
X5202Y2388D01*
X5195Y2383D01*
X5191Y2377D01*
X5188Y2370D01*
X5187Y2367D01*
X5212D01*
Y2391D01*
D02*
G37*
G36*
X5221D02*
Y2367D01*
X5246D01*
X5245Y2370D01*
X5242Y2377D01*
X5238Y2383D01*
X5231Y2388D01*
X5224Y2391D01*
X5221Y2391D01*
D02*
G37*
G36*
X3966Y2160D02*
X3942D01*
Y2136D01*
X3945Y2137D01*
X3952Y2140D01*
X3958Y2144D01*
X3963Y2150D01*
X3966Y2158D01*
X3966Y2160D01*
D02*
G37*
G36*
X4326D02*
X4302D01*
X4302Y2158D01*
X4305Y2150D01*
X4310Y2144D01*
X4316Y2140D01*
X4323Y2137D01*
X4326Y2136D01*
Y2160D01*
D02*
G37*
G36*
X4360D02*
X4336D01*
Y2136D01*
X4338Y2137D01*
X4346Y2140D01*
X4352Y2144D01*
X4357Y2150D01*
X4359Y2158D01*
X4360Y2160D01*
D02*
G37*
G36*
X3735D02*
X3711D01*
X3711Y2158D01*
X3714Y2150D01*
X3719Y2144D01*
X3725Y2140D01*
X3732Y2137D01*
X3735Y2136D01*
Y2160D01*
D02*
G37*
G36*
X3769D02*
X3745D01*
Y2136D01*
X3748Y2137D01*
X3755Y2140D01*
X3761Y2144D01*
X3766Y2150D01*
X3769Y2158D01*
X3769Y2160D01*
D02*
G37*
G36*
X3932D02*
X3908D01*
X3908Y2158D01*
X3911Y2150D01*
X3916Y2144D01*
X3922Y2140D01*
X3929Y2137D01*
X3932Y2136D01*
Y2160D01*
D02*
G37*
G36*
X4239Y2206D02*
Y2170D01*
X4275D01*
X4274Y2176D01*
X4270Y2186D01*
X4263Y2195D01*
X4255Y2201D01*
X4245Y2206D01*
X4239Y2206D01*
D02*
G37*
G36*
X4669D02*
X4664Y2206D01*
X4654Y2201D01*
X4645Y2195D01*
X4638Y2186D01*
X4634Y2176D01*
X4633Y2170D01*
X4669D01*
Y2206D01*
D02*
G37*
G36*
X4679D02*
Y2170D01*
X4715D01*
X4715Y2176D01*
X4711Y2186D01*
X4704Y2195D01*
X4695Y2201D01*
X4685Y2206D01*
X4679Y2206D01*
D02*
G37*
G36*
X4523Y2160D02*
X4498D01*
X4499Y2158D01*
X4502Y2150D01*
X4506Y2144D01*
X4513Y2140D01*
X4520Y2137D01*
X4523Y2136D01*
Y2160D01*
D02*
G37*
G36*
X4557D02*
X4532D01*
Y2136D01*
X4535Y2137D01*
X4542Y2140D01*
X4549Y2144D01*
X4553Y2150D01*
X4556Y2158D01*
X4557Y2160D01*
D02*
G37*
G36*
X4229Y2206D02*
X4223Y2206D01*
X4213Y2201D01*
X4204Y2195D01*
X4198Y2186D01*
X4194Y2176D01*
X4193Y2170D01*
X4229D01*
Y2206D01*
D02*
G37*
G36*
X3572Y2160D02*
X3548D01*
Y2136D01*
X3551Y2137D01*
X3558Y2140D01*
X3564Y2144D01*
X3569Y2150D01*
X3572Y2158D01*
X3572Y2160D01*
D02*
G37*
G36*
X4669Y2160D02*
X4633D01*
X4634Y2155D01*
X4638Y2145D01*
X4645Y2136D01*
X4654Y2129D01*
X4664Y2125D01*
X4669Y2124D01*
Y2160D01*
D02*
G37*
G36*
X4715D02*
X4679D01*
Y2124D01*
X4685Y2125D01*
X4695Y2129D01*
X4704Y2136D01*
X4711Y2145D01*
X4715Y2155D01*
X4715Y2160D01*
D02*
G37*
G36*
X4034Y2205D02*
X4024Y2204D01*
X4014Y2200D01*
X4006Y2193D01*
X3999Y2185D01*
X3996Y2176D01*
X3994Y2165D01*
X3996Y2155D01*
X3999Y2145D01*
X4006Y2137D01*
X4014Y2131D01*
X4024Y2127D01*
X4034Y2126D01*
X4044Y2127D01*
X4054Y2131D01*
X4062Y2137D01*
X4068Y2145D01*
X4072Y2155D01*
X4074Y2165D01*
X4072Y2176D01*
X4068Y2185D01*
X4062Y2193D01*
X4054Y2200D01*
X4044Y2204D01*
X4034Y2205D01*
D02*
G37*
G36*
X5709Y2194D02*
X5698Y2193D01*
X5689Y2189D01*
X5681Y2183D01*
X5674Y2175D01*
X5670Y2165D01*
X5669Y2155D01*
X5670Y2144D01*
X5674Y2135D01*
X5681Y2127D01*
X5689Y2120D01*
X5698Y2116D01*
X5709Y2115D01*
X5719Y2116D01*
X5729Y2120D01*
X5737Y2127D01*
X5743Y2135D01*
X5747Y2144D01*
X5748Y2155D01*
X5747Y2165D01*
X5743Y2175D01*
X5737Y2183D01*
X5729Y2189D01*
X5719Y2193D01*
X5709Y2194D01*
D02*
G37*
G36*
X4229Y2160D02*
X4193D01*
X4194Y2155D01*
X4198Y2145D01*
X4204Y2136D01*
X4213Y2129D01*
X4223Y2125D01*
X4229Y2124D01*
Y2160D01*
D02*
G37*
G36*
X4275D02*
X4239D01*
Y2124D01*
X4245Y2125D01*
X4255Y2129D01*
X4263Y2136D01*
X4270Y2145D01*
X4274Y2155D01*
X4275Y2160D01*
D02*
G37*
G36*
X2357Y2160D02*
X2333D01*
X2333Y2158D01*
X2336Y2150D01*
X2341Y2144D01*
X2347Y2140D01*
X2354Y2137D01*
X2357Y2136D01*
Y2160D01*
D02*
G37*
G36*
X2391D02*
X2367D01*
Y2136D01*
X2370Y2137D01*
X2377Y2140D01*
X2383Y2144D01*
X2388Y2150D01*
X2391Y2158D01*
X2391Y2160D01*
D02*
G37*
G36*
X3538D02*
X3514D01*
X3515Y2158D01*
X3518Y2150D01*
X3522Y2144D01*
X3528Y2140D01*
X3536Y2137D01*
X3538Y2136D01*
Y2160D01*
D02*
G37*
G36*
X4774Y2205D02*
X4764Y2204D01*
X4755Y2200D01*
X4746Y2193D01*
X4740Y2185D01*
X4736Y2176D01*
X4735Y2165D01*
X4736Y2155D01*
X4740Y2145D01*
X4746Y2137D01*
X4755Y2131D01*
X4764Y2127D01*
X4774Y2126D01*
X4785Y2127D01*
X4794Y2131D01*
X4802Y2137D01*
X4809Y2145D01*
X4813Y2155D01*
X4814Y2165D01*
X4813Y2176D01*
X4809Y2185D01*
X4802Y2193D01*
X4794Y2200D01*
X4785Y2204D01*
X4774Y2205D01*
D02*
G37*
G36*
X2160Y2160D02*
X2136D01*
X2137Y2158D01*
X2140Y2150D01*
X2144Y2144D01*
X2150Y2140D01*
X2158Y2137D01*
X2160Y2136D01*
Y2160D01*
D02*
G37*
G36*
X2194D02*
X2170D01*
Y2136D01*
X2173Y2137D01*
X2180Y2140D01*
X2186Y2144D01*
X2191Y2150D01*
X2194Y2158D01*
X2194Y2160D01*
D02*
G37*
G36*
X3149Y2295D02*
X3125D01*
Y2271D01*
X3128Y2271D01*
X3135Y2274D01*
X3141Y2279D01*
X3146Y2285D01*
X3149Y2292D01*
X3149Y2295D01*
D02*
G37*
G36*
X3115Y2329D02*
X3112Y2329D01*
X3105Y2326D01*
X3099Y2321D01*
X3094Y2315D01*
X3091Y2308D01*
X3091Y2305D01*
X3115D01*
Y2329D01*
D02*
G37*
G36*
X3125D02*
Y2305D01*
X3149D01*
X3149Y2308D01*
X3146Y2315D01*
X3141Y2321D01*
X3135Y2326D01*
X3128Y2329D01*
X3125Y2329D01*
D02*
G37*
G36*
X4532Y2194D02*
Y2170D01*
X4557D01*
X4556Y2173D01*
X4553Y2180D01*
X4549Y2186D01*
X4542Y2191D01*
X4535Y2194D01*
X4532Y2194D01*
D02*
G37*
G36*
X5709Y2294D02*
X5698Y2293D01*
X5689Y2289D01*
X5681Y2283D01*
X5674Y2275D01*
X5670Y2265D01*
X5669Y2255D01*
X5670Y2244D01*
X5674Y2235D01*
X5681Y2227D01*
X5689Y2220D01*
X5698Y2216D01*
X5709Y2215D01*
X5719Y2216D01*
X5729Y2220D01*
X5737Y2227D01*
X5743Y2235D01*
X5747Y2244D01*
X5748Y2255D01*
X5747Y2265D01*
X5743Y2275D01*
X5737Y2283D01*
X5729Y2289D01*
X5719Y2293D01*
X5709Y2294D01*
D02*
G37*
G36*
X3115Y2295D02*
X3091D01*
X3091Y2292D01*
X3094Y2285D01*
X3099Y2279D01*
X3105Y2274D01*
X3112Y2271D01*
X3115Y2271D01*
Y2295D01*
D02*
G37*
G36*
X2687Y2357D02*
X2662D01*
Y2333D01*
X2665Y2333D01*
X2672Y2336D01*
X2679Y2341D01*
X2683Y2347D01*
X2686Y2354D01*
X2687Y2357D01*
D02*
G37*
G36*
X3243D02*
X3219D01*
X3219Y2354D01*
X3222Y2347D01*
X3227Y2341D01*
X3233Y2336D01*
X3240Y2333D01*
X3243Y2333D01*
Y2357D01*
D02*
G37*
G36*
X3277D02*
X3253D01*
Y2333D01*
X3256Y2333D01*
X3263Y2336D01*
X3269Y2341D01*
X3274Y2347D01*
X3277Y2354D01*
X3277Y2357D01*
D02*
G37*
G36*
X2259D02*
X2235D01*
X2235Y2354D01*
X2238Y2347D01*
X2243Y2341D01*
X2249Y2336D01*
X2256Y2333D01*
X2259Y2333D01*
Y2357D01*
D02*
G37*
G36*
X2293D02*
X2269D01*
Y2333D01*
X2271Y2333D01*
X2279Y2336D01*
X2285Y2341D01*
X2290Y2347D01*
X2293Y2354D01*
X2293Y2357D01*
D02*
G37*
G36*
X2653D02*
X2628D01*
X2629Y2354D01*
X2632Y2347D01*
X2636Y2341D01*
X2643Y2336D01*
X2650Y2333D01*
X2653Y2333D01*
Y2357D01*
D02*
G37*
G36*
X4523Y2194D02*
X4520Y2194D01*
X4513Y2191D01*
X4506Y2186D01*
X4502Y2180D01*
X4499Y2173D01*
X4498Y2170D01*
X4523D01*
Y2194D01*
D02*
G37*
G36*
X2367D02*
Y2170D01*
X2391D01*
X2391Y2173D01*
X2388Y2180D01*
X2383Y2186D01*
X2377Y2191D01*
X2370Y2194D01*
X2367Y2194D01*
D02*
G37*
G36*
X3538D02*
X3536Y2194D01*
X3528Y2191D01*
X3522Y2186D01*
X3518Y2180D01*
X3515Y2173D01*
X3514Y2170D01*
X3538D01*
Y2194D01*
D02*
G37*
G36*
X3548D02*
Y2170D01*
X3572D01*
X3572Y2173D01*
X3569Y2180D01*
X3564Y2186D01*
X3558Y2191D01*
X3551Y2194D01*
X3548Y2194D01*
D02*
G37*
G36*
X2160D02*
X2158Y2194D01*
X2150Y2191D01*
X2144Y2186D01*
X2140Y2180D01*
X2137Y2173D01*
X2136Y2170D01*
X2160D01*
Y2194D01*
D02*
G37*
G36*
X2170D02*
Y2170D01*
X2194D01*
X2194Y2173D01*
X2191Y2180D01*
X2186Y2186D01*
X2180Y2191D01*
X2173Y2194D01*
X2170Y2194D01*
D02*
G37*
G36*
X2357D02*
X2354Y2194D01*
X2347Y2191D01*
X2341Y2186D01*
X2336Y2180D01*
X2333Y2173D01*
X2333Y2170D01*
X2357D01*
Y2194D01*
D02*
G37*
G36*
X3942D02*
Y2170D01*
X3966D01*
X3966Y2173D01*
X3963Y2180D01*
X3958Y2186D01*
X3952Y2191D01*
X3945Y2194D01*
X3942Y2194D01*
D02*
G37*
G36*
X4326D02*
X4323Y2194D01*
X4316Y2191D01*
X4310Y2186D01*
X4305Y2180D01*
X4302Y2173D01*
X4302Y2170D01*
X4326D01*
Y2194D01*
D02*
G37*
G36*
X4336D02*
Y2170D01*
X4360D01*
X4359Y2173D01*
X4357Y2180D01*
X4352Y2186D01*
X4346Y2191D01*
X4338Y2194D01*
X4336Y2194D01*
D02*
G37*
G36*
X3735D02*
X3732Y2194D01*
X3725Y2191D01*
X3719Y2186D01*
X3714Y2180D01*
X3711Y2173D01*
X3711Y2170D01*
X3735D01*
Y2194D01*
D02*
G37*
G36*
X3745D02*
Y2170D01*
X3769D01*
X3769Y2173D01*
X3766Y2180D01*
X3761Y2186D01*
X3755Y2191D01*
X3748Y2194D01*
X3745Y2194D01*
D02*
G37*
G36*
X3932D02*
X3929Y2194D01*
X3922Y2191D01*
X3916Y2186D01*
X3911Y2180D01*
X3908Y2173D01*
X3908Y2170D01*
X3932D01*
Y2194D01*
D02*
G37*
G36*
X2357Y2588D02*
X2354Y2588D01*
X2347Y2585D01*
X2341Y2580D01*
X2336Y2574D01*
X2333Y2567D01*
X2333Y2564D01*
X2357D01*
Y2588D01*
D02*
G37*
G36*
X5709Y3003D02*
X5698Y3002D01*
X5689Y2998D01*
X5681Y2991D01*
X5674Y2983D01*
X5670Y2974D01*
X5669Y2963D01*
X5670Y2953D01*
X5674Y2944D01*
X5681Y2935D01*
X5689Y2929D01*
X5698Y2925D01*
X5709Y2924D01*
X5719Y2925D01*
X5729Y2929D01*
X5737Y2935D01*
X5743Y2944D01*
X5747Y2953D01*
X5748Y2963D01*
X5747Y2974D01*
X5743Y2983D01*
X5737Y2991D01*
X5729Y2998D01*
X5719Y3002D01*
X5709Y3003D01*
D02*
G37*
G36*
X2357Y2982D02*
X2354Y2982D01*
X2347Y2979D01*
X2341Y2974D01*
X2336Y2968D01*
X2333Y2960D01*
X2333Y2958D01*
X2357D01*
Y2982D01*
D02*
G37*
G36*
X2367D02*
Y2958D01*
X2391D01*
X2391Y2960D01*
X2388Y2968D01*
X2383Y2974D01*
X2377Y2979D01*
X2370Y2982D01*
X2367Y2982D01*
D02*
G37*
G36*
X5344Y2948D02*
X5320D01*
Y2924D01*
X5323Y2924D01*
X5330Y2927D01*
X5336Y2932D01*
X5341Y2938D01*
X5344Y2945D01*
X5344Y2948D01*
D02*
G37*
G36*
X5507D02*
X5483D01*
X5483Y2945D01*
X5486Y2938D01*
X5491Y2932D01*
X5497Y2927D01*
X5504Y2924D01*
X5507Y2924D01*
Y2948D01*
D02*
G37*
G36*
X5541D02*
X5517D01*
Y2924D01*
X5520Y2924D01*
X5527Y2927D01*
X5533Y2932D01*
X5538Y2938D01*
X5541Y2945D01*
X5541Y2948D01*
D02*
G37*
G36*
X2958Y2982D02*
Y2958D01*
X2982D01*
X2982Y2960D01*
X2979Y2968D01*
X2974Y2974D01*
X2968Y2979D01*
X2960Y2982D01*
X2958Y2982D01*
D02*
G37*
G36*
X4129D02*
X4126Y2982D01*
X4119Y2979D01*
X4113Y2974D01*
X4108Y2968D01*
X4105Y2960D01*
X4105Y2958D01*
X4129D01*
Y2982D01*
D02*
G37*
G36*
X4139D02*
Y2958D01*
X4163D01*
X4163Y2960D01*
X4160Y2968D01*
X4155Y2974D01*
X4149Y2979D01*
X4142Y2982D01*
X4139Y2982D01*
D02*
G37*
G36*
X2554D02*
X2551Y2982D01*
X2544Y2979D01*
X2538Y2974D01*
X2533Y2968D01*
X2530Y2960D01*
X2530Y2958D01*
X2554D01*
Y2982D01*
D02*
G37*
G36*
X2564D02*
Y2958D01*
X2588D01*
X2588Y2960D01*
X2585Y2968D01*
X2580Y2974D01*
X2574Y2979D01*
X2567Y2982D01*
X2564Y2982D01*
D02*
G37*
G36*
X2948D02*
X2945Y2982D01*
X2938Y2979D01*
X2932Y2974D01*
X2927Y2968D01*
X2924Y2960D01*
X2924Y2958D01*
X2948D01*
Y2982D01*
D02*
G37*
G36*
X5310Y2948D02*
X5286D01*
X5286Y2945D01*
X5289Y2938D01*
X5294Y2932D01*
X5300Y2927D01*
X5307Y2924D01*
X5310Y2924D01*
Y2948D01*
D02*
G37*
G36*
X4163D02*
X4139D01*
Y2924D01*
X4142Y2924D01*
X4149Y2927D01*
X4155Y2932D01*
X4160Y2938D01*
X4163Y2945D01*
X4163Y2948D01*
D02*
G37*
G36*
X4326D02*
X4302D01*
X4302Y2945D01*
X4305Y2938D01*
X4310Y2932D01*
X4316Y2927D01*
X4323Y2924D01*
X4326Y2924D01*
Y2948D01*
D02*
G37*
G36*
X4360D02*
X4336D01*
Y2924D01*
X4338Y2924D01*
X4346Y2927D01*
X4352Y2932D01*
X4357Y2938D01*
X4359Y2945D01*
X4360Y2948D01*
D02*
G37*
G36*
X2948D02*
X2924D01*
X2924Y2945D01*
X2927Y2938D01*
X2932Y2932D01*
X2938Y2927D01*
X2945Y2924D01*
X2948Y2924D01*
Y2948D01*
D02*
G37*
G36*
X2982D02*
X2958D01*
Y2924D01*
X2960Y2924D01*
X2968Y2927D01*
X2974Y2932D01*
X2979Y2938D01*
X2982Y2945D01*
X2982Y2948D01*
D02*
G37*
G36*
X4129D02*
X4105D01*
X4105Y2945D01*
X4108Y2938D01*
X4113Y2932D01*
X4119Y2927D01*
X4126Y2924D01*
X4129Y2924D01*
Y2948D01*
D02*
G37*
G36*
X4754D02*
X4729D01*
Y2924D01*
X4732Y2924D01*
X4739Y2927D01*
X4745Y2932D01*
X4750Y2938D01*
X4753Y2945D01*
X4754Y2948D01*
D02*
G37*
G36*
X5113D02*
X5089D01*
X5089Y2945D01*
X5092Y2938D01*
X5097Y2932D01*
X5103Y2927D01*
X5110Y2924D01*
X5113Y2924D01*
Y2948D01*
D02*
G37*
G36*
X5147D02*
X5123D01*
Y2924D01*
X5126Y2924D01*
X5133Y2927D01*
X5139Y2932D01*
X5144Y2938D01*
X5147Y2945D01*
X5147Y2948D01*
D02*
G37*
G36*
X4523D02*
X4498D01*
X4499Y2945D01*
X4502Y2938D01*
X4506Y2932D01*
X4513Y2927D01*
X4520Y2924D01*
X4523Y2924D01*
Y2948D01*
D02*
G37*
G36*
X4557D02*
X4532D01*
Y2924D01*
X4535Y2924D01*
X4542Y2927D01*
X4549Y2932D01*
X4553Y2938D01*
X4556Y2945D01*
X4557Y2948D01*
D02*
G37*
G36*
X4719D02*
X4695D01*
X4696Y2945D01*
X4699Y2938D01*
X4703Y2932D01*
X4710Y2927D01*
X4717Y2924D01*
X4719Y2924D01*
Y2948D01*
D02*
G37*
G36*
X3440Y3145D02*
X3416D01*
X3416Y3142D01*
X3419Y3135D01*
X3424Y3129D01*
X3430Y3124D01*
X3437Y3121D01*
X3440Y3120D01*
Y3145D01*
D02*
G37*
G36*
X3474D02*
X3450D01*
Y3120D01*
X3453Y3121D01*
X3460Y3124D01*
X3466Y3129D01*
X3471Y3135D01*
X3474Y3142D01*
X3474Y3145D01*
D02*
G37*
G36*
X3637D02*
X3613D01*
X3613Y3142D01*
X3616Y3135D01*
X3621Y3129D01*
X3627Y3124D01*
X3634Y3121D01*
X3637Y3120D01*
Y3145D01*
D02*
G37*
G36*
X3080D02*
X3056D01*
Y3120D01*
X3059Y3121D01*
X3066Y3124D01*
X3072Y3129D01*
X3077Y3135D01*
X3080Y3142D01*
X3080Y3145D01*
D02*
G37*
G36*
X3243D02*
X3219D01*
X3219Y3142D01*
X3222Y3135D01*
X3227Y3129D01*
X3233Y3124D01*
X3240Y3121D01*
X3243Y3120D01*
Y3145D01*
D02*
G37*
G36*
X3277D02*
X3253D01*
Y3120D01*
X3256Y3121D01*
X3263Y3124D01*
X3269Y3129D01*
X3274Y3135D01*
X3277Y3142D01*
X3277Y3145D01*
D02*
G37*
G36*
X4031D02*
X4006D01*
X4007Y3142D01*
X4010Y3135D01*
X4014Y3129D01*
X4021Y3124D01*
X4028Y3121D01*
X4031Y3120D01*
Y3145D01*
D02*
G37*
G36*
X4065D02*
X4040D01*
Y3120D01*
X4043Y3121D01*
X4050Y3124D01*
X4056Y3129D01*
X4061Y3135D01*
X4064Y3142D01*
X4065Y3145D01*
D02*
G37*
G36*
X4227D02*
X4203D01*
X4204Y3142D01*
X4206Y3135D01*
X4211Y3129D01*
X4217Y3124D01*
X4225Y3121D01*
X4227Y3120D01*
Y3145D01*
D02*
G37*
G36*
X3671D02*
X3647D01*
Y3120D01*
X3649Y3121D01*
X3657Y3124D01*
X3663Y3129D01*
X3668Y3135D01*
X3671Y3142D01*
X3671Y3145D01*
D02*
G37*
G36*
X3834D02*
X3809D01*
X3810Y3142D01*
X3813Y3135D01*
X3818Y3129D01*
X3824Y3124D01*
X3831Y3121D01*
X3834Y3120D01*
Y3145D01*
D02*
G37*
G36*
X3868D02*
X3844D01*
Y3120D01*
X3846Y3121D01*
X3853Y3124D01*
X3860Y3129D01*
X3864Y3135D01*
X3867Y3142D01*
X3868Y3145D01*
D02*
G37*
G36*
X3046D02*
X3022D01*
X3022Y3142D01*
X3025Y3135D01*
X3030Y3129D01*
X3036Y3124D01*
X3043Y3121D01*
X3046Y3120D01*
Y3145D01*
D02*
G37*
G36*
X4532Y2982D02*
Y2958D01*
X4557D01*
X4556Y2960D01*
X4553Y2968D01*
X4549Y2974D01*
X4542Y2979D01*
X4535Y2982D01*
X4532Y2982D01*
D02*
G37*
G36*
X4719D02*
X4717Y2982D01*
X4710Y2979D01*
X4703Y2974D01*
X4699Y2968D01*
X4696Y2960D01*
X4695Y2958D01*
X4719D01*
Y2982D01*
D02*
G37*
G36*
X4729D02*
Y2958D01*
X4754D01*
X4753Y2960D01*
X4750Y2968D01*
X4745Y2974D01*
X4739Y2979D01*
X4732Y2982D01*
X4729Y2982D01*
D02*
G37*
G36*
X4326D02*
X4323Y2982D01*
X4316Y2979D01*
X4310Y2974D01*
X4305Y2968D01*
X4302Y2960D01*
X4302Y2958D01*
X4326D01*
Y2982D01*
D02*
G37*
G36*
X4336D02*
Y2958D01*
X4360D01*
X4359Y2960D01*
X4357Y2968D01*
X4352Y2974D01*
X4346Y2979D01*
X4338Y2982D01*
X4336Y2982D01*
D02*
G37*
G36*
X4523D02*
X4520Y2982D01*
X4513Y2979D01*
X4506Y2974D01*
X4502Y2968D01*
X4499Y2960D01*
X4498Y2958D01*
X4523D01*
Y2982D01*
D02*
G37*
G36*
X5320D02*
Y2958D01*
X5344D01*
X5344Y2960D01*
X5341Y2968D01*
X5336Y2974D01*
X5330Y2979D01*
X5323Y2982D01*
X5320Y2982D01*
D02*
G37*
G36*
X5507D02*
X5504Y2982D01*
X5497Y2979D01*
X5491Y2974D01*
X5486Y2968D01*
X5483Y2960D01*
X5483Y2958D01*
X5507D01*
Y2982D01*
D02*
G37*
G36*
X5517D02*
Y2958D01*
X5541D01*
X5541Y2960D01*
X5538Y2968D01*
X5533Y2974D01*
X5527Y2979D01*
X5520Y2982D01*
X5517Y2982D01*
D02*
G37*
G36*
X5113D02*
X5110Y2982D01*
X5103Y2979D01*
X5097Y2974D01*
X5092Y2968D01*
X5089Y2960D01*
X5089Y2958D01*
X5113D01*
Y2982D01*
D02*
G37*
G36*
X5123D02*
Y2958D01*
X5147D01*
X5147Y2960D01*
X5144Y2968D01*
X5139Y2974D01*
X5133Y2979D01*
X5126Y2982D01*
X5123Y2982D01*
D02*
G37*
G36*
X5310D02*
X5307Y2982D01*
X5300Y2979D01*
X5294Y2974D01*
X5289Y2968D01*
X5286Y2960D01*
X5286Y2958D01*
X5310D01*
Y2982D01*
D02*
G37*
G36*
X2653Y2751D02*
X2628D01*
X2629Y2748D01*
X2632Y2741D01*
X2636Y2735D01*
X2643Y2730D01*
X2650Y2727D01*
X2653Y2727D01*
Y2751D01*
D02*
G37*
G36*
X2687D02*
X2662D01*
Y2727D01*
X2665Y2727D01*
X2672Y2730D01*
X2679Y2735D01*
X2683Y2741D01*
X2686Y2748D01*
X2687Y2751D01*
D02*
G37*
G36*
X2849D02*
X2825D01*
X2826Y2748D01*
X2829Y2741D01*
X2833Y2735D01*
X2839Y2730D01*
X2847Y2727D01*
X2849Y2727D01*
Y2751D01*
D02*
G37*
G36*
X5709Y2649D02*
X5698Y2647D01*
X5689Y2643D01*
X5681Y2637D01*
X5674Y2629D01*
X5670Y2619D01*
X5669Y2609D01*
X5670Y2599D01*
X5674Y2589D01*
X5681Y2581D01*
X5689Y2575D01*
X5698Y2571D01*
X5709Y2569D01*
X5719Y2571D01*
X5729Y2575D01*
X5737Y2581D01*
X5743Y2589D01*
X5747Y2599D01*
X5748Y2609D01*
X5747Y2619D01*
X5743Y2629D01*
X5737Y2637D01*
X5729Y2643D01*
X5719Y2647D01*
X5709Y2649D01*
D02*
G37*
G36*
X3525Y2730D02*
X3501D01*
X3501Y2727D01*
X3504Y2720D01*
X3509Y2714D01*
X3515Y2709D01*
X3522Y2706D01*
X3525Y2706D01*
Y2730D01*
D02*
G37*
G36*
X3559D02*
X3535D01*
Y2706D01*
X3538Y2706D01*
X3545Y2709D01*
X3551Y2714D01*
X3556Y2720D01*
X3559Y2727D01*
X3559Y2730D01*
D02*
G37*
G36*
X3243Y2751D02*
X3219D01*
X3219Y2748D01*
X3222Y2741D01*
X3227Y2735D01*
X3233Y2730D01*
X3240Y2727D01*
X3243Y2727D01*
Y2751D01*
D02*
G37*
G36*
X3277D02*
X3253D01*
Y2727D01*
X3256Y2727D01*
X3263Y2730D01*
X3269Y2735D01*
X3274Y2741D01*
X3277Y2748D01*
X3277Y2751D01*
D02*
G37*
G36*
X3637D02*
X3613D01*
X3613Y2748D01*
X3616Y2741D01*
X3621Y2735D01*
X3627Y2730D01*
X3634Y2727D01*
X3637Y2727D01*
Y2751D01*
D02*
G37*
G36*
X2883D02*
X2859D01*
Y2727D01*
X2862Y2727D01*
X2869Y2730D01*
X2875Y2735D01*
X2880Y2741D01*
X2883Y2748D01*
X2883Y2751D01*
D02*
G37*
G36*
X3046D02*
X3022D01*
X3022Y2748D01*
X3025Y2741D01*
X3030Y2735D01*
X3036Y2730D01*
X3043Y2727D01*
X3046Y2727D01*
Y2751D01*
D02*
G37*
G36*
X3080D02*
X3056D01*
Y2727D01*
X3059Y2727D01*
X3066Y2730D01*
X3072Y2735D01*
X3077Y2741D01*
X3080Y2748D01*
X3080Y2751D01*
D02*
G37*
G36*
X5517Y2588D02*
Y2564D01*
X5541D01*
X5541Y2567D01*
X5538Y2574D01*
X5533Y2580D01*
X5527Y2585D01*
X5520Y2588D01*
X5517Y2588D01*
D02*
G37*
G36*
X3735D02*
X3732Y2588D01*
X3725Y2585D01*
X3719Y2580D01*
X3714Y2574D01*
X3711Y2567D01*
X3711Y2564D01*
X3735D01*
Y2588D01*
D02*
G37*
G36*
X3745D02*
Y2564D01*
X3769D01*
X3769Y2567D01*
X3766Y2574D01*
X3761Y2580D01*
X3755Y2585D01*
X3748Y2588D01*
X3745Y2588D01*
D02*
G37*
G36*
X4719D02*
X4717Y2588D01*
X4710Y2585D01*
X4703Y2580D01*
X4699Y2574D01*
X4696Y2567D01*
X4695Y2564D01*
X4719D01*
Y2588D01*
D02*
G37*
G36*
X2367D02*
Y2564D01*
X2391D01*
X2391Y2567D01*
X2388Y2574D01*
X2383Y2580D01*
X2377Y2585D01*
X2370Y2588D01*
X2367Y2588D01*
D02*
G37*
G36*
X3538D02*
X3536Y2588D01*
X3528Y2585D01*
X3522Y2580D01*
X3518Y2574D01*
X3515Y2567D01*
X3514Y2564D01*
X3538D01*
Y2588D01*
D02*
G37*
G36*
X3548D02*
Y2564D01*
X3572D01*
X3572Y2567D01*
X3569Y2574D01*
X3564Y2580D01*
X3558Y2585D01*
X3551Y2588D01*
X3548Y2588D01*
D02*
G37*
G36*
X5310D02*
X5307Y2588D01*
X5300Y2585D01*
X5294Y2580D01*
X5289Y2574D01*
X5286Y2567D01*
X5286Y2564D01*
X5310D01*
Y2588D01*
D02*
G37*
G36*
X5320D02*
Y2564D01*
X5344D01*
X5344Y2567D01*
X5341Y2574D01*
X5336Y2580D01*
X5330Y2585D01*
X5323Y2588D01*
X5320Y2588D01*
D02*
G37*
G36*
X5507D02*
X5504Y2588D01*
X5497Y2585D01*
X5491Y2580D01*
X5486Y2574D01*
X5483Y2567D01*
X5483Y2564D01*
X5507D01*
Y2588D01*
D02*
G37*
G36*
X4729D02*
Y2564D01*
X4754D01*
X4753Y2567D01*
X4750Y2574D01*
X4745Y2580D01*
X4739Y2585D01*
X4732Y2588D01*
X4729Y2588D01*
D02*
G37*
G36*
X5113D02*
X5110Y2588D01*
X5103Y2585D01*
X5097Y2580D01*
X5092Y2574D01*
X5089Y2567D01*
X5089Y2564D01*
X5113D01*
Y2588D01*
D02*
G37*
G36*
X5123D02*
Y2564D01*
X5147D01*
X5147Y2567D01*
X5144Y2574D01*
X5139Y2580D01*
X5133Y2585D01*
X5126Y2588D01*
X5123Y2588D01*
D02*
G37*
G36*
X3647Y2785D02*
Y2761D01*
X3671D01*
X3671Y2764D01*
X3668Y2771D01*
X3663Y2777D01*
X3657Y2782D01*
X3649Y2785D01*
X3647Y2785D01*
D02*
G37*
G36*
X3830D02*
X3827Y2785D01*
X3820Y2782D01*
X3814Y2777D01*
X3809Y2771D01*
X3806Y2764D01*
X3806Y2761D01*
X3830D01*
Y2785D01*
D02*
G37*
G36*
X3840D02*
Y2761D01*
X3864D01*
X3863Y2764D01*
X3860Y2771D01*
X3856Y2777D01*
X3850Y2782D01*
X3842Y2785D01*
X3840Y2785D01*
D02*
G37*
G36*
X3243D02*
X3240Y2785D01*
X3233Y2782D01*
X3227Y2777D01*
X3222Y2771D01*
X3219Y2764D01*
X3219Y2761D01*
X3243D01*
Y2785D01*
D02*
G37*
G36*
X3253D02*
Y2761D01*
X3277D01*
X3277Y2764D01*
X3274Y2771D01*
X3269Y2777D01*
X3263Y2782D01*
X3256Y2785D01*
X3253Y2785D01*
D02*
G37*
G36*
X3637D02*
X3634Y2785D01*
X3627Y2782D01*
X3621Y2777D01*
X3616Y2771D01*
X3613Y2764D01*
X3613Y2761D01*
X3637D01*
Y2785D01*
D02*
G37*
G36*
X2391Y2948D02*
X2367D01*
Y2924D01*
X2370Y2924D01*
X2377Y2927D01*
X2383Y2932D01*
X2388Y2938D01*
X2391Y2945D01*
X2391Y2948D01*
D02*
G37*
G36*
X2554D02*
X2530D01*
X2530Y2945D01*
X2533Y2938D01*
X2538Y2932D01*
X2544Y2927D01*
X2551Y2924D01*
X2554Y2924D01*
Y2948D01*
D02*
G37*
G36*
X2588D02*
X2564D01*
Y2924D01*
X2567Y2924D01*
X2574Y2927D01*
X2580Y2932D01*
X2585Y2938D01*
X2588Y2945D01*
X2588Y2948D01*
D02*
G37*
G36*
X4031Y2785D02*
X4028Y2785D01*
X4021Y2782D01*
X4014Y2777D01*
X4010Y2771D01*
X4007Y2764D01*
X4006Y2761D01*
X4031D01*
Y2785D01*
D02*
G37*
G36*
X4040D02*
Y2761D01*
X4065D01*
X4064Y2764D01*
X4061Y2771D01*
X4056Y2777D01*
X4050Y2782D01*
X4043Y2785D01*
X4040Y2785D01*
D02*
G37*
G36*
X2357Y2948D02*
X2333D01*
X2333Y2945D01*
X2336Y2938D01*
X2341Y2932D01*
X2347Y2927D01*
X2354Y2924D01*
X2357Y2924D01*
Y2948D01*
D02*
G37*
G36*
X3056Y2785D02*
Y2761D01*
X3080D01*
X3080Y2764D01*
X3077Y2771D01*
X3072Y2777D01*
X3066Y2782D01*
X3059Y2785D01*
X3056Y2785D01*
D02*
G37*
G36*
X4031Y2751D02*
X4006D01*
X4007Y2748D01*
X4010Y2741D01*
X4014Y2735D01*
X4021Y2730D01*
X4028Y2727D01*
X4031Y2727D01*
Y2751D01*
D02*
G37*
G36*
X4065D02*
X4040D01*
Y2727D01*
X4043Y2727D01*
X4050Y2730D01*
X4056Y2735D01*
X4061Y2741D01*
X4064Y2748D01*
X4065Y2751D01*
D02*
G37*
G36*
X3525Y2764D02*
X3522Y2764D01*
X3515Y2761D01*
X3509Y2756D01*
X3504Y2750D01*
X3501Y2743D01*
X3501Y2740D01*
X3525D01*
Y2764D01*
D02*
G37*
G36*
X3671Y2751D02*
X3647D01*
Y2727D01*
X3649Y2727D01*
X3657Y2730D01*
X3663Y2735D01*
X3668Y2741D01*
X3671Y2748D01*
X3671Y2751D01*
D02*
G37*
G36*
X3830D02*
X3806D01*
X3806Y2748D01*
X3809Y2741D01*
X3814Y2735D01*
X3820Y2730D01*
X3827Y2727D01*
X3830Y2727D01*
Y2751D01*
D02*
G37*
G36*
X3864D02*
X3840D01*
Y2727D01*
X3842Y2727D01*
X3850Y2730D01*
X3856Y2735D01*
X3860Y2741D01*
X3863Y2748D01*
X3864Y2751D01*
D02*
G37*
G36*
X2849Y2785D02*
X2847Y2785D01*
X2839Y2782D01*
X2833Y2777D01*
X2829Y2771D01*
X2826Y2764D01*
X2825Y2761D01*
X2849D01*
Y2785D01*
D02*
G37*
G36*
X2859D02*
Y2761D01*
X2883D01*
X2883Y2764D01*
X2880Y2771D01*
X2875Y2777D01*
X2869Y2782D01*
X2862Y2785D01*
X2859Y2785D01*
D02*
G37*
G36*
X3046D02*
X3043Y2785D01*
X3036Y2782D01*
X3030Y2777D01*
X3025Y2771D01*
X3022Y2764D01*
X3022Y2761D01*
X3046D01*
Y2785D01*
D02*
G37*
G36*
X3535Y2764D02*
Y2740D01*
X3559D01*
X3559Y2743D01*
X3556Y2750D01*
X3551Y2756D01*
X3545Y2761D01*
X3538Y2764D01*
X3535Y2764D01*
D02*
G37*
G36*
X2653Y2785D02*
X2650Y2785D01*
X2643Y2782D01*
X2636Y2777D01*
X2632Y2771D01*
X2629Y2764D01*
X2628Y2761D01*
X2653D01*
Y2785D01*
D02*
G37*
G36*
X2662D02*
Y2761D01*
X2687D01*
X2686Y2764D01*
X2683Y2771D01*
X2679Y2777D01*
X2672Y2782D01*
X2665Y2785D01*
X2662Y2785D01*
D02*
G37*
G36*
X3735Y5310D02*
X3711D01*
X3711Y5307D01*
X3714Y5300D01*
X3719Y5294D01*
X3725Y5289D01*
X3732Y5286D01*
X3735Y5286D01*
Y5310D01*
D02*
G37*
G36*
X3769D02*
X3745D01*
Y5286D01*
X3748Y5286D01*
X3755Y5289D01*
X3761Y5294D01*
X3766Y5300D01*
X3769Y5307D01*
X3769Y5310D01*
D02*
G37*
G36*
X2751Y5344D02*
X2748Y5344D01*
X2741Y5341D01*
X2735Y5336D01*
X2730Y5330D01*
X2727Y5323D01*
X2727Y5320D01*
X2751D01*
Y5344D01*
D02*
G37*
G36*
X3376Y5310D02*
X3351D01*
Y5286D01*
X3354Y5286D01*
X3361Y5289D01*
X3368Y5294D01*
X3372Y5300D01*
X3375Y5307D01*
X3376Y5310D01*
D02*
G37*
G36*
X3538D02*
X3514D01*
X3515Y5307D01*
X3518Y5300D01*
X3522Y5294D01*
X3528Y5289D01*
X3536Y5286D01*
X3538Y5286D01*
Y5310D01*
D02*
G37*
G36*
X3572D02*
X3548D01*
Y5286D01*
X3551Y5286D01*
X3558Y5289D01*
X3564Y5294D01*
X3569Y5300D01*
X3572Y5307D01*
X3572Y5310D01*
D02*
G37*
G36*
X3145Y5344D02*
X3142Y5344D01*
X3135Y5341D01*
X3129Y5336D01*
X3124Y5330D01*
X3121Y5323D01*
X3120Y5320D01*
X3145D01*
Y5344D01*
D02*
G37*
G36*
X3155D02*
Y5320D01*
X3179D01*
X3178Y5323D01*
X3175Y5330D01*
X3171Y5336D01*
X3164Y5341D01*
X3157Y5344D01*
X3155Y5344D01*
D02*
G37*
G36*
X3342D02*
X3339Y5344D01*
X3332Y5341D01*
X3325Y5336D01*
X3321Y5330D01*
X3318Y5323D01*
X3317Y5320D01*
X3342D01*
Y5344D01*
D02*
G37*
G36*
X2761D02*
Y5320D01*
X2785D01*
X2785Y5323D01*
X2782Y5330D01*
X2777Y5336D01*
X2771Y5341D01*
X2764Y5344D01*
X2761Y5344D01*
D02*
G37*
G36*
X2948D02*
X2945Y5344D01*
X2938Y5341D01*
X2932Y5336D01*
X2927Y5330D01*
X2924Y5323D01*
X2924Y5320D01*
X2948D01*
Y5344D01*
D02*
G37*
G36*
X2958D02*
Y5320D01*
X2982D01*
X2982Y5323D01*
X2979Y5330D01*
X2974Y5336D01*
X2968Y5341D01*
X2960Y5344D01*
X2958Y5344D01*
D02*
G37*
G36*
X3342Y5310D02*
X3317D01*
X3318Y5307D01*
X3321Y5300D01*
X3325Y5294D01*
X3332Y5289D01*
X3339Y5286D01*
X3342Y5286D01*
Y5310D01*
D02*
G37*
G36*
X5709Y5347D02*
X5698Y5346D01*
X5689Y5342D01*
X5681Y5336D01*
X5674Y5327D01*
X5670Y5318D01*
X5669Y5307D01*
X5670Y5297D01*
X5674Y5288D01*
X5681Y5279D01*
X5689Y5273D01*
X5698Y5269D01*
X5709Y5268D01*
X5719Y5269D01*
X5729Y5273D01*
X5737Y5279D01*
X5743Y5288D01*
X5747Y5297D01*
X5748Y5307D01*
X5747Y5318D01*
X5743Y5327D01*
X5737Y5336D01*
X5729Y5342D01*
X5719Y5346D01*
X5709Y5347D01*
D02*
G37*
G36*
X2160Y5319D02*
X2155Y5318D01*
X2145Y5314D01*
X2136Y5307D01*
X2129Y5298D01*
X2125Y5288D01*
X2124Y5282D01*
X2160D01*
Y5319D01*
D02*
G37*
G36*
X2170D02*
Y5282D01*
X2206D01*
X2206Y5288D01*
X2201Y5298D01*
X2195Y5307D01*
X2186Y5314D01*
X2176Y5318D01*
X2170Y5319D01*
D02*
G37*
G36*
X5765Y5833D02*
X5480D01*
X5473Y5832D01*
X5466Y5829D01*
X5460Y5825D01*
X5456Y5819D01*
X5453Y5812D01*
X5452Y5805D01*
X5453Y5798D01*
X5456Y5791D01*
X5460Y5785D01*
X5466Y5781D01*
X5473Y5778D01*
X5480Y5777D01*
X5753D01*
X5792Y5738D01*
Y4833D01*
X5739D01*
X5737Y4836D01*
X5729Y4842D01*
X5719Y4846D01*
X5709Y4847D01*
X5698Y4846D01*
X5689Y4842D01*
X5681Y4836D01*
X5674Y4827D01*
X5670Y4818D01*
X5669Y4807D01*
X5670Y4797D01*
X5674Y4788D01*
X5681Y4779D01*
X5689Y4773D01*
X5698Y4769D01*
X5709Y4768D01*
X5719Y4769D01*
X5729Y4773D01*
X5734Y4777D01*
X5792D01*
Y4456D01*
X5480D01*
X5473Y4455D01*
X5466Y4452D01*
X5460Y4448D01*
X5456Y4442D01*
X5453Y4436D01*
X5452Y4428D01*
X5453Y4421D01*
X5456Y4415D01*
X5460Y4409D01*
X5466Y4404D01*
X5473Y4402D01*
X5480Y4401D01*
X5792D01*
Y3458D01*
X5736D01*
X5729Y3464D01*
X5719Y3468D01*
X5709Y3469D01*
X5698Y3468D01*
X5689Y3464D01*
X5681Y3458D01*
X5674Y3449D01*
X5670Y3440D01*
X5669Y3430D01*
X5670Y3419D01*
X5674Y3410D01*
X5681Y3401D01*
X5689Y3395D01*
X5698Y3391D01*
X5709Y3390D01*
X5719Y3391D01*
X5729Y3395D01*
X5737Y3401D01*
X5737Y3402D01*
X5792D01*
Y2823D01*
X5737D01*
X5734Y2833D01*
X5737Y2835D01*
X5743Y2844D01*
X5747Y2853D01*
X5748Y2863D01*
X5747Y2874D01*
X5743Y2883D01*
X5737Y2891D01*
X5729Y2898D01*
X5719Y2902D01*
X5709Y2903D01*
X5698Y2902D01*
X5689Y2898D01*
X5681Y2891D01*
X5674Y2883D01*
X5670Y2874D01*
X5669Y2863D01*
X5670Y2853D01*
X5673Y2846D01*
X5665Y2841D01*
X5633Y2873D01*
X5627Y2877D01*
X5620Y2878D01*
X5511D01*
X5510Y2880D01*
X5504Y2884D01*
X5497Y2887D01*
X5490Y2888D01*
X5483Y2887D01*
X5476Y2884D01*
X5470Y2880D01*
X5466Y2874D01*
X5463Y2867D01*
X5462Y2860D01*
X5463Y2853D01*
X5466Y2846D01*
X5470Y2840D01*
X5476Y2836D01*
X5483Y2833D01*
X5490Y2832D01*
X5497Y2833D01*
X5504Y2836D01*
X5510Y2840D01*
X5511Y2842D01*
X5613D01*
X5662Y2792D01*
X5668Y2788D01*
X5675Y2787D01*
X5792D01*
Y2473D01*
X5743D01*
X5740Y2476D01*
X5738Y2483D01*
X5743Y2489D01*
X5747Y2499D01*
X5748Y2509D01*
X5747Y2519D01*
X5743Y2529D01*
X5737Y2537D01*
X5729Y2543D01*
X5719Y2547D01*
X5709Y2549D01*
X5698Y2547D01*
X5689Y2543D01*
X5681Y2537D01*
X5674Y2529D01*
X5670Y2519D01*
X5669Y2509D01*
X5670Y2499D01*
X5670Y2498D01*
X5661Y2494D01*
X5633Y2523D01*
X5627Y2527D01*
X5620Y2528D01*
X5536D01*
X5533Y2538D01*
X5533Y2538D01*
X5538Y2544D01*
X5541Y2551D01*
X5541Y2554D01*
X5483D01*
X5483Y2551D01*
X5485Y2547D01*
X5484Y2543D01*
X5482Y2539D01*
X5480Y2536D01*
X5476Y2534D01*
X5470Y2530D01*
X5466Y2524D01*
X5463Y2517D01*
X5462Y2510D01*
X5463Y2503D01*
X5466Y2496D01*
X5470Y2490D01*
X5476Y2486D01*
X5483Y2483D01*
X5490Y2482D01*
X5497Y2483D01*
X5504Y2486D01*
X5510Y2490D01*
X5511Y2492D01*
X5613D01*
X5662Y2442D01*
X5668Y2438D01*
X5675Y2437D01*
X5792D01*
Y2112D01*
X5763Y2083D01*
X4162D01*
Y2137D01*
X4162Y2137D01*
X4168Y2145D01*
X4172Y2155D01*
X4174Y2165D01*
X4172Y2176D01*
X4168Y2185D01*
X4162Y2193D01*
X4154Y2200D01*
X4144Y2204D01*
X4134Y2205D01*
X4124Y2204D01*
X4114Y2200D01*
X4106Y2193D01*
X4099Y2185D01*
X4096Y2176D01*
X4094Y2165D01*
X4096Y2155D01*
X4099Y2145D01*
X4106Y2137D01*
X4106Y2137D01*
Y2083D01*
X2142D01*
X2098Y2127D01*
Y5071D01*
X2118Y5091D01*
X2121Y5090D01*
X2127Y5086D01*
X2126Y5078D01*
X2127Y5067D01*
X2131Y5058D01*
X2137Y5049D01*
X2145Y5043D01*
X2155Y5039D01*
X2165Y5038D01*
X2176Y5039D01*
X2185Y5043D01*
X2193Y5049D01*
X2200Y5058D01*
X2204Y5067D01*
X2205Y5078D01*
X2204Y5088D01*
X2200Y5097D01*
X2193Y5106D01*
X2185Y5112D01*
X2176Y5116D01*
X2165Y5117D01*
X2157Y5116D01*
X2153Y5122D01*
X2152Y5125D01*
X2165Y5138D01*
X2165Y5138D01*
X2176Y5139D01*
X2185Y5143D01*
X2193Y5149D01*
X2200Y5158D01*
X2204Y5167D01*
X2205Y5178D01*
X2205Y5178D01*
X2385Y5358D01*
X2389Y5363D01*
X2392Y5370D01*
X2393Y5377D01*
Y5433D01*
X2417Y5457D01*
X2760D01*
X2767Y5458D01*
X2774Y5461D01*
X2780Y5465D01*
X2784Y5471D01*
X2787Y5478D01*
X2788Y5485D01*
X2787Y5492D01*
X2784Y5499D01*
X2780Y5505D01*
X2774Y5509D01*
X2767Y5512D01*
X2760Y5513D01*
X2405D01*
X2398Y5512D01*
X2391Y5509D01*
X2385Y5505D01*
X2345Y5465D01*
X2341Y5459D01*
X2338Y5452D01*
X2337Y5445D01*
Y5389D01*
X2216Y5267D01*
X2206Y5272D01*
X2206Y5273D01*
X2170D01*
Y5237D01*
X2171Y5237D01*
X2176Y5227D01*
X2166Y5217D01*
X2165Y5217D01*
X2155Y5216D01*
X2145Y5212D01*
X2137Y5206D01*
X2131Y5197D01*
X2127Y5188D01*
X2126Y5178D01*
X2126Y5177D01*
X2050Y5102D01*
X2046Y5096D01*
X2043Y5089D01*
X2042Y5082D01*
Y2115D01*
X2043Y2108D01*
X2046Y2101D01*
X2050Y2095D01*
X2110Y2035D01*
X2116Y2031D01*
X2123Y2028D01*
X2130Y2027D01*
X5775D01*
X5782Y2028D01*
X5789Y2031D01*
X5795Y2035D01*
X5840Y2080D01*
X5844Y2086D01*
X5847Y2093D01*
X5848Y2100D01*
Y2805D01*
Y3430D01*
Y4805D01*
Y5750D01*
X5847Y5757D01*
X5844Y5764D01*
X5840Y5770D01*
X5785Y5825D01*
X5779Y5829D01*
X5772Y5832D01*
X5765Y5833D01*
D02*
G37*
G36*
X5709Y5247D02*
X5698Y5246D01*
X5689Y5242D01*
X5681Y5236D01*
X5674Y5227D01*
X5670Y5218D01*
X5669Y5207D01*
X5670Y5197D01*
X5674Y5188D01*
X5681Y5179D01*
X5689Y5173D01*
X5698Y5169D01*
X5709Y5168D01*
X5719Y5169D01*
X5729Y5173D01*
X5737Y5179D01*
X5743Y5188D01*
X5747Y5197D01*
X5748Y5207D01*
X5747Y5218D01*
X5743Y5227D01*
X5737Y5236D01*
X5729Y5242D01*
X5719Y5246D01*
X5709Y5247D01*
D02*
G37*
G36*
X2160Y5273D02*
X2124D01*
X2125Y5267D01*
X2129Y5257D01*
X2136Y5248D01*
X2145Y5241D01*
X2155Y5237D01*
X2160Y5237D01*
Y5273D01*
D02*
G37*
G36*
X2982Y5310D02*
X2958D01*
Y5286D01*
X2960Y5286D01*
X2968Y5289D01*
X2974Y5294D01*
X2979Y5300D01*
X2982Y5307D01*
X2982Y5310D01*
D02*
G37*
G36*
X3145D02*
X3120D01*
X3121Y5307D01*
X3124Y5300D01*
X3129Y5294D01*
X3135Y5289D01*
X3142Y5286D01*
X3145Y5286D01*
Y5310D01*
D02*
G37*
G36*
X3179D02*
X3155D01*
Y5286D01*
X3157Y5286D01*
X3164Y5289D01*
X3171Y5294D01*
X3175Y5300D01*
X3178Y5307D01*
X3179Y5310D01*
D02*
G37*
G36*
X2751D02*
X2727D01*
X2727Y5307D01*
X2730Y5300D01*
X2735Y5294D01*
X2741Y5289D01*
X2748Y5286D01*
X2751Y5286D01*
Y5310D01*
D02*
G37*
G36*
X2785D02*
X2761D01*
Y5286D01*
X2764Y5286D01*
X2771Y5289D01*
X2777Y5294D01*
X2782Y5300D01*
X2785Y5307D01*
X2785Y5310D01*
D02*
G37*
G36*
X2948D02*
X2924D01*
X2924Y5307D01*
X2927Y5300D01*
X2932Y5294D01*
X2938Y5289D01*
X2945Y5286D01*
X2948Y5286D01*
Y5310D01*
D02*
G37*
G36*
X4470Y5455D02*
X4446D01*
X4446Y5452D01*
X4449Y5445D01*
X4454Y5439D01*
X4460Y5434D01*
X4467Y5431D01*
X4470Y5431D01*
Y5455D01*
D02*
G37*
G36*
X4504D02*
X4480D01*
Y5431D01*
X4483Y5431D01*
X4490Y5434D01*
X4496Y5439D01*
X4501Y5445D01*
X4504Y5452D01*
X4504Y5455D01*
D02*
G37*
G36*
X4570D02*
X4546D01*
X4546Y5452D01*
X4549Y5445D01*
X4554Y5439D01*
X4560Y5434D01*
X4567Y5431D01*
X4570Y5431D01*
Y5455D01*
D02*
G37*
G36*
X4304D02*
X4280D01*
Y5431D01*
X4283Y5431D01*
X4290Y5434D01*
X4296Y5439D01*
X4301Y5445D01*
X4304Y5452D01*
X4304Y5455D01*
D02*
G37*
G36*
X4370D02*
X4346D01*
X4346Y5452D01*
X4349Y5445D01*
X4354Y5439D01*
X4360Y5434D01*
X4367Y5431D01*
X4370Y5431D01*
Y5455D01*
D02*
G37*
G36*
X4404D02*
X4380D01*
Y5431D01*
X4383Y5431D01*
X4390Y5434D01*
X4396Y5439D01*
X4401Y5445D01*
X4404Y5452D01*
X4404Y5455D01*
D02*
G37*
G36*
X4770D02*
X4746D01*
X4746Y5452D01*
X4749Y5445D01*
X4754Y5439D01*
X4760Y5434D01*
X4767Y5431D01*
X4770Y5431D01*
Y5455D01*
D02*
G37*
G36*
X4804D02*
X4780D01*
Y5431D01*
X4783Y5431D01*
X4790Y5434D01*
X4796Y5439D01*
X4801Y5445D01*
X4804Y5452D01*
X4804Y5455D01*
D02*
G37*
G36*
X4870D02*
X4846D01*
X4846Y5452D01*
X4849Y5445D01*
X4854Y5439D01*
X4860Y5434D01*
X4867Y5431D01*
X4870Y5431D01*
Y5455D01*
D02*
G37*
G36*
X4604D02*
X4580D01*
Y5431D01*
X4583Y5431D01*
X4590Y5434D01*
X4596Y5439D01*
X4601Y5445D01*
X4604Y5452D01*
X4604Y5455D01*
D02*
G37*
G36*
X4670D02*
X4646D01*
X4646Y5452D01*
X4649Y5445D01*
X4654Y5439D01*
X4660Y5434D01*
X4667Y5431D01*
X4670Y5431D01*
Y5455D01*
D02*
G37*
G36*
X4704D02*
X4680D01*
Y5431D01*
X4683Y5431D01*
X4690Y5434D01*
X4696Y5439D01*
X4701Y5445D01*
X4704Y5452D01*
X4704Y5455D01*
D02*
G37*
G36*
X4270D02*
X4246D01*
X4246Y5452D01*
X4249Y5445D01*
X4254Y5439D01*
X4260Y5434D01*
X4267Y5431D01*
X4270Y5431D01*
Y5455D01*
D02*
G37*
G36*
X3735Y5344D02*
X3732Y5344D01*
X3725Y5341D01*
X3719Y5336D01*
X3714Y5330D01*
X3711Y5323D01*
X3711Y5320D01*
X3735D01*
Y5344D01*
D02*
G37*
G36*
X3745D02*
Y5320D01*
X3769D01*
X3769Y5323D01*
X3766Y5330D01*
X3761Y5336D01*
X3755Y5341D01*
X3748Y5344D01*
X3745Y5344D01*
D02*
G37*
G36*
X5475Y5349D02*
X5451D01*
X5451Y5347D01*
X5454Y5339D01*
X5459Y5333D01*
X5465Y5329D01*
X5472Y5326D01*
X5475Y5325D01*
Y5349D01*
D02*
G37*
G36*
X3351Y5344D02*
Y5320D01*
X3376D01*
X3375Y5323D01*
X3372Y5330D01*
X3368Y5336D01*
X3361Y5341D01*
X3354Y5344D01*
X3351Y5344D01*
D02*
G37*
G36*
X3538D02*
X3536Y5344D01*
X3528Y5341D01*
X3522Y5336D01*
X3518Y5330D01*
X3515Y5323D01*
X3514Y5320D01*
X3538D01*
Y5344D01*
D02*
G37*
G36*
X3548D02*
Y5320D01*
X3572D01*
X3572Y5323D01*
X3569Y5330D01*
X3564Y5336D01*
X3558Y5341D01*
X3551Y5344D01*
X3548Y5344D01*
D02*
G37*
G36*
X5709Y5447D02*
X5698Y5446D01*
X5689Y5442D01*
X5681Y5436D01*
X5674Y5427D01*
X5670Y5418D01*
X5669Y5407D01*
X5670Y5397D01*
X5674Y5388D01*
X5681Y5379D01*
X5689Y5373D01*
X5698Y5369D01*
X5709Y5368D01*
X5719Y5369D01*
X5729Y5373D01*
X5737Y5379D01*
X5743Y5388D01*
X5747Y5397D01*
X5748Y5407D01*
X5747Y5418D01*
X5743Y5427D01*
X5737Y5436D01*
X5729Y5442D01*
X5719Y5446D01*
X5709Y5447D01*
D02*
G37*
G36*
X4170Y5455D02*
X4146D01*
X4146Y5452D01*
X4149Y5445D01*
X4154Y5439D01*
X4160Y5434D01*
X4167Y5431D01*
X4170Y5431D01*
Y5455D01*
D02*
G37*
G36*
X4204D02*
X4180D01*
Y5431D01*
X4183Y5431D01*
X4190Y5434D01*
X4196Y5439D01*
X4201Y5445D01*
X4204Y5452D01*
X4204Y5455D01*
D02*
G37*
G36*
X5509Y5349D02*
X5485D01*
Y5325D01*
X5488Y5326D01*
X5495Y5329D01*
X5501Y5333D01*
X5506Y5339D01*
X5509Y5347D01*
X5509Y5349D01*
D02*
G37*
G36*
X5475Y5384D02*
X5472Y5383D01*
X5465Y5380D01*
X5459Y5375D01*
X5454Y5369D01*
X5451Y5362D01*
X5451Y5359D01*
X5475D01*
Y5384D01*
D02*
G37*
G36*
X5485D02*
Y5359D01*
X5509D01*
X5509Y5362D01*
X5506Y5369D01*
X5501Y5375D01*
X5495Y5380D01*
X5488Y5383D01*
X5485Y5384D01*
D02*
G37*
G36*
X3745Y4950D02*
Y4926D01*
X3769D01*
X3769Y4929D01*
X3766Y4936D01*
X3761Y4942D01*
X3755Y4947D01*
X3748Y4950D01*
X3745Y4950D01*
D02*
G37*
G36*
X5113D02*
X5110Y4950D01*
X5103Y4947D01*
X5097Y4942D01*
X5092Y4936D01*
X5089Y4929D01*
X5089Y4926D01*
X5113D01*
Y4950D01*
D02*
G37*
G36*
X5123D02*
Y4926D01*
X5147D01*
X5147Y4929D01*
X5144Y4936D01*
X5139Y4942D01*
X5133Y4947D01*
X5126Y4950D01*
X5123Y4950D01*
D02*
G37*
G36*
X3538D02*
X3536Y4950D01*
X3528Y4947D01*
X3522Y4942D01*
X3518Y4936D01*
X3515Y4929D01*
X3514Y4926D01*
X3538D01*
Y4950D01*
D02*
G37*
G36*
X3548D02*
Y4926D01*
X3572D01*
X3572Y4929D01*
X3569Y4936D01*
X3564Y4942D01*
X3558Y4947D01*
X3551Y4950D01*
X3548Y4950D01*
D02*
G37*
G36*
X3735D02*
X3732Y4950D01*
X3725Y4947D01*
X3719Y4942D01*
X3714Y4936D01*
X3711Y4929D01*
X3711Y4926D01*
X3735D01*
Y4950D01*
D02*
G37*
G36*
X5517D02*
Y4926D01*
X5541D01*
X5541Y4929D01*
X5538Y4936D01*
X5533Y4942D01*
X5527Y4947D01*
X5520Y4950D01*
X5517Y4950D01*
D02*
G37*
G36*
X2165Y5017D02*
X2155Y5016D01*
X2145Y5012D01*
X2137Y5006D01*
X2131Y4997D01*
X2127Y4988D01*
X2126Y4978D01*
X2127Y4967D01*
X2131Y4958D01*
X2137Y4949D01*
X2145Y4943D01*
X2155Y4939D01*
X2165Y4938D01*
X2176Y4939D01*
X2185Y4943D01*
X2193Y4949D01*
X2200Y4958D01*
X2204Y4967D01*
X2205Y4978D01*
X2204Y4988D01*
X2200Y4997D01*
X2193Y5006D01*
X2185Y5012D01*
X2176Y5016D01*
X2165Y5017D01*
D02*
G37*
G36*
X5709Y5047D02*
X5698Y5046D01*
X5689Y5042D01*
X5681Y5036D01*
X5674Y5027D01*
X5670Y5018D01*
X5669Y5007D01*
X5670Y4997D01*
X5674Y4988D01*
X5681Y4979D01*
X5689Y4973D01*
X5698Y4969D01*
X5709Y4968D01*
X5719Y4969D01*
X5729Y4973D01*
X5737Y4979D01*
X5743Y4988D01*
X5747Y4997D01*
X5748Y5007D01*
X5747Y5018D01*
X5743Y5027D01*
X5737Y5036D01*
X5729Y5042D01*
X5719Y5046D01*
X5709Y5047D01*
D02*
G37*
G36*
X5310Y4950D02*
X5307Y4950D01*
X5300Y4947D01*
X5294Y4942D01*
X5289Y4936D01*
X5286Y4929D01*
X5286Y4926D01*
X5310D01*
Y4950D01*
D02*
G37*
G36*
X5320D02*
Y4926D01*
X5344D01*
X5344Y4929D01*
X5341Y4936D01*
X5336Y4942D01*
X5330Y4947D01*
X5323Y4950D01*
X5320Y4950D01*
D02*
G37*
G36*
X5507D02*
X5504Y4950D01*
X5497Y4947D01*
X5491Y4942D01*
X5486Y4936D01*
X5483Y4929D01*
X5483Y4926D01*
X5507D01*
Y4950D01*
D02*
G37*
G36*
X3351D02*
Y4926D01*
X3376D01*
X3375Y4929D01*
X3372Y4936D01*
X3368Y4942D01*
X3361Y4947D01*
X3354Y4950D01*
X3351Y4950D01*
D02*
G37*
G36*
X5507Y4916D02*
X5483D01*
X5483Y4914D01*
X5486Y4906D01*
X5491Y4900D01*
X5497Y4895D01*
X5504Y4892D01*
X5507Y4892D01*
Y4916D01*
D02*
G37*
G36*
X5541D02*
X5517D01*
Y4892D01*
X5520Y4892D01*
X5527Y4895D01*
X5533Y4900D01*
X5538Y4906D01*
X5541Y4914D01*
X5541Y4916D01*
D02*
G37*
G36*
X5704Y4949D02*
X5698Y4948D01*
X5688Y4944D01*
X5679Y4937D01*
X5673Y4928D01*
X5668Y4918D01*
X5668Y4912D01*
X5704D01*
Y4949D01*
D02*
G37*
G36*
X5147Y4916D02*
X5123D01*
Y4892D01*
X5126Y4892D01*
X5133Y4895D01*
X5139Y4900D01*
X5144Y4906D01*
X5147Y4914D01*
X5147Y4916D01*
D02*
G37*
G36*
X5310D02*
X5286D01*
X5286Y4914D01*
X5289Y4906D01*
X5294Y4900D01*
X5300Y4895D01*
X5307Y4892D01*
X5310Y4892D01*
Y4916D01*
D02*
G37*
G36*
X5344D02*
X5320D01*
Y4892D01*
X5323Y4892D01*
X5330Y4895D01*
X5336Y4900D01*
X5341Y4906D01*
X5344Y4914D01*
X5344Y4916D01*
D02*
G37*
G36*
X3145Y4950D02*
X3142Y4950D01*
X3135Y4947D01*
X3129Y4942D01*
X3124Y4936D01*
X3121Y4929D01*
X3120Y4926D01*
X3145D01*
Y4950D01*
D02*
G37*
G36*
X3155D02*
Y4926D01*
X3179D01*
X3178Y4929D01*
X3175Y4936D01*
X3171Y4942D01*
X3164Y4947D01*
X3157Y4950D01*
X3155Y4950D01*
D02*
G37*
G36*
X3342D02*
X3339Y4950D01*
X3332Y4947D01*
X3325Y4942D01*
X3321Y4936D01*
X3318Y4929D01*
X3317Y4926D01*
X3342D01*
Y4950D01*
D02*
G37*
G36*
X5714Y4949D02*
Y4912D01*
X5750D01*
X5749Y4918D01*
X5745Y4928D01*
X5738Y4937D01*
X5730Y4944D01*
X5719Y4948D01*
X5714Y4949D01*
D02*
G37*
G36*
X2948Y4950D02*
X2945Y4950D01*
X2938Y4947D01*
X2932Y4942D01*
X2927Y4936D01*
X2924Y4929D01*
X2924Y4926D01*
X2948D01*
Y4950D01*
D02*
G37*
G36*
X2958D02*
Y4926D01*
X2982D01*
X2982Y4929D01*
X2979Y4936D01*
X2974Y4942D01*
X2968Y4947D01*
X2960Y4950D01*
X2958Y4950D01*
D02*
G37*
G36*
X2859Y5147D02*
Y5123D01*
X2883D01*
X2883Y5126D01*
X2880Y5133D01*
X2875Y5139D01*
X2869Y5144D01*
X2862Y5147D01*
X2859Y5147D01*
D02*
G37*
G36*
X3046D02*
X3043Y5147D01*
X3036Y5144D01*
X3030Y5139D01*
X3025Y5133D01*
X3022Y5126D01*
X3022Y5123D01*
X3046D01*
Y5147D01*
D02*
G37*
G36*
X3056D02*
Y5123D01*
X3080D01*
X3080Y5126D01*
X3077Y5133D01*
X3072Y5139D01*
X3066Y5144D01*
X3059Y5147D01*
X3056Y5147D01*
D02*
G37*
G36*
X2456D02*
X2453Y5147D01*
X2446Y5144D01*
X2440Y5139D01*
X2435Y5133D01*
X2432Y5126D01*
X2431Y5123D01*
X2456D01*
Y5147D01*
D02*
G37*
G36*
X2466D02*
Y5123D01*
X2490D01*
X2489Y5126D01*
X2486Y5133D01*
X2482Y5139D01*
X2476Y5144D01*
X2468Y5147D01*
X2466Y5147D01*
D02*
G37*
G36*
X2849D02*
X2847Y5147D01*
X2839Y5144D01*
X2833Y5139D01*
X2829Y5133D01*
X2826Y5126D01*
X2825Y5123D01*
X2849D01*
Y5147D01*
D02*
G37*
G36*
X3450D02*
Y5123D01*
X3474D01*
X3474Y5126D01*
X3471Y5133D01*
X3466Y5139D01*
X3460Y5144D01*
X3453Y5147D01*
X3450Y5147D01*
D02*
G37*
G36*
X3637D02*
X3634Y5147D01*
X3627Y5144D01*
X3621Y5139D01*
X3616Y5133D01*
X3613Y5126D01*
X3613Y5123D01*
X3637D01*
Y5147D01*
D02*
G37*
G36*
X3647D02*
Y5123D01*
X3671D01*
X3671Y5126D01*
X3668Y5133D01*
X3663Y5139D01*
X3657Y5144D01*
X3649Y5147D01*
X3647Y5147D01*
D02*
G37*
G36*
X3243D02*
X3240Y5147D01*
X3233Y5144D01*
X3227Y5139D01*
X3222Y5133D01*
X3219Y5126D01*
X3219Y5123D01*
X3243D01*
Y5147D01*
D02*
G37*
G36*
X3253D02*
Y5123D01*
X3277D01*
X3277Y5126D01*
X3274Y5133D01*
X3269Y5139D01*
X3263Y5144D01*
X3256Y5147D01*
X3253Y5147D01*
D02*
G37*
G36*
X3440D02*
X3437Y5147D01*
X3430Y5144D01*
X3424Y5139D01*
X3419Y5133D01*
X3416Y5126D01*
X3416Y5123D01*
X3440D01*
Y5147D01*
D02*
G37*
G36*
X3671Y5113D02*
X3647D01*
Y5089D01*
X3649Y5089D01*
X3657Y5092D01*
X3663Y5097D01*
X3668Y5103D01*
X3671Y5110D01*
X3671Y5113D01*
D02*
G37*
G36*
X2849D02*
X2825D01*
X2826Y5110D01*
X2829Y5103D01*
X2833Y5097D01*
X2839Y5092D01*
X2847Y5089D01*
X2849Y5089D01*
Y5113D01*
D02*
G37*
G36*
X2883D02*
X2859D01*
Y5089D01*
X2862Y5089D01*
X2869Y5092D01*
X2875Y5097D01*
X2880Y5103D01*
X2883Y5110D01*
X2883Y5113D01*
D02*
G37*
G36*
X3046D02*
X3022D01*
X3022Y5110D01*
X3025Y5103D01*
X3030Y5097D01*
X3036Y5092D01*
X3043Y5089D01*
X3046Y5089D01*
Y5113D01*
D02*
G37*
G36*
X5709Y5147D02*
X5698Y5146D01*
X5689Y5142D01*
X5681Y5136D01*
X5674Y5127D01*
X5670Y5118D01*
X5669Y5107D01*
X5670Y5097D01*
X5674Y5088D01*
X5681Y5079D01*
X5689Y5073D01*
X5698Y5069D01*
X5709Y5068D01*
X5719Y5069D01*
X5729Y5073D01*
X5737Y5079D01*
X5743Y5088D01*
X5747Y5097D01*
X5748Y5107D01*
X5747Y5118D01*
X5743Y5127D01*
X5737Y5136D01*
X5729Y5142D01*
X5719Y5146D01*
X5709Y5147D01*
D02*
G37*
G36*
X2456Y5113D02*
X2431D01*
X2432Y5110D01*
X2435Y5103D01*
X2440Y5097D01*
X2446Y5092D01*
X2453Y5089D01*
X2456Y5089D01*
Y5113D01*
D02*
G37*
G36*
X2490D02*
X2466D01*
Y5089D01*
X2468Y5089D01*
X2476Y5092D01*
X2482Y5097D01*
X2486Y5103D01*
X2489Y5110D01*
X2490Y5113D01*
D02*
G37*
G36*
X3440D02*
X3416D01*
X3416Y5110D01*
X3419Y5103D01*
X3424Y5097D01*
X3430Y5092D01*
X3437Y5089D01*
X3440Y5089D01*
Y5113D01*
D02*
G37*
G36*
X3474D02*
X3450D01*
Y5089D01*
X3453Y5089D01*
X3460Y5092D01*
X3466Y5097D01*
X3471Y5103D01*
X3474Y5110D01*
X3474Y5113D01*
D02*
G37*
G36*
X3637D02*
X3613D01*
X3613Y5110D01*
X3616Y5103D01*
X3621Y5097D01*
X3627Y5092D01*
X3634Y5089D01*
X3637Y5089D01*
Y5113D01*
D02*
G37*
G36*
X3080D02*
X3056D01*
Y5089D01*
X3059Y5089D01*
X3066Y5092D01*
X3072Y5097D01*
X3077Y5103D01*
X3080Y5110D01*
X3080Y5113D01*
D02*
G37*
G36*
X3243D02*
X3219D01*
X3219Y5110D01*
X3222Y5103D01*
X3227Y5097D01*
X3233Y5092D01*
X3240Y5089D01*
X3243Y5089D01*
Y5113D01*
D02*
G37*
G36*
X3277D02*
X3253D01*
Y5089D01*
X3256Y5089D01*
X3263Y5092D01*
X3269Y5097D01*
X3274Y5103D01*
X3277Y5110D01*
X3277Y5113D01*
D02*
G37*
G36*
X5485Y5664D02*
Y5639D01*
X5509D01*
X5509Y5642D01*
X5506Y5649D01*
X5501Y5655D01*
X5495Y5660D01*
X5488Y5663D01*
X5485Y5664D01*
D02*
G37*
G36*
X5704Y5703D02*
X5668D01*
X5668Y5697D01*
X5673Y5687D01*
X5679Y5678D01*
X5688Y5671D01*
X5698Y5667D01*
X5704Y5666D01*
Y5703D01*
D02*
G37*
G36*
X5750D02*
X5714D01*
Y5666D01*
X5719Y5667D01*
X5730Y5671D01*
X5738Y5678D01*
X5745Y5687D01*
X5749Y5697D01*
X5750Y5703D01*
D02*
G37*
G36*
X5475Y5629D02*
X5451D01*
X5451Y5627D01*
X5454Y5619D01*
X5459Y5613D01*
X5465Y5609D01*
X5472Y5606D01*
X5475Y5605D01*
Y5629D01*
D02*
G37*
G36*
X5509D02*
X5485D01*
Y5605D01*
X5488Y5606D01*
X5495Y5609D01*
X5501Y5613D01*
X5506Y5619D01*
X5509Y5627D01*
X5509Y5629D01*
D02*
G37*
G36*
X5475Y5664D02*
X5472Y5663D01*
X5465Y5660D01*
X5459Y5655D01*
X5454Y5649D01*
X5451Y5642D01*
X5451Y5639D01*
X5475D01*
Y5664D01*
D02*
G37*
G36*
X2559Y5748D02*
X2549Y5747D01*
X2539Y5743D01*
X2531Y5737D01*
X2525Y5729D01*
X2521Y5719D01*
X2519Y5709D01*
X2521Y5698D01*
X2525Y5689D01*
X2531Y5681D01*
X2539Y5674D01*
X2549Y5670D01*
X2559Y5669D01*
X2569Y5670D01*
X2579Y5674D01*
X2587Y5681D01*
X2593Y5689D01*
X2597Y5698D01*
X2599Y5709D01*
X2597Y5719D01*
X2593Y5729D01*
X2587Y5737D01*
X2579Y5743D01*
X2569Y5747D01*
X2559Y5748D01*
D02*
G37*
G36*
X2659D02*
X2649Y5747D01*
X2639Y5743D01*
X2631Y5737D01*
X2625Y5729D01*
X2621Y5719D01*
X2619Y5709D01*
X2621Y5698D01*
X2625Y5689D01*
X2631Y5681D01*
X2639Y5674D01*
X2649Y5670D01*
X2659Y5669D01*
X2669Y5670D01*
X2679Y5674D01*
X2687Y5681D01*
X2693Y5689D01*
X2697Y5698D01*
X2699Y5709D01*
X2697Y5719D01*
X2693Y5729D01*
X2687Y5737D01*
X2679Y5743D01*
X2669Y5747D01*
X2659Y5748D01*
D02*
G37*
G36*
X2759D02*
X2749Y5747D01*
X2739Y5743D01*
X2731Y5737D01*
X2725Y5729D01*
X2721Y5719D01*
X2719Y5709D01*
X2721Y5698D01*
X2725Y5689D01*
X2731Y5681D01*
X2739Y5674D01*
X2749Y5670D01*
X2759Y5669D01*
X2769Y5670D01*
X2779Y5674D01*
X2787Y5681D01*
X2793Y5689D01*
X2797Y5698D01*
X2799Y5709D01*
X2797Y5719D01*
X2793Y5729D01*
X2787Y5737D01*
X2779Y5743D01*
X2769Y5747D01*
X2759Y5748D01*
D02*
G37*
G36*
X2354Y5704D02*
X2318D01*
X2319Y5698D01*
X2323Y5688D01*
X2330Y5679D01*
X2338Y5673D01*
X2348Y5668D01*
X2354Y5668D01*
Y5704D01*
D02*
G37*
G36*
X2400D02*
X2364D01*
Y5668D01*
X2370Y5668D01*
X2380Y5673D01*
X2389Y5679D01*
X2395Y5688D01*
X2399Y5698D01*
X2400Y5704D01*
D02*
G37*
G36*
X2459Y5748D02*
X2449Y5747D01*
X2439Y5743D01*
X2431Y5737D01*
X2425Y5729D01*
X2421Y5719D01*
X2419Y5709D01*
X2421Y5698D01*
X2425Y5689D01*
X2431Y5681D01*
X2439Y5674D01*
X2449Y5670D01*
X2459Y5669D01*
X2469Y5670D01*
X2479Y5674D01*
X2487Y5681D01*
X2493Y5689D01*
X2497Y5698D01*
X2499Y5709D01*
X2497Y5719D01*
X2493Y5729D01*
X2487Y5737D01*
X2479Y5743D01*
X2469Y5747D01*
X2459Y5748D01*
D02*
G37*
G36*
X5709Y5647D02*
X5698Y5646D01*
X5689Y5642D01*
X5681Y5636D01*
X5674Y5627D01*
X5670Y5618D01*
X5669Y5607D01*
X5670Y5597D01*
X5674Y5588D01*
X5681Y5579D01*
X5689Y5573D01*
X5698Y5569D01*
X5709Y5568D01*
X5719Y5569D01*
X5729Y5573D01*
X5737Y5579D01*
X5743Y5588D01*
X5747Y5597D01*
X5748Y5607D01*
X5747Y5618D01*
X5743Y5627D01*
X5737Y5636D01*
X5729Y5642D01*
X5719Y5646D01*
X5709Y5647D01*
D02*
G37*
G36*
X2859Y5541D02*
Y5517D01*
X2883D01*
X2883Y5520D01*
X2880Y5527D01*
X2875Y5533D01*
X2869Y5538D01*
X2862Y5541D01*
X2859Y5541D01*
D02*
G37*
G36*
X3046D02*
X3043Y5541D01*
X3036Y5538D01*
X3030Y5533D01*
X3025Y5527D01*
X3022Y5520D01*
X3022Y5517D01*
X3046D01*
Y5541D01*
D02*
G37*
G36*
X3056D02*
Y5517D01*
X3080D01*
X3080Y5520D01*
X3077Y5527D01*
X3072Y5533D01*
X3066Y5538D01*
X3059Y5541D01*
X3056Y5541D01*
D02*
G37*
G36*
X2259D02*
X2256Y5541D01*
X2249Y5538D01*
X2243Y5533D01*
X2238Y5527D01*
X2235Y5520D01*
X2235Y5517D01*
X2259D01*
Y5541D01*
D02*
G37*
G36*
X2269D02*
Y5517D01*
X2293D01*
X2293Y5520D01*
X2290Y5527D01*
X2285Y5533D01*
X2279Y5538D01*
X2271Y5541D01*
X2269Y5541D01*
D02*
G37*
G36*
X2849D02*
X2847Y5541D01*
X2839Y5538D01*
X2833Y5533D01*
X2829Y5527D01*
X2826Y5520D01*
X2825Y5517D01*
X2849D01*
Y5541D01*
D02*
G37*
G36*
X3450D02*
Y5517D01*
X3474D01*
X3474Y5520D01*
X3471Y5527D01*
X3466Y5533D01*
X3460Y5538D01*
X3453Y5541D01*
X3450Y5541D01*
D02*
G37*
G36*
X3637D02*
X3634Y5541D01*
X3627Y5538D01*
X3621Y5533D01*
X3616Y5527D01*
X3613Y5520D01*
X3613Y5517D01*
X3637D01*
Y5541D01*
D02*
G37*
G36*
X3647D02*
Y5517D01*
X3671D01*
X3671Y5520D01*
X3668Y5527D01*
X3663Y5533D01*
X3657Y5538D01*
X3649Y5541D01*
X3647Y5541D01*
D02*
G37*
G36*
X3243D02*
X3240Y5541D01*
X3233Y5538D01*
X3227Y5533D01*
X3222Y5527D01*
X3219Y5520D01*
X3219Y5517D01*
X3243D01*
Y5541D01*
D02*
G37*
G36*
X3253D02*
Y5517D01*
X3277D01*
X3277Y5520D01*
X3274Y5527D01*
X3269Y5533D01*
X3263Y5538D01*
X3256Y5541D01*
X3253Y5541D01*
D02*
G37*
G36*
X3440D02*
X3437Y5541D01*
X3430Y5538D01*
X3424Y5533D01*
X3419Y5527D01*
X3416Y5520D01*
X3416Y5517D01*
X3440D01*
Y5541D01*
D02*
G37*
G36*
X2982Y5704D02*
X2958D01*
Y5680D01*
X2960Y5680D01*
X2968Y5683D01*
X2974Y5688D01*
X2979Y5694D01*
X2982Y5701D01*
X2982Y5704D01*
D02*
G37*
G36*
X5704Y5749D02*
X5698Y5748D01*
X5688Y5744D01*
X5679Y5737D01*
X5673Y5728D01*
X5668Y5718D01*
X5668Y5712D01*
X5704D01*
Y5749D01*
D02*
G37*
G36*
X5714D02*
Y5712D01*
X5750D01*
X5749Y5718D01*
X5745Y5728D01*
X5738Y5737D01*
X5730Y5744D01*
X5719Y5748D01*
X5714Y5749D01*
D02*
G37*
G36*
X2160Y5704D02*
X2136D01*
X2137Y5701D01*
X2140Y5694D01*
X2144Y5688D01*
X2150Y5683D01*
X2158Y5680D01*
X2160Y5680D01*
Y5704D01*
D02*
G37*
G36*
X2194D02*
X2170D01*
Y5680D01*
X2173Y5680D01*
X2180Y5683D01*
X2186Y5688D01*
X2191Y5694D01*
X2194Y5701D01*
X2194Y5704D01*
D02*
G37*
G36*
X2948D02*
X2924D01*
X2924Y5701D01*
X2927Y5694D01*
X2932Y5688D01*
X2938Y5683D01*
X2945Y5680D01*
X2948Y5680D01*
Y5704D01*
D02*
G37*
G36*
X2170Y5738D02*
Y5714D01*
X2194D01*
X2194Y5716D01*
X2191Y5724D01*
X2186Y5730D01*
X2180Y5734D01*
X2173Y5737D01*
X2170Y5738D01*
D02*
G37*
G36*
X2948D02*
X2945Y5737D01*
X2938Y5734D01*
X2932Y5730D01*
X2927Y5724D01*
X2924Y5716D01*
X2924Y5714D01*
X2948D01*
Y5738D01*
D02*
G37*
G36*
X2958D02*
Y5714D01*
X2982D01*
X2982Y5716D01*
X2979Y5724D01*
X2974Y5730D01*
X2968Y5734D01*
X2960Y5737D01*
X2958Y5738D01*
D02*
G37*
G36*
X2354Y5750D02*
X2348Y5749D01*
X2338Y5745D01*
X2330Y5738D01*
X2323Y5730D01*
X2319Y5719D01*
X2318Y5714D01*
X2354D01*
Y5750D01*
D02*
G37*
G36*
X2364D02*
Y5714D01*
X2400D01*
X2399Y5719D01*
X2395Y5730D01*
X2389Y5738D01*
X2380Y5745D01*
X2370Y5749D01*
X2364Y5750D01*
D02*
G37*
G36*
X2160Y5738D02*
X2158Y5737D01*
X2150Y5734D01*
X2144Y5730D01*
X2140Y5724D01*
X2137Y5716D01*
X2136Y5714D01*
X2160D01*
Y5738D01*
D02*
G37*
G36*
X3893Y5748D02*
X3883Y5747D01*
X3873Y5743D01*
X3865Y5737D01*
X3859Y5729D01*
X3855Y5719D01*
X3854Y5709D01*
X3855Y5698D01*
X3859Y5689D01*
X3865Y5681D01*
X3867Y5679D01*
X3864Y5669D01*
X3853D01*
X3829Y5693D01*
X3832Y5698D01*
X3833Y5709D01*
X3832Y5719D01*
X3828Y5729D01*
X3821Y5737D01*
X3813Y5743D01*
X3804Y5747D01*
X3793Y5748D01*
X3783Y5747D01*
X3773Y5743D01*
X3765Y5737D01*
X3759Y5729D01*
X3755Y5719D01*
X3754Y5709D01*
X3755Y5698D01*
X3759Y5689D01*
X3765Y5681D01*
X3767Y5679D01*
X3764Y5669D01*
X3753D01*
X3729Y5693D01*
X3732Y5698D01*
X3733Y5709D01*
X3732Y5719D01*
X3728Y5729D01*
X3721Y5737D01*
X3713Y5743D01*
X3704Y5747D01*
X3693Y5748D01*
X3683Y5747D01*
X3673Y5743D01*
X3665Y5737D01*
X3659Y5729D01*
X3655Y5719D01*
X3654Y5709D01*
X3655Y5698D01*
X3659Y5689D01*
X3665Y5681D01*
X3667Y5679D01*
X3664Y5669D01*
X3653D01*
X3629Y5693D01*
X3632Y5698D01*
X3633Y5709D01*
X3632Y5719D01*
X3628Y5729D01*
X3621Y5737D01*
X3613Y5743D01*
X3604Y5747D01*
X3593Y5748D01*
X3583Y5747D01*
X3573Y5743D01*
X3565Y5737D01*
X3559Y5729D01*
X3555Y5719D01*
X3554Y5709D01*
X3555Y5698D01*
X3559Y5689D01*
X3565Y5681D01*
X3567Y5679D01*
X3564Y5669D01*
X3553D01*
X3529Y5693D01*
X3532Y5698D01*
X3533Y5709D01*
X3532Y5719D01*
X3528Y5729D01*
X3521Y5737D01*
X3513Y5743D01*
X3504Y5747D01*
X3493Y5748D01*
X3483Y5747D01*
X3473Y5743D01*
X3465Y5737D01*
X3459Y5729D01*
X3455Y5719D01*
X3454Y5709D01*
X3455Y5698D01*
X3459Y5689D01*
X3465Y5681D01*
X3467Y5679D01*
X3464Y5669D01*
X3453D01*
X3429Y5693D01*
X3432Y5698D01*
X3433Y5709D01*
X3432Y5719D01*
X3428Y5729D01*
X3421Y5737D01*
X3413Y5743D01*
X3404Y5747D01*
X3393Y5748D01*
X3383Y5747D01*
X3373Y5743D01*
X3365Y5737D01*
X3359Y5729D01*
X3355Y5719D01*
X3354Y5709D01*
X3355Y5698D01*
X3359Y5689D01*
X3365Y5681D01*
X3367Y5679D01*
X3364Y5669D01*
X3353D01*
X3329Y5693D01*
X3332Y5698D01*
X3333Y5709D01*
X3332Y5719D01*
X3328Y5729D01*
X3321Y5737D01*
X3313Y5743D01*
X3304Y5747D01*
X3293Y5748D01*
X3283Y5747D01*
X3273Y5743D01*
X3265Y5737D01*
X3259Y5729D01*
X3255Y5719D01*
X3254Y5709D01*
X3255Y5698D01*
X3259Y5689D01*
X3265Y5681D01*
X3267Y5679D01*
X3264Y5669D01*
X3253D01*
X3229Y5693D01*
X3232Y5698D01*
X3233Y5709D01*
X3232Y5719D01*
X3228Y5729D01*
X3221Y5737D01*
X3213Y5743D01*
X3204Y5747D01*
X3193Y5748D01*
X3183Y5747D01*
X3173Y5743D01*
X3165Y5737D01*
X3159Y5729D01*
X3155Y5719D01*
X3154Y5709D01*
X3155Y5698D01*
X3159Y5689D01*
X3165Y5681D01*
X3173Y5674D01*
X3183Y5670D01*
X3193Y5669D01*
X3204Y5670D01*
X3209Y5673D01*
X3237Y5645D01*
X3242Y5642D01*
X3247Y5641D01*
X3313D01*
X3329Y5625D01*
X3333Y5622D01*
X3339Y5621D01*
X3405D01*
X3421Y5605D01*
X3426Y5602D01*
X3431Y5601D01*
X3497D01*
X3513Y5586D01*
X3517Y5583D01*
X3523Y5582D01*
X3589D01*
X3605Y5566D01*
X3610Y5563D01*
X3615Y5562D01*
X3681D01*
X3697Y5546D01*
X3701Y5543D01*
X3707Y5542D01*
X3773D01*
X3789Y5526D01*
X3793Y5523D01*
X3799Y5522D01*
X3837D01*
X3860Y5499D01*
Y4926D01*
X3861Y4920D01*
X3864Y4916D01*
X3996Y4784D01*
X4001Y4781D01*
X4006Y4780D01*
X4164D01*
X4169Y4781D01*
X4174Y4784D01*
X4213Y4823D01*
X4787D01*
X4798Y4812D01*
Y4467D01*
X4793Y4463D01*
X4790Y4458D01*
X4789Y4453D01*
Y4122D01*
X4790Y4116D01*
X4793Y4112D01*
X4928Y3977D01*
X4927Y3970D01*
X4928Y3963D01*
X4931Y3956D01*
X4935Y3950D01*
X4941Y3946D01*
X4948Y3943D01*
X4955Y3942D01*
X4962Y3943D01*
X4969Y3946D01*
X4975Y3950D01*
X4979Y3956D01*
X4982Y3963D01*
X4983Y3970D01*
X4982Y3977D01*
X4979Y3984D01*
X4975Y3990D01*
X4969Y3994D01*
X4967Y3995D01*
Y4005D01*
X4969Y4006D01*
X4975Y4010D01*
X4979Y4016D01*
X4982Y4023D01*
X4983Y4030D01*
X4982Y4037D01*
X4979Y4044D01*
X4975Y4050D01*
X4969Y4054D01*
X4967Y4055D01*
Y4065D01*
X4969Y4066D01*
X4975Y4070D01*
X4979Y4076D01*
X4982Y4083D01*
X4983Y4090D01*
X4982Y4097D01*
X4979Y4104D01*
X4975Y4110D01*
X4969Y4114D01*
X4967Y4115D01*
Y4125D01*
X4969Y4126D01*
X4975Y4130D01*
X4979Y4136D01*
X4982Y4143D01*
X4983Y4150D01*
X4982Y4157D01*
X4979Y4164D01*
X4975Y4170D01*
X4969Y4174D01*
X4967Y4175D01*
Y4185D01*
X4969Y4186D01*
X4975Y4190D01*
X4979Y4196D01*
X4982Y4203D01*
X4983Y4210D01*
X4982Y4217D01*
X4979Y4224D01*
X4975Y4230D01*
X4969Y4234D01*
X4967Y4235D01*
Y4245D01*
X4969Y4246D01*
X4975Y4250D01*
X4979Y4256D01*
X4982Y4263D01*
X4983Y4270D01*
X4982Y4277D01*
X4979Y4284D01*
X4975Y4290D01*
X4969Y4294D01*
X4967Y4295D01*
Y4305D01*
X4969Y4306D01*
X4975Y4310D01*
X4979Y4316D01*
X4982Y4323D01*
X4983Y4330D01*
X4982Y4337D01*
X4979Y4344D01*
X4975Y4350D01*
X4969Y4354D01*
X4967Y4355D01*
Y4365D01*
X4969Y4366D01*
X4975Y4370D01*
X4979Y4376D01*
X4982Y4383D01*
X4983Y4390D01*
X4982Y4397D01*
X4979Y4404D01*
X4975Y4410D01*
X4969Y4414D01*
X4964Y4416D01*
Y4875D01*
X4963Y4880D01*
X4960Y4885D01*
X4860Y4985D01*
X4855Y4988D01*
X4850Y4989D01*
X4416D01*
X4414Y4991D01*
X4410Y4999D01*
X4412Y5003D01*
X4413Y5010D01*
X4412Y5017D01*
X4409Y5024D01*
X4405Y5030D01*
X4399Y5034D01*
X4397Y5035D01*
Y5045D01*
X4399Y5046D01*
X4405Y5050D01*
X4409Y5056D01*
X4412Y5063D01*
X4413Y5070D01*
X4412Y5077D01*
X4409Y5084D01*
X4405Y5090D01*
X4399Y5094D01*
X4397Y5095D01*
Y5105D01*
X4399Y5106D01*
X4405Y5110D01*
X4409Y5116D01*
X4412Y5123D01*
X4413Y5130D01*
X4412Y5137D01*
X4409Y5144D01*
X4405Y5150D01*
X4399Y5154D01*
X4392Y5157D01*
X4385Y5158D01*
X4378Y5157D01*
X4371Y5154D01*
X4365Y5150D01*
X4361Y5144D01*
X4358Y5137D01*
X4357Y5130D01*
X4358Y5123D01*
X4339Y5104D01*
X4118D01*
X4109Y5114D01*
X4104Y5117D01*
X4099Y5118D01*
X4090D01*
X4086Y5127D01*
X4093Y5133D01*
X4099Y5136D01*
X4105Y5140D01*
X4109Y5146D01*
X4112Y5153D01*
X4113Y5160D01*
X4112Y5167D01*
X4109Y5174D01*
X4105Y5180D01*
X4099Y5184D01*
X4092Y5187D01*
X4085Y5188D01*
X4078Y5187D01*
X4071Y5184D01*
X4065Y5180D01*
X4061Y5174D01*
X4058Y5167D01*
X4057Y5160D01*
X4058Y5153D01*
X4061Y5146D01*
X4063Y5143D01*
X4035Y5116D01*
X4026Y5119D01*
Y5563D01*
X4025Y5568D01*
X4022Y5573D01*
X3921Y5674D01*
X3921Y5681D01*
X3928Y5689D01*
X3932Y5698D01*
X3933Y5709D01*
X3932Y5719D01*
X3928Y5729D01*
X3921Y5737D01*
X3913Y5743D01*
X3904Y5747D01*
X3893Y5748D01*
D02*
G37*
G36*
X4474D02*
X4464Y5747D01*
X4455Y5743D01*
X4446Y5737D01*
X4440Y5729D01*
X4436Y5719D01*
X4435Y5709D01*
X4436Y5698D01*
X4440Y5689D01*
X4446Y5681D01*
X4455Y5674D01*
X4464Y5670D01*
X4474Y5669D01*
X4485Y5670D01*
X4494Y5674D01*
X4502Y5681D01*
X4509Y5689D01*
X4513Y5698D01*
X4514Y5709D01*
X4513Y5719D01*
X4509Y5729D01*
X4502Y5737D01*
X4494Y5743D01*
X4485Y5747D01*
X4474Y5748D01*
D02*
G37*
G36*
X4574D02*
X4564Y5747D01*
X4555Y5743D01*
X4546Y5737D01*
X4540Y5729D01*
X4536Y5719D01*
X4535Y5709D01*
X4536Y5698D01*
X4540Y5689D01*
X4546Y5681D01*
X4555Y5674D01*
X4564Y5670D01*
X4574Y5669D01*
X4585Y5670D01*
X4594Y5674D01*
X4602Y5681D01*
X4609Y5689D01*
X4613Y5698D01*
X4614Y5709D01*
X4613Y5719D01*
X4609Y5729D01*
X4602Y5737D01*
X4594Y5743D01*
X4585Y5747D01*
X4574Y5748D01*
D02*
G37*
G36*
X4674D02*
X4664Y5747D01*
X4655Y5743D01*
X4646Y5737D01*
X4640Y5729D01*
X4636Y5719D01*
X4635Y5709D01*
X4636Y5698D01*
X4640Y5689D01*
X4646Y5681D01*
X4655Y5674D01*
X4664Y5670D01*
X4674Y5669D01*
X4685Y5670D01*
X4694Y5674D01*
X4702Y5681D01*
X4709Y5689D01*
X4713Y5698D01*
X4714Y5709D01*
X4713Y5719D01*
X4709Y5729D01*
X4702Y5737D01*
X4694Y5743D01*
X4685Y5747D01*
X4674Y5748D01*
D02*
G37*
G36*
X4174D02*
X4164Y5747D01*
X4155Y5743D01*
X4146Y5737D01*
X4140Y5729D01*
X4136Y5719D01*
X4135Y5709D01*
X4136Y5698D01*
X4140Y5689D01*
X4146Y5681D01*
X4155Y5674D01*
X4164Y5670D01*
X4174Y5669D01*
X4185Y5670D01*
X4194Y5674D01*
X4202Y5681D01*
X4209Y5689D01*
X4213Y5698D01*
X4214Y5709D01*
X4213Y5719D01*
X4209Y5729D01*
X4202Y5737D01*
X4194Y5743D01*
X4185Y5747D01*
X4174Y5748D01*
D02*
G37*
G36*
X4274D02*
X4264Y5747D01*
X4255Y5743D01*
X4246Y5737D01*
X4240Y5729D01*
X4236Y5719D01*
X4235Y5709D01*
X4236Y5698D01*
X4240Y5689D01*
X4246Y5681D01*
X4255Y5674D01*
X4264Y5670D01*
X4274Y5669D01*
X4285Y5670D01*
X4294Y5674D01*
X4302Y5681D01*
X4309Y5689D01*
X4313Y5698D01*
X4314Y5709D01*
X4313Y5719D01*
X4309Y5729D01*
X4302Y5737D01*
X4294Y5743D01*
X4285Y5747D01*
X4274Y5748D01*
D02*
G37*
G36*
X4374D02*
X4364Y5747D01*
X4355Y5743D01*
X4346Y5737D01*
X4340Y5729D01*
X4336Y5719D01*
X4335Y5709D01*
X4336Y5698D01*
X4340Y5689D01*
X4346Y5681D01*
X4355Y5674D01*
X4364Y5670D01*
X4374Y5669D01*
X4385Y5670D01*
X4394Y5674D01*
X4402Y5681D01*
X4409Y5689D01*
X4413Y5698D01*
X4414Y5709D01*
X4413Y5719D01*
X4409Y5729D01*
X4402Y5737D01*
X4394Y5743D01*
X4385Y5747D01*
X4374Y5748D01*
D02*
G37*
G36*
X5074D02*
X5064Y5747D01*
X5055Y5743D01*
X5046Y5737D01*
X5040Y5729D01*
X5036Y5719D01*
X5035Y5709D01*
X5036Y5698D01*
X5040Y5689D01*
X5046Y5681D01*
X5055Y5674D01*
X5064Y5670D01*
X5074Y5669D01*
X5085Y5670D01*
X5094Y5674D01*
X5102Y5681D01*
X5109Y5689D01*
X5113Y5698D01*
X5114Y5709D01*
X5113Y5719D01*
X5109Y5729D01*
X5102Y5737D01*
X5094Y5743D01*
X5085Y5747D01*
X5074Y5748D01*
D02*
G37*
G36*
X5174D02*
X5164Y5747D01*
X5155Y5743D01*
X5146Y5737D01*
X5140Y5729D01*
X5136Y5719D01*
X5135Y5709D01*
X5136Y5698D01*
X5140Y5689D01*
X5146Y5681D01*
X5155Y5674D01*
X5164Y5670D01*
X5174Y5669D01*
X5185Y5670D01*
X5194Y5674D01*
X5202Y5681D01*
X5209Y5689D01*
X5213Y5698D01*
X5214Y5709D01*
X5213Y5719D01*
X5209Y5729D01*
X5202Y5737D01*
X5194Y5743D01*
X5185Y5747D01*
X5174Y5748D01*
D02*
G37*
G36*
X5274D02*
X5264Y5747D01*
X5255Y5743D01*
X5246Y5737D01*
X5240Y5729D01*
X5236Y5719D01*
X5235Y5709D01*
X5236Y5698D01*
X5240Y5689D01*
X5246Y5681D01*
X5255Y5674D01*
X5264Y5670D01*
X5274Y5669D01*
X5285Y5670D01*
X5294Y5674D01*
X5302Y5681D01*
X5309Y5689D01*
X5313Y5698D01*
X5314Y5709D01*
X5313Y5719D01*
X5309Y5729D01*
X5302Y5737D01*
X5294Y5743D01*
X5285Y5747D01*
X5274Y5748D01*
D02*
G37*
G36*
X4774D02*
X4764Y5747D01*
X4755Y5743D01*
X4746Y5737D01*
X4740Y5729D01*
X4736Y5719D01*
X4735Y5709D01*
X4736Y5698D01*
X4740Y5689D01*
X4746Y5681D01*
X4755Y5674D01*
X4764Y5670D01*
X4774Y5669D01*
X4785Y5670D01*
X4794Y5674D01*
X4802Y5681D01*
X4809Y5689D01*
X4813Y5698D01*
X4814Y5709D01*
X4813Y5719D01*
X4809Y5729D01*
X4802Y5737D01*
X4794Y5743D01*
X4785Y5747D01*
X4774Y5748D01*
D02*
G37*
G36*
X4874D02*
X4864Y5747D01*
X4855Y5743D01*
X4846Y5737D01*
X4840Y5729D01*
X4836Y5719D01*
X4835Y5709D01*
X4836Y5698D01*
X4840Y5689D01*
X4846Y5681D01*
X4855Y5674D01*
X4864Y5670D01*
X4874Y5669D01*
X4885Y5670D01*
X4894Y5674D01*
X4902Y5681D01*
X4909Y5689D01*
X4913Y5698D01*
X4914Y5709D01*
X4913Y5719D01*
X4909Y5729D01*
X4902Y5737D01*
X4894Y5743D01*
X4885Y5747D01*
X4874Y5748D01*
D02*
G37*
G36*
X4974D02*
X4964Y5747D01*
X4955Y5743D01*
X4946Y5737D01*
X4940Y5729D01*
X4936Y5719D01*
X4935Y5709D01*
X4936Y5698D01*
X4940Y5689D01*
X4946Y5681D01*
X4955Y5674D01*
X4964Y5670D01*
X4974Y5669D01*
X4985Y5670D01*
X4994Y5674D01*
X5002Y5681D01*
X5009Y5689D01*
X5013Y5698D01*
X5014Y5709D01*
X5013Y5719D01*
X5009Y5729D01*
X5002Y5737D01*
X4994Y5743D01*
X4985Y5747D01*
X4974Y5748D01*
D02*
G37*
G36*
X4480Y5489D02*
Y5465D01*
X4504D01*
X4504Y5468D01*
X4501Y5475D01*
X4496Y5481D01*
X4490Y5486D01*
X4483Y5489D01*
X4480Y5489D01*
D02*
G37*
G36*
X4570D02*
X4567Y5489D01*
X4560Y5486D01*
X4554Y5481D01*
X4549Y5475D01*
X4546Y5468D01*
X4546Y5465D01*
X4570D01*
Y5489D01*
D02*
G37*
G36*
X4580D02*
Y5465D01*
X4604D01*
X4604Y5468D01*
X4601Y5475D01*
X4596Y5481D01*
X4590Y5486D01*
X4583Y5489D01*
X4580Y5489D01*
D02*
G37*
G36*
X4370D02*
X4367Y5489D01*
X4360Y5486D01*
X4354Y5481D01*
X4349Y5475D01*
X4346Y5468D01*
X4346Y5465D01*
X4370D01*
Y5489D01*
D02*
G37*
G36*
X4380D02*
Y5465D01*
X4404D01*
X4404Y5468D01*
X4401Y5475D01*
X4396Y5481D01*
X4390Y5486D01*
X4383Y5489D01*
X4380Y5489D01*
D02*
G37*
G36*
X4470D02*
X4467Y5489D01*
X4460Y5486D01*
X4454Y5481D01*
X4449Y5475D01*
X4446Y5468D01*
X4446Y5465D01*
X4470D01*
Y5489D01*
D02*
G37*
G36*
X4780D02*
Y5465D01*
X4804D01*
X4804Y5468D01*
X4801Y5475D01*
X4796Y5481D01*
X4790Y5486D01*
X4783Y5489D01*
X4780Y5489D01*
D02*
G37*
G36*
X4870D02*
X4867Y5489D01*
X4860Y5486D01*
X4854Y5481D01*
X4849Y5475D01*
X4846Y5468D01*
X4846Y5465D01*
X4870D01*
Y5489D01*
D02*
G37*
G36*
X4880D02*
Y5465D01*
X4904D01*
X4904Y5468D01*
X4901Y5475D01*
X4896Y5481D01*
X4890Y5486D01*
X4883Y5489D01*
X4880Y5489D01*
D02*
G37*
G36*
X4670D02*
X4667Y5489D01*
X4660Y5486D01*
X4654Y5481D01*
X4649Y5475D01*
X4646Y5468D01*
X4646Y5465D01*
X4670D01*
Y5489D01*
D02*
G37*
G36*
X4680D02*
Y5465D01*
X4704D01*
X4704Y5468D01*
X4701Y5475D01*
X4696Y5481D01*
X4690Y5486D01*
X4683Y5489D01*
X4680Y5489D01*
D02*
G37*
G36*
X4770D02*
X4767Y5489D01*
X4760Y5486D01*
X4754Y5481D01*
X4749Y5475D01*
X4746Y5468D01*
X4746Y5465D01*
X4770D01*
Y5489D01*
D02*
G37*
G36*
X4280D02*
Y5465D01*
X4304D01*
X4304Y5468D01*
X4301Y5475D01*
X4296Y5481D01*
X4290Y5486D01*
X4283Y5489D01*
X4280Y5489D01*
D02*
G37*
G36*
X5070Y5455D02*
X5046D01*
X5046Y5452D01*
X5049Y5445D01*
X5054Y5439D01*
X5060Y5434D01*
X5067Y5431D01*
X5070Y5431D01*
Y5455D01*
D02*
G37*
G36*
X5104D02*
X5080D01*
Y5431D01*
X5083Y5431D01*
X5090Y5434D01*
X5096Y5439D01*
X5101Y5445D01*
X5104Y5452D01*
X5104Y5455D01*
D02*
G37*
G36*
X5170D02*
X5146D01*
X5146Y5452D01*
X5149Y5445D01*
X5154Y5439D01*
X5160Y5434D01*
X5167Y5431D01*
X5170Y5431D01*
Y5455D01*
D02*
G37*
G36*
X4904D02*
X4880D01*
Y5431D01*
X4883Y5431D01*
X4890Y5434D01*
X4896Y5439D01*
X4901Y5445D01*
X4904Y5452D01*
X4904Y5455D01*
D02*
G37*
G36*
X4970D02*
X4946D01*
X4946Y5452D01*
X4949Y5445D01*
X4954Y5439D01*
X4960Y5434D01*
X4967Y5431D01*
X4970Y5431D01*
Y5455D01*
D02*
G37*
G36*
X5004D02*
X4980D01*
Y5431D01*
X4983Y5431D01*
X4990Y5434D01*
X4996Y5439D01*
X5001Y5445D01*
X5004Y5452D01*
X5004Y5455D01*
D02*
G37*
G36*
X4170Y5489D02*
X4167Y5489D01*
X4160Y5486D01*
X4154Y5481D01*
X4149Y5475D01*
X4146Y5468D01*
X4146Y5465D01*
X4170D01*
Y5489D01*
D02*
G37*
G36*
X4180D02*
Y5465D01*
X4204D01*
X4204Y5468D01*
X4201Y5475D01*
X4196Y5481D01*
X4190Y5486D01*
X4183Y5489D01*
X4180Y5489D01*
D02*
G37*
G36*
X4270D02*
X4267Y5489D01*
X4260Y5486D01*
X4254Y5481D01*
X4249Y5475D01*
X4246Y5468D01*
X4246Y5465D01*
X4270D01*
Y5489D01*
D02*
G37*
G36*
X5204Y5455D02*
X5180D01*
Y5431D01*
X5183Y5431D01*
X5190Y5434D01*
X5196Y5439D01*
X5201Y5445D01*
X5204Y5452D01*
X5204Y5455D01*
D02*
G37*
G36*
X5270D02*
X5246D01*
X5246Y5452D01*
X5249Y5445D01*
X5254Y5439D01*
X5260Y5434D01*
X5267Y5431D01*
X5270Y5431D01*
Y5455D01*
D02*
G37*
G36*
X5304D02*
X5280D01*
Y5431D01*
X5283Y5431D01*
X5290Y5434D01*
X5296Y5439D01*
X5301Y5445D01*
X5304Y5452D01*
X5304Y5455D01*
D02*
G37*
G36*
X3080Y5507D02*
X3056D01*
Y5483D01*
X3059Y5483D01*
X3066Y5486D01*
X3072Y5491D01*
X3077Y5497D01*
X3080Y5504D01*
X3080Y5507D01*
D02*
G37*
G36*
X3243D02*
X3219D01*
X3219Y5504D01*
X3222Y5497D01*
X3227Y5491D01*
X3233Y5486D01*
X3240Y5483D01*
X3243Y5483D01*
Y5507D01*
D02*
G37*
G36*
X3277D02*
X3253D01*
Y5483D01*
X3256Y5483D01*
X3263Y5486D01*
X3269Y5491D01*
X3274Y5497D01*
X3277Y5504D01*
X3277Y5507D01*
D02*
G37*
G36*
X2849D02*
X2825D01*
X2826Y5504D01*
X2829Y5497D01*
X2833Y5491D01*
X2839Y5486D01*
X2847Y5483D01*
X2849Y5483D01*
Y5507D01*
D02*
G37*
G36*
X2883D02*
X2859D01*
Y5483D01*
X2862Y5483D01*
X2869Y5486D01*
X2875Y5491D01*
X2880Y5497D01*
X2883Y5504D01*
X2883Y5507D01*
D02*
G37*
G36*
X3046D02*
X3022D01*
X3022Y5504D01*
X3025Y5497D01*
X3030Y5491D01*
X3036Y5486D01*
X3043Y5483D01*
X3046Y5483D01*
Y5507D01*
D02*
G37*
G36*
X3671D02*
X3647D01*
Y5483D01*
X3649Y5483D01*
X3657Y5486D01*
X3663Y5491D01*
X3668Y5497D01*
X3671Y5504D01*
X3671Y5507D01*
D02*
G37*
G36*
X5475Y5524D02*
X5472Y5523D01*
X5465Y5520D01*
X5459Y5515D01*
X5454Y5509D01*
X5451Y5502D01*
X5451Y5499D01*
X5475D01*
Y5524D01*
D02*
G37*
G36*
X5485D02*
Y5499D01*
X5509D01*
X5509Y5502D01*
X5506Y5509D01*
X5501Y5515D01*
X5495Y5520D01*
X5488Y5523D01*
X5485Y5524D01*
D02*
G37*
G36*
X3440Y5507D02*
X3416D01*
X3416Y5504D01*
X3419Y5497D01*
X3424Y5491D01*
X3430Y5486D01*
X3437Y5483D01*
X3440Y5483D01*
Y5507D01*
D02*
G37*
G36*
X3474D02*
X3450D01*
Y5483D01*
X3453Y5483D01*
X3460Y5486D01*
X3466Y5491D01*
X3471Y5497D01*
X3474Y5504D01*
X3474Y5507D01*
D02*
G37*
G36*
X3637D02*
X3613D01*
X3613Y5504D01*
X3616Y5497D01*
X3621Y5491D01*
X3627Y5486D01*
X3634Y5483D01*
X3637Y5483D01*
Y5507D01*
D02*
G37*
G36*
X2293D02*
X2269D01*
Y5483D01*
X2271Y5483D01*
X2279Y5486D01*
X2285Y5491D01*
X2290Y5497D01*
X2293Y5504D01*
X2293Y5507D01*
D02*
G37*
G36*
X5080Y5489D02*
Y5465D01*
X5104D01*
X5104Y5468D01*
X5101Y5475D01*
X5096Y5481D01*
X5090Y5486D01*
X5083Y5489D01*
X5080Y5489D01*
D02*
G37*
G36*
X5170D02*
X5167Y5489D01*
X5160Y5486D01*
X5154Y5481D01*
X5149Y5475D01*
X5146Y5468D01*
X5146Y5465D01*
X5170D01*
Y5489D01*
D02*
G37*
G36*
X5180D02*
Y5465D01*
X5204D01*
X5204Y5468D01*
X5201Y5475D01*
X5196Y5481D01*
X5190Y5486D01*
X5183Y5489D01*
X5180Y5489D01*
D02*
G37*
G36*
X4970D02*
X4967Y5489D01*
X4960Y5486D01*
X4954Y5481D01*
X4949Y5475D01*
X4946Y5468D01*
X4946Y5465D01*
X4970D01*
Y5489D01*
D02*
G37*
G36*
X4980D02*
Y5465D01*
X5004D01*
X5004Y5468D01*
X5001Y5475D01*
X4996Y5481D01*
X4990Y5486D01*
X4983Y5489D01*
X4980Y5489D01*
D02*
G37*
G36*
X5070D02*
X5067Y5489D01*
X5060Y5486D01*
X5054Y5481D01*
X5049Y5475D01*
X5046Y5468D01*
X5046Y5465D01*
X5070D01*
Y5489D01*
D02*
G37*
G36*
X5509Y5489D02*
X5485D01*
Y5465D01*
X5488Y5466D01*
X5495Y5469D01*
X5501Y5473D01*
X5506Y5479D01*
X5509Y5487D01*
X5509Y5489D01*
D02*
G37*
G36*
X5709Y5547D02*
X5698Y5546D01*
X5689Y5542D01*
X5681Y5536D01*
X5674Y5527D01*
X5670Y5518D01*
X5669Y5507D01*
X5670Y5497D01*
X5674Y5488D01*
X5681Y5479D01*
X5689Y5473D01*
X5698Y5469D01*
X5709Y5468D01*
X5719Y5469D01*
X5729Y5473D01*
X5737Y5479D01*
X5743Y5488D01*
X5747Y5497D01*
X5748Y5507D01*
X5747Y5518D01*
X5743Y5527D01*
X5737Y5536D01*
X5729Y5542D01*
X5719Y5546D01*
X5709Y5547D01*
D02*
G37*
G36*
X2259Y5507D02*
X2235D01*
X2235Y5504D01*
X2238Y5497D01*
X2243Y5491D01*
X2249Y5486D01*
X2256Y5483D01*
X2259Y5483D01*
Y5507D01*
D02*
G37*
G36*
X5270Y5489D02*
X5267Y5489D01*
X5260Y5486D01*
X5254Y5481D01*
X5249Y5475D01*
X5246Y5468D01*
X5246Y5465D01*
X5270D01*
Y5489D01*
D02*
G37*
G36*
X5280D02*
Y5465D01*
X5304D01*
X5304Y5468D01*
X5301Y5475D01*
X5296Y5481D01*
X5290Y5486D01*
X5283Y5489D01*
X5280Y5489D01*
D02*
G37*
G36*
X5475Y5489D02*
X5451D01*
X5451Y5487D01*
X5454Y5479D01*
X5459Y5473D01*
X5465Y5469D01*
X5472Y5466D01*
X5475Y5465D01*
Y5489D01*
D02*
G37*
G36*
X5113Y4916D02*
X5089D01*
X5089Y4914D01*
X5092Y4906D01*
X5097Y4900D01*
X5103Y4895D01*
X5110Y4892D01*
X5113Y4892D01*
Y4916D01*
D02*
G37*
G36*
X4031Y4360D02*
X4028Y4359D01*
X4021Y4357D01*
X4014Y4352D01*
X4010Y4346D01*
X4007Y4338D01*
X4006Y4336D01*
X4031D01*
Y4360D01*
D02*
G37*
G36*
X4621D02*
X4618Y4359D01*
X4611Y4357D01*
X4605Y4352D01*
X4600Y4346D01*
X4597Y4338D01*
X4597Y4336D01*
X4621D01*
Y4360D01*
D02*
G37*
G36*
X4631D02*
Y4336D01*
X4655D01*
X4655Y4338D01*
X4652Y4346D01*
X4647Y4352D01*
X4641Y4357D01*
X4634Y4359D01*
X4631Y4360D01*
D02*
G37*
G36*
X3253D02*
Y4336D01*
X3277D01*
X3277Y4338D01*
X3274Y4346D01*
X3269Y4352D01*
X3263Y4357D01*
X3256Y4359D01*
X3253Y4360D01*
D02*
G37*
G36*
X3637D02*
X3634Y4359D01*
X3627Y4357D01*
X3621Y4352D01*
X3616Y4346D01*
X3613Y4338D01*
X3613Y4336D01*
X3637D01*
Y4360D01*
D02*
G37*
G36*
X3647D02*
Y4336D01*
X3671D01*
X3671Y4338D01*
X3668Y4346D01*
X3663Y4352D01*
X3657Y4357D01*
X3649Y4359D01*
X3647Y4360D01*
D02*
G37*
G36*
X4274Y4360D02*
X4250D01*
Y4336D01*
X4253Y4336D01*
X4260Y4339D01*
X4266Y4344D01*
X4271Y4350D01*
X4274Y4357D01*
X4274Y4360D01*
D02*
G37*
G36*
X2160Y4373D02*
X2124D01*
X2125Y4367D01*
X2129Y4357D01*
X2136Y4348D01*
X2145Y4341D01*
X2155Y4337D01*
X2160Y4337D01*
Y4373D01*
D02*
G37*
G36*
X2206D02*
X2170D01*
Y4337D01*
X2176Y4337D01*
X2186Y4341D01*
X2195Y4348D01*
X2201Y4357D01*
X2206Y4367D01*
X2206Y4373D01*
D02*
G37*
G36*
X5212Y4360D02*
X5209Y4359D01*
X5202Y4357D01*
X5195Y4352D01*
X5191Y4346D01*
X5188Y4338D01*
X5187Y4336D01*
X5212D01*
Y4360D01*
D02*
G37*
G36*
X5221D02*
Y4336D01*
X5246D01*
X5245Y4338D01*
X5242Y4346D01*
X5238Y4352D01*
X5231Y4357D01*
X5224Y4359D01*
X5221Y4360D01*
D02*
G37*
G36*
X4240Y4360D02*
X4216D01*
X4216Y4357D01*
X4219Y4350D01*
X4224Y4344D01*
X4230Y4339D01*
X4237Y4336D01*
X4240Y4336D01*
Y4360D01*
D02*
G37*
G36*
X3056Y4360D02*
Y4336D01*
X3080D01*
X3080Y4338D01*
X3077Y4346D01*
X3072Y4352D01*
X3066Y4357D01*
X3059Y4359D01*
X3056Y4360D01*
D02*
G37*
G36*
X5704Y4371D02*
X5698Y4370D01*
X5688Y4366D01*
X5679Y4359D01*
X5673Y4350D01*
X5668Y4340D01*
X5668Y4334D01*
X5704D01*
Y4371D01*
D02*
G37*
G36*
X5714D02*
Y4334D01*
X5750D01*
X5749Y4340D01*
X5745Y4350D01*
X5738Y4359D01*
X5730Y4366D01*
X5719Y4370D01*
X5714Y4371D01*
D02*
G37*
G36*
X2259Y4360D02*
X2256Y4359D01*
X2249Y4357D01*
X2243Y4352D01*
X2238Y4346D01*
X2235Y4338D01*
X2235Y4336D01*
X2259D01*
Y4360D01*
D02*
G37*
G36*
X5212Y4326D02*
X5187D01*
X5188Y4323D01*
X5191Y4316D01*
X5195Y4310D01*
X5202Y4305D01*
X5209Y4302D01*
X5212Y4302D01*
Y4326D01*
D02*
G37*
G36*
X5246D02*
X5221D01*
Y4302D01*
X5224Y4302D01*
X5231Y4305D01*
X5238Y4310D01*
X5242Y4316D01*
X5245Y4323D01*
X5246Y4326D01*
D02*
G37*
G36*
X2915Y4330D02*
X2905Y4328D01*
X2895Y4324D01*
X2893Y4323D01*
X2888Y4326D01*
X2859D01*
Y4302D01*
X2862Y4302D01*
X2868Y4304D01*
X2872Y4302D01*
X2876Y4298D01*
X2875Y4290D01*
X2877Y4280D01*
X2881Y4270D01*
X2887Y4262D01*
X2895Y4256D01*
X2905Y4252D01*
X2915Y4250D01*
X2925Y4252D01*
X2935Y4256D01*
X2943Y4262D01*
X2949Y4270D01*
X2953Y4280D01*
X2955Y4290D01*
X2953Y4300D01*
X2949Y4310D01*
X2943Y4318D01*
X2935Y4324D01*
X2925Y4328D01*
X2915Y4330D01*
D02*
G37*
G36*
X2849Y4360D02*
X2847Y4359D01*
X2839Y4357D01*
X2833Y4352D01*
X2829Y4346D01*
X2826Y4338D01*
X2825Y4336D01*
X2849D01*
Y4360D01*
D02*
G37*
G36*
X2859D02*
Y4336D01*
X2883D01*
X2883Y4338D01*
X2880Y4346D01*
X2875Y4352D01*
X2869Y4357D01*
X2862Y4359D01*
X2859Y4360D01*
D02*
G37*
G36*
X3046D02*
X3043Y4359D01*
X3036Y4357D01*
X3030Y4352D01*
X3025Y4346D01*
X3022Y4338D01*
X3022Y4336D01*
X3046D01*
Y4360D01*
D02*
G37*
G36*
X2269D02*
Y4336D01*
X2293D01*
X2293Y4338D01*
X2290Y4346D01*
X2285Y4352D01*
X2279Y4357D01*
X2271Y4359D01*
X2269Y4360D01*
D02*
G37*
G36*
X2456D02*
X2453Y4359D01*
X2446Y4357D01*
X2440Y4352D01*
X2435Y4346D01*
X2432Y4338D01*
X2431Y4336D01*
X2456D01*
Y4360D01*
D02*
G37*
G36*
X2466D02*
Y4336D01*
X2490D01*
X2489Y4338D01*
X2486Y4346D01*
X2482Y4352D01*
X2476Y4357D01*
X2468Y4359D01*
X2466Y4360D01*
D02*
G37*
G36*
X2751Y4523D02*
X2727D01*
X2727Y4520D01*
X2730Y4513D01*
X2735Y4506D01*
X2741Y4502D01*
X2748Y4499D01*
X2751Y4498D01*
Y4523D01*
D02*
G37*
G36*
X2785D02*
X2761D01*
Y4498D01*
X2764Y4499D01*
X2771Y4502D01*
X2777Y4506D01*
X2782Y4513D01*
X2785Y4520D01*
X2785Y4523D01*
D02*
G37*
G36*
X3735D02*
X3711D01*
X3711Y4520D01*
X3714Y4513D01*
X3719Y4506D01*
X3725Y4502D01*
X3732Y4499D01*
X3735Y4498D01*
Y4523D01*
D02*
G37*
G36*
X2391D02*
X2367D01*
Y4498D01*
X2370Y4499D01*
X2377Y4502D01*
X2383Y4506D01*
X2388Y4513D01*
X2391Y4520D01*
X2391Y4523D01*
D02*
G37*
G36*
X2554D02*
X2530D01*
X2530Y4520D01*
X2533Y4513D01*
X2538Y4506D01*
X2544Y4502D01*
X2551Y4499D01*
X2554Y4498D01*
Y4523D01*
D02*
G37*
G36*
X2588D02*
X2564D01*
Y4498D01*
X2567Y4499D01*
X2574Y4502D01*
X2580Y4506D01*
X2585Y4513D01*
X2588Y4520D01*
X2588Y4523D01*
D02*
G37*
G36*
X5310D02*
X5286D01*
X5286Y4520D01*
X5289Y4513D01*
X5294Y4506D01*
X5300Y4502D01*
X5307Y4499D01*
X5310Y4498D01*
Y4523D01*
D02*
G37*
G36*
X5344D02*
X5320D01*
Y4498D01*
X5323Y4499D01*
X5330Y4502D01*
X5336Y4506D01*
X5341Y4513D01*
X5344Y4520D01*
X5344Y4523D01*
D02*
G37*
G36*
X5507D02*
X5483D01*
X5483Y4520D01*
X5486Y4513D01*
X5491Y4506D01*
X5497Y4502D01*
X5504Y4499D01*
X5507Y4498D01*
Y4523D01*
D02*
G37*
G36*
X3769D02*
X3745D01*
Y4498D01*
X3748Y4499D01*
X3755Y4502D01*
X3761Y4506D01*
X3766Y4513D01*
X3769Y4520D01*
X3769Y4523D01*
D02*
G37*
G36*
X5113D02*
X5089D01*
X5089Y4520D01*
X5092Y4513D01*
X5097Y4506D01*
X5103Y4502D01*
X5110Y4499D01*
X5113Y4498D01*
Y4523D01*
D02*
G37*
G36*
X5147D02*
X5123D01*
Y4498D01*
X5126Y4499D01*
X5133Y4502D01*
X5139Y4506D01*
X5144Y4513D01*
X5147Y4520D01*
X5147Y4523D01*
D02*
G37*
G36*
X2357D02*
X2333D01*
X2333Y4520D01*
X2336Y4513D01*
X2341Y4506D01*
X2347Y4502D01*
X2354Y4499D01*
X2357Y4498D01*
Y4523D01*
D02*
G37*
G36*
X2170Y4419D02*
Y4382D01*
X2206D01*
X2206Y4388D01*
X2201Y4398D01*
X2195Y4407D01*
X2186Y4414D01*
X2176Y4418D01*
X2170Y4419D01*
D02*
G37*
G36*
X3950Y4445D02*
X3926D01*
X3926Y4442D01*
X3929Y4435D01*
X3934Y4429D01*
X3940Y4424D01*
X3947Y4421D01*
X3950Y4421D01*
Y4445D01*
D02*
G37*
G36*
X3984D02*
X3960D01*
Y4421D01*
X3963Y4421D01*
X3970Y4424D01*
X3976Y4429D01*
X3981Y4435D01*
X3984Y4442D01*
X3984Y4445D01*
D02*
G37*
G36*
X4240Y4394D02*
X4237Y4394D01*
X4230Y4391D01*
X4224Y4386D01*
X4219Y4380D01*
X4216Y4373D01*
X4216Y4370D01*
X4240D01*
Y4394D01*
D02*
G37*
G36*
X4250D02*
Y4370D01*
X4274D01*
X4274Y4373D01*
X4271Y4380D01*
X4266Y4386D01*
X4260Y4391D01*
X4253Y4394D01*
X4250Y4394D01*
D02*
G37*
G36*
X2160Y4419D02*
X2155Y4418D01*
X2145Y4414D01*
X2136Y4407D01*
X2129Y4398D01*
X2125Y4388D01*
X2124Y4382D01*
X2160D01*
Y4419D01*
D02*
G37*
G36*
X3960Y4479D02*
Y4455D01*
X3984D01*
X3984Y4458D01*
X3981Y4465D01*
X3976Y4471D01*
X3970Y4476D01*
X3963Y4479D01*
X3960Y4479D01*
D02*
G37*
G36*
X2160Y4519D02*
X2155Y4518D01*
X2145Y4514D01*
X2136Y4507D01*
X2129Y4498D01*
X2125Y4488D01*
X2124Y4482D01*
X2160D01*
Y4519D01*
D02*
G37*
G36*
X2170D02*
Y4482D01*
X2206D01*
X2206Y4488D01*
X2201Y4498D01*
X2195Y4507D01*
X2186Y4514D01*
X2176Y4518D01*
X2170Y4519D01*
D02*
G37*
G36*
X2160Y4473D02*
X2124D01*
X2125Y4467D01*
X2129Y4457D01*
X2136Y4448D01*
X2145Y4441D01*
X2155Y4437D01*
X2160Y4437D01*
Y4473D01*
D02*
G37*
G36*
X2206D02*
X2170D01*
Y4437D01*
X2176Y4437D01*
X2186Y4441D01*
X2195Y4448D01*
X2201Y4457D01*
X2206Y4467D01*
X2206Y4473D01*
D02*
G37*
G36*
X3950Y4479D02*
X3947Y4479D01*
X3940Y4476D01*
X3934Y4471D01*
X3929Y4465D01*
X3926Y4458D01*
X3926Y4455D01*
X3950D01*
Y4479D01*
D02*
G37*
G36*
X5310Y4129D02*
X5286D01*
X5286Y4126D01*
X5289Y4119D01*
X5294Y4113D01*
X5300Y4108D01*
X5307Y4105D01*
X5310Y4105D01*
Y4129D01*
D02*
G37*
G36*
X5344D02*
X5320D01*
Y4105D01*
X5323Y4105D01*
X5330Y4108D01*
X5336Y4113D01*
X5341Y4119D01*
X5344Y4126D01*
X5344Y4129D01*
D02*
G37*
G36*
X5475Y4147D02*
X5472Y4147D01*
X5465Y4144D01*
X5459Y4139D01*
X5454Y4133D01*
X5451Y4126D01*
X5451Y4123D01*
X5475D01*
Y4147D01*
D02*
G37*
G36*
X2588Y4129D02*
X2564D01*
Y4105D01*
X2567Y4105D01*
X2574Y4108D01*
X2580Y4113D01*
X2585Y4119D01*
X2588Y4126D01*
X2588Y4129D01*
D02*
G37*
G36*
X2751D02*
X2727D01*
X2727Y4126D01*
X2730Y4119D01*
X2735Y4113D01*
X2741Y4108D01*
X2748Y4105D01*
X2751Y4105D01*
Y4129D01*
D02*
G37*
G36*
X2785D02*
X2761D01*
Y4105D01*
X2764Y4105D01*
X2771Y4108D01*
X2777Y4113D01*
X2782Y4119D01*
X2785Y4126D01*
X2785Y4129D01*
D02*
G37*
G36*
X2367Y4163D02*
Y4139D01*
X2391D01*
X2391Y4142D01*
X2388Y4149D01*
X2383Y4155D01*
X2377Y4160D01*
X2370Y4163D01*
X2367Y4163D01*
D02*
G37*
G36*
X2554D02*
X2551Y4163D01*
X2544Y4160D01*
X2538Y4155D01*
X2533Y4149D01*
X2530Y4142D01*
X2530Y4139D01*
X2554D01*
Y4163D01*
D02*
G37*
G36*
X2564D02*
Y4139D01*
X2588D01*
X2588Y4142D01*
X2585Y4149D01*
X2580Y4155D01*
X2574Y4160D01*
X2567Y4163D01*
X2564Y4163D01*
D02*
G37*
G36*
X5485Y4147D02*
Y4123D01*
X5509D01*
X5509Y4126D01*
X5506Y4133D01*
X5501Y4139D01*
X5495Y4144D01*
X5488Y4147D01*
X5485Y4147D01*
D02*
G37*
G36*
X2165Y4217D02*
X2155Y4216D01*
X2145Y4212D01*
X2137Y4206D01*
X2131Y4197D01*
X2127Y4188D01*
X2126Y4178D01*
X2127Y4167D01*
X2131Y4158D01*
X2137Y4149D01*
X2145Y4143D01*
X2155Y4139D01*
X2165Y4138D01*
X2176Y4139D01*
X2185Y4143D01*
X2193Y4149D01*
X2200Y4158D01*
X2204Y4167D01*
X2205Y4178D01*
X2204Y4188D01*
X2200Y4197D01*
X2193Y4206D01*
X2185Y4212D01*
X2176Y4216D01*
X2165Y4217D01*
D02*
G37*
G36*
X2357Y4163D02*
X2354Y4163D01*
X2347Y4160D01*
X2341Y4155D01*
X2336Y4149D01*
X2333Y4142D01*
X2333Y4139D01*
X2357D01*
Y4163D01*
D02*
G37*
G36*
X2554Y4129D02*
X2530D01*
X2530Y4126D01*
X2533Y4119D01*
X2538Y4113D01*
X2544Y4108D01*
X2551Y4105D01*
X2554Y4105D01*
Y4129D01*
D02*
G37*
G36*
X5485Y4007D02*
Y3983D01*
X5509D01*
X5509Y3986D01*
X5506Y3993D01*
X5501Y3999D01*
X5495Y4004D01*
X5488Y4007D01*
X5485Y4007D01*
D02*
G37*
G36*
X5709Y4069D02*
X5698Y4068D01*
X5689Y4064D01*
X5681Y4058D01*
X5674Y4049D01*
X5670Y4040D01*
X5669Y4030D01*
X5670Y4019D01*
X5674Y4010D01*
X5681Y4001D01*
X5689Y3995D01*
X5698Y3991D01*
X5709Y3990D01*
X5719Y3991D01*
X5729Y3995D01*
X5737Y4001D01*
X5743Y4010D01*
X5747Y4019D01*
X5748Y4030D01*
X5747Y4040D01*
X5743Y4049D01*
X5737Y4058D01*
X5729Y4064D01*
X5719Y4068D01*
X5709Y4069D01*
D02*
G37*
G36*
X2165Y4117D02*
X2155Y4116D01*
X2145Y4112D01*
X2137Y4106D01*
X2131Y4097D01*
X2127Y4088D01*
X2126Y4078D01*
X2127Y4067D01*
X2131Y4058D01*
X2137Y4049D01*
X2145Y4043D01*
X2155Y4039D01*
X2165Y4038D01*
X2176Y4039D01*
X2185Y4043D01*
X2193Y4049D01*
X2200Y4058D01*
X2204Y4067D01*
X2205Y4078D01*
X2204Y4088D01*
X2200Y4097D01*
X2193Y4106D01*
X2185Y4112D01*
X2176Y4116D01*
X2165Y4117D01*
D02*
G37*
G36*
X5509Y3973D02*
X5485D01*
Y3949D01*
X5488Y3949D01*
X5495Y3952D01*
X5501Y3957D01*
X5506Y3963D01*
X5509Y3970D01*
X5509Y3973D01*
D02*
G37*
G36*
X2915Y4030D02*
X2905Y4028D01*
X2895Y4024D01*
X2887Y4018D01*
X2881Y4010D01*
X2877Y4000D01*
X2875Y3990D01*
X2877Y3980D01*
X2881Y3970D01*
X2887Y3962D01*
X2895Y3956D01*
X2905Y3952D01*
X2915Y3950D01*
X2925Y3952D01*
X2935Y3956D01*
X2943Y3962D01*
X2949Y3970D01*
X2953Y3980D01*
X2955Y3990D01*
X2953Y4000D01*
X2949Y4010D01*
X2943Y4018D01*
X2935Y4024D01*
X2925Y4028D01*
X2915Y4030D01*
D02*
G37*
G36*
X5475Y4007D02*
X5472Y4007D01*
X5465Y4004D01*
X5459Y3999D01*
X5454Y3993D01*
X5451Y3986D01*
X5451Y3983D01*
X5475D01*
Y4007D01*
D02*
G37*
G36*
X5709Y4169D02*
X5698Y4168D01*
X5689Y4164D01*
X5681Y4158D01*
X5674Y4149D01*
X5670Y4140D01*
X5669Y4130D01*
X5670Y4119D01*
X5674Y4110D01*
X5681Y4101D01*
X5689Y4095D01*
X5698Y4091D01*
X5709Y4090D01*
X5719Y4091D01*
X5729Y4095D01*
X5737Y4101D01*
X5743Y4110D01*
X5747Y4119D01*
X5748Y4130D01*
X5747Y4140D01*
X5743Y4149D01*
X5737Y4158D01*
X5729Y4164D01*
X5719Y4168D01*
X5709Y4169D01*
D02*
G37*
G36*
X2357Y4129D02*
X2333D01*
X2333Y4126D01*
X2336Y4119D01*
X2341Y4113D01*
X2347Y4108D01*
X2354Y4105D01*
X2357Y4105D01*
Y4129D01*
D02*
G37*
G36*
X2391D02*
X2367D01*
Y4105D01*
X2370Y4105D01*
X2377Y4108D01*
X2383Y4113D01*
X2388Y4119D01*
X2391Y4126D01*
X2391Y4129D01*
D02*
G37*
G36*
X2915Y4130D02*
X2905Y4128D01*
X2895Y4124D01*
X2887Y4118D01*
X2881Y4110D01*
X2877Y4100D01*
X2875Y4090D01*
X2877Y4080D01*
X2881Y4070D01*
X2887Y4062D01*
X2895Y4056D01*
X2905Y4052D01*
X2915Y4050D01*
X2925Y4052D01*
X2935Y4056D01*
X2943Y4062D01*
X2949Y4070D01*
X2953Y4080D01*
X2955Y4090D01*
X2953Y4100D01*
X2949Y4110D01*
X2943Y4118D01*
X2935Y4124D01*
X2925Y4128D01*
X2915Y4130D01*
D02*
G37*
G36*
X5475Y4113D02*
X5451D01*
X5451Y4110D01*
X5454Y4103D01*
X5459Y4097D01*
X5465Y4092D01*
X5472Y4089D01*
X5475Y4089D01*
Y4113D01*
D02*
G37*
G36*
X5509D02*
X5485D01*
Y4089D01*
X5488Y4089D01*
X5495Y4092D01*
X5501Y4097D01*
X5506Y4103D01*
X5509Y4110D01*
X5509Y4113D01*
D02*
G37*
G36*
X2490Y4326D02*
X2466D01*
Y4302D01*
X2468Y4302D01*
X2476Y4305D01*
X2482Y4310D01*
X2486Y4316D01*
X2489Y4323D01*
X2490Y4326D01*
D02*
G37*
G36*
X2849D02*
X2825D01*
X2826Y4323D01*
X2829Y4316D01*
X2833Y4310D01*
X2839Y4305D01*
X2847Y4302D01*
X2849Y4302D01*
Y4326D01*
D02*
G37*
G36*
X3046D02*
X3022D01*
X3022Y4323D01*
X3025Y4316D01*
X3030Y4310D01*
X3036Y4305D01*
X3043Y4302D01*
X3046Y4302D01*
Y4326D01*
D02*
G37*
G36*
X2259D02*
X2235D01*
X2235Y4323D01*
X2238Y4316D01*
X2243Y4310D01*
X2249Y4305D01*
X2256Y4302D01*
X2259Y4302D01*
Y4326D01*
D02*
G37*
G36*
X2293D02*
X2269D01*
Y4302D01*
X2271Y4302D01*
X2279Y4305D01*
X2285Y4310D01*
X2290Y4316D01*
X2293Y4323D01*
X2293Y4326D01*
D02*
G37*
G36*
X2456D02*
X2431D01*
X2432Y4323D01*
X2435Y4316D01*
X2440Y4310D01*
X2446Y4305D01*
X2453Y4302D01*
X2456Y4302D01*
Y4326D01*
D02*
G37*
G36*
X4031D02*
X4006D01*
X4007Y4323D01*
X4010Y4316D01*
X4014Y4310D01*
X4021Y4305D01*
X4028Y4302D01*
X4031Y4302D01*
Y4326D01*
D02*
G37*
G36*
X4621D02*
X4597D01*
X4597Y4323D01*
X4600Y4316D01*
X4605Y4310D01*
X4611Y4305D01*
X4618Y4302D01*
X4621Y4302D01*
Y4326D01*
D02*
G37*
G36*
X4655D02*
X4631D01*
Y4302D01*
X4634Y4302D01*
X4641Y4305D01*
X4647Y4310D01*
X4652Y4316D01*
X4655Y4323D01*
X4655Y4326D01*
D02*
G37*
G36*
X3080D02*
X3056D01*
Y4302D01*
X3059Y4302D01*
X3066Y4305D01*
X3072Y4310D01*
X3077Y4316D01*
X3080Y4323D01*
X3080Y4326D01*
D02*
G37*
G36*
X3637D02*
X3613D01*
X3613Y4323D01*
X3616Y4316D01*
X3621Y4310D01*
X3627Y4305D01*
X3634Y4302D01*
X3637Y4302D01*
Y4326D01*
D02*
G37*
G36*
X3671D02*
X3647D01*
Y4302D01*
X3649Y4302D01*
X3657Y4305D01*
X3663Y4310D01*
X3668Y4316D01*
X3671Y4323D01*
X3671Y4326D01*
D02*
G37*
G36*
X5750Y4325D02*
X5714D01*
Y4288D01*
X5719Y4289D01*
X5730Y4293D01*
X5738Y4300D01*
X5745Y4309D01*
X5749Y4319D01*
X5750Y4325D01*
D02*
G37*
G36*
X5320Y4163D02*
Y4139D01*
X5344D01*
X5344Y4142D01*
X5341Y4149D01*
X5336Y4155D01*
X5330Y4160D01*
X5323Y4163D01*
X5320Y4163D01*
D02*
G37*
G36*
X2915Y4230D02*
X2905Y4228D01*
X2895Y4224D01*
X2887Y4218D01*
X2881Y4210D01*
X2877Y4200D01*
X2875Y4190D01*
X2877Y4180D01*
X2881Y4170D01*
X2887Y4162D01*
X2895Y4156D01*
X2905Y4152D01*
X2915Y4150D01*
X2925Y4152D01*
X2935Y4156D01*
X2943Y4162D01*
X2949Y4170D01*
X2953Y4180D01*
X2955Y4190D01*
X2953Y4200D01*
X2949Y4210D01*
X2943Y4218D01*
X2935Y4224D01*
X2925Y4228D01*
X2915Y4230D01*
D02*
G37*
G36*
X5709Y4269D02*
X5698Y4268D01*
X5689Y4264D01*
X5681Y4258D01*
X5674Y4249D01*
X5670Y4240D01*
X5669Y4230D01*
X5670Y4219D01*
X5674Y4210D01*
X5681Y4201D01*
X5689Y4195D01*
X5698Y4191D01*
X5709Y4190D01*
X5719Y4191D01*
X5729Y4195D01*
X5737Y4201D01*
X5743Y4210D01*
X5747Y4219D01*
X5748Y4230D01*
X5747Y4240D01*
X5743Y4249D01*
X5737Y4258D01*
X5729Y4264D01*
X5719Y4268D01*
X5709Y4269D01*
D02*
G37*
G36*
X2751Y4163D02*
X2748Y4163D01*
X2741Y4160D01*
X2735Y4155D01*
X2730Y4149D01*
X2727Y4142D01*
X2727Y4139D01*
X2751D01*
Y4163D01*
D02*
G37*
G36*
X2761D02*
Y4139D01*
X2785D01*
X2785Y4142D01*
X2782Y4149D01*
X2777Y4155D01*
X2771Y4160D01*
X2764Y4163D01*
X2761Y4163D01*
D02*
G37*
G36*
X5310D02*
X5307Y4163D01*
X5300Y4160D01*
X5294Y4155D01*
X5289Y4149D01*
X5286Y4142D01*
X5286Y4139D01*
X5310D01*
Y4163D01*
D02*
G37*
G36*
X5475Y4287D02*
X5472Y4287D01*
X5465Y4284D01*
X5459Y4279D01*
X5454Y4273D01*
X5451Y4266D01*
X5451Y4263D01*
X5475D01*
Y4287D01*
D02*
G37*
G36*
X5485D02*
Y4263D01*
X5509D01*
X5509Y4266D01*
X5506Y4273D01*
X5501Y4279D01*
X5495Y4284D01*
X5488Y4287D01*
X5485Y4287D01*
D02*
G37*
G36*
X5704Y4325D02*
X5668D01*
X5668Y4319D01*
X5673Y4309D01*
X5679Y4300D01*
X5688Y4293D01*
X5698Y4289D01*
X5704Y4288D01*
Y4325D01*
D02*
G37*
G36*
X5475Y4253D02*
X5451D01*
X5451Y4250D01*
X5454Y4243D01*
X5459Y4237D01*
X5465Y4232D01*
X5472Y4229D01*
X5475Y4229D01*
Y4253D01*
D02*
G37*
G36*
X5509D02*
X5485D01*
Y4229D01*
X5488Y4229D01*
X5495Y4232D01*
X5501Y4237D01*
X5506Y4243D01*
X5509Y4250D01*
X5509Y4253D01*
D02*
G37*
G36*
X2165Y4317D02*
X2155Y4316D01*
X2145Y4312D01*
X2137Y4306D01*
X2131Y4297D01*
X2127Y4288D01*
X2126Y4278D01*
X2127Y4267D01*
X2131Y4258D01*
X2137Y4249D01*
X2145Y4243D01*
X2155Y4239D01*
X2165Y4238D01*
X2176Y4239D01*
X2185Y4243D01*
X2193Y4249D01*
X2200Y4258D01*
X2204Y4267D01*
X2205Y4278D01*
X2204Y4288D01*
X2200Y4297D01*
X2193Y4306D01*
X2185Y4312D01*
X2176Y4316D01*
X2165Y4317D01*
D02*
G37*
G36*
X5541Y4523D02*
X5517D01*
Y4498D01*
X5520Y4499D01*
X5527Y4502D01*
X5533Y4506D01*
X5538Y4513D01*
X5541Y4520D01*
X5541Y4523D01*
D02*
G37*
G36*
X3046Y4754D02*
X3043Y4753D01*
X3036Y4750D01*
X3030Y4745D01*
X3025Y4739D01*
X3022Y4732D01*
X3022Y4729D01*
X3046D01*
Y4754D01*
D02*
G37*
G36*
X3056D02*
Y4729D01*
X3080D01*
X3080Y4732D01*
X3077Y4739D01*
X3072Y4745D01*
X3066Y4750D01*
X3059Y4753D01*
X3056Y4754D01*
D02*
G37*
G36*
X3243D02*
X3240Y4753D01*
X3233Y4750D01*
X3227Y4745D01*
X3222Y4739D01*
X3219Y4732D01*
X3219Y4729D01*
X3243D01*
Y4754D01*
D02*
G37*
G36*
X2466D02*
Y4729D01*
X2490D01*
X2489Y4732D01*
X2486Y4739D01*
X2482Y4745D01*
X2476Y4750D01*
X2468Y4753D01*
X2466Y4754D01*
D02*
G37*
G36*
X2653D02*
X2650Y4753D01*
X2643Y4750D01*
X2636Y4745D01*
X2632Y4739D01*
X2629Y4732D01*
X2628Y4729D01*
X2653D01*
Y4754D01*
D02*
G37*
G36*
X2662D02*
Y4729D01*
X2687D01*
X2686Y4732D01*
X2683Y4739D01*
X2679Y4745D01*
X2672Y4750D01*
X2665Y4753D01*
X2662Y4754D01*
D02*
G37*
G36*
X3637D02*
X3634Y4753D01*
X3627Y4750D01*
X3621Y4745D01*
X3616Y4739D01*
X3613Y4732D01*
X3613Y4729D01*
X3637D01*
Y4754D01*
D02*
G37*
G36*
X3647D02*
Y4729D01*
X3671D01*
X3671Y4732D01*
X3668Y4739D01*
X3663Y4745D01*
X3657Y4750D01*
X3649Y4753D01*
X3647Y4754D01*
D02*
G37*
G36*
X4031D02*
X4028Y4753D01*
X4021Y4750D01*
X4014Y4745D01*
X4010Y4739D01*
X4007Y4732D01*
X4006Y4729D01*
X4031D01*
Y4754D01*
D02*
G37*
G36*
X3253D02*
Y4729D01*
X3277D01*
X3277Y4732D01*
X3274Y4739D01*
X3269Y4745D01*
X3263Y4750D01*
X3256Y4753D01*
X3253Y4754D01*
D02*
G37*
G36*
X3440D02*
X3437Y4753D01*
X3430Y4750D01*
X3424Y4745D01*
X3419Y4739D01*
X3416Y4732D01*
X3416Y4729D01*
X3440D01*
Y4754D01*
D02*
G37*
G36*
X3450D02*
Y4729D01*
X3474D01*
X3474Y4732D01*
X3471Y4739D01*
X3466Y4745D01*
X3460Y4750D01*
X3453Y4753D01*
X3450Y4754D01*
D02*
G37*
G36*
X5212Y4719D02*
X5187D01*
X5188Y4717D01*
X5191Y4710D01*
X5195Y4703D01*
X5202Y4699D01*
X5209Y4696D01*
X5212Y4695D01*
Y4719D01*
D02*
G37*
G36*
X5246D02*
X5221D01*
Y4695D01*
X5224Y4696D01*
X5231Y4699D01*
X5238Y4703D01*
X5242Y4710D01*
X5245Y4717D01*
X5246Y4719D01*
D02*
G37*
G36*
X5605D02*
X5581D01*
X5581Y4717D01*
X5584Y4710D01*
X5589Y4703D01*
X5595Y4699D01*
X5603Y4696D01*
X5605Y4695D01*
Y4719D01*
D02*
G37*
G36*
X4655D02*
X4631D01*
Y4695D01*
X4634Y4696D01*
X4641Y4699D01*
X4647Y4703D01*
X4652Y4710D01*
X4655Y4717D01*
X4655Y4719D01*
D02*
G37*
G36*
X5015D02*
X4991D01*
X4991Y4717D01*
X4994Y4710D01*
X4999Y4703D01*
X5005Y4699D01*
X5012Y4696D01*
X5015Y4695D01*
Y4719D01*
D02*
G37*
G36*
X5049D02*
X5025D01*
Y4695D01*
X5027Y4696D01*
X5035Y4699D01*
X5041Y4703D01*
X5045Y4710D01*
X5048Y4717D01*
X5049Y4719D01*
D02*
G37*
G36*
X2259Y4754D02*
X2256Y4753D01*
X2249Y4750D01*
X2243Y4745D01*
X2238Y4739D01*
X2235Y4732D01*
X2235Y4729D01*
X2259D01*
Y4754D01*
D02*
G37*
G36*
X2269D02*
Y4729D01*
X2293D01*
X2293Y4732D01*
X2290Y4739D01*
X2285Y4745D01*
X2279Y4750D01*
X2271Y4753D01*
X2269Y4754D01*
D02*
G37*
G36*
X2456D02*
X2453Y4753D01*
X2446Y4750D01*
X2440Y4745D01*
X2435Y4739D01*
X2432Y4732D01*
X2431Y4729D01*
X2456D01*
Y4754D01*
D02*
G37*
G36*
X5639Y4719D02*
X5615D01*
Y4695D01*
X5618Y4696D01*
X5625Y4699D01*
X5631Y4703D01*
X5636Y4710D01*
X5639Y4717D01*
X5639Y4719D01*
D02*
G37*
G36*
X5704Y4749D02*
X5698Y4748D01*
X5688Y4744D01*
X5679Y4737D01*
X5673Y4728D01*
X5668Y4718D01*
X5668Y4712D01*
X5704D01*
Y4749D01*
D02*
G37*
G36*
X5714D02*
Y4712D01*
X5750D01*
X5749Y4718D01*
X5745Y4728D01*
X5738Y4737D01*
X5730Y4744D01*
X5719Y4748D01*
X5714Y4749D01*
D02*
G37*
G36*
X4040Y4754D02*
Y4729D01*
X4065D01*
X4064Y4732D01*
X4061Y4739D01*
X4056Y4745D01*
X4050Y4750D01*
X4043Y4753D01*
X4040Y4754D01*
D02*
G37*
G36*
X2982Y4916D02*
X2958D01*
Y4892D01*
X2960Y4892D01*
X2968Y4895D01*
X2974Y4900D01*
X2979Y4906D01*
X2982Y4914D01*
X2982Y4916D01*
D02*
G37*
G36*
X3145D02*
X3120D01*
X3121Y4914D01*
X3124Y4906D01*
X3129Y4900D01*
X3135Y4895D01*
X3142Y4892D01*
X3145Y4892D01*
Y4916D01*
D02*
G37*
G36*
X3179D02*
X3155D01*
Y4892D01*
X3157Y4892D01*
X3164Y4895D01*
X3171Y4900D01*
X3175Y4906D01*
X3178Y4914D01*
X3179Y4916D01*
D02*
G37*
G36*
X5704Y4903D02*
X5668D01*
X5668Y4897D01*
X5673Y4887D01*
X5679Y4878D01*
X5688Y4871D01*
X5698Y4867D01*
X5704Y4866D01*
Y4903D01*
D02*
G37*
G36*
X5750D02*
X5714D01*
Y4866D01*
X5719Y4867D01*
X5730Y4871D01*
X5738Y4878D01*
X5745Y4887D01*
X5749Y4897D01*
X5750Y4903D01*
D02*
G37*
G36*
X2948Y4916D02*
X2924D01*
X2924Y4914D01*
X2927Y4906D01*
X2932Y4900D01*
X2938Y4895D01*
X2945Y4892D01*
X2948Y4892D01*
Y4916D01*
D02*
G37*
G36*
X3572D02*
X3548D01*
Y4892D01*
X3551Y4892D01*
X3558Y4895D01*
X3564Y4900D01*
X3569Y4906D01*
X3572Y4914D01*
X3572Y4916D01*
D02*
G37*
G36*
X3735D02*
X3711D01*
X3711Y4914D01*
X3714Y4906D01*
X3719Y4900D01*
X3725Y4895D01*
X3732Y4892D01*
X3735Y4892D01*
Y4916D01*
D02*
G37*
G36*
X3769D02*
X3745D01*
Y4892D01*
X3748Y4892D01*
X3755Y4895D01*
X3761Y4900D01*
X3766Y4906D01*
X3769Y4914D01*
X3769Y4916D01*
D02*
G37*
G36*
X3342D02*
X3317D01*
X3318Y4914D01*
X3321Y4906D01*
X3325Y4900D01*
X3332Y4895D01*
X3339Y4892D01*
X3342Y4892D01*
Y4916D01*
D02*
G37*
G36*
X3376D02*
X3351D01*
Y4892D01*
X3354Y4892D01*
X3361Y4895D01*
X3368Y4900D01*
X3372Y4906D01*
X3375Y4914D01*
X3376Y4916D01*
D02*
G37*
G36*
X3538D02*
X3514D01*
X3515Y4914D01*
X3518Y4906D01*
X3522Y4900D01*
X3528Y4895D01*
X3536Y4892D01*
X3538Y4892D01*
Y4916D01*
D02*
G37*
G36*
X4631Y4754D02*
Y4729D01*
X4655D01*
X4655Y4732D01*
X4652Y4739D01*
X4647Y4745D01*
X4641Y4750D01*
X4634Y4753D01*
X4631Y4754D01*
D02*
G37*
G36*
X5015D02*
X5012Y4753D01*
X5005Y4750D01*
X4999Y4745D01*
X4994Y4739D01*
X4991Y4732D01*
X4991Y4729D01*
X5015D01*
Y4754D01*
D02*
G37*
G36*
X5025D02*
Y4729D01*
X5049D01*
X5048Y4732D01*
X5045Y4739D01*
X5041Y4745D01*
X5035Y4750D01*
X5027Y4753D01*
X5025Y4754D01*
D02*
G37*
G36*
X4424D02*
X4421Y4753D01*
X4414Y4750D01*
X4408Y4745D01*
X4403Y4739D01*
X4400Y4732D01*
X4400Y4729D01*
X4424D01*
Y4754D01*
D02*
G37*
G36*
X4434D02*
Y4729D01*
X4458D01*
X4458Y4732D01*
X4455Y4739D01*
X4450Y4745D01*
X4444Y4750D01*
X4437Y4753D01*
X4434Y4754D01*
D02*
G37*
G36*
X4621D02*
X4618Y4753D01*
X4611Y4750D01*
X4605Y4745D01*
X4600Y4739D01*
X4597Y4732D01*
X4597Y4729D01*
X4621D01*
Y4754D01*
D02*
G37*
G36*
X5615D02*
Y4729D01*
X5639D01*
X5639Y4732D01*
X5636Y4739D01*
X5631Y4745D01*
X5625Y4750D01*
X5618Y4753D01*
X5615Y4754D01*
D02*
G37*
G36*
X2165Y4817D02*
X2155Y4816D01*
X2145Y4812D01*
X2137Y4806D01*
X2131Y4797D01*
X2127Y4788D01*
X2126Y4778D01*
X2127Y4767D01*
X2131Y4758D01*
X2137Y4749D01*
X2145Y4743D01*
X2155Y4739D01*
X2165Y4738D01*
X2176Y4739D01*
X2185Y4743D01*
X2193Y4749D01*
X2200Y4758D01*
X2204Y4767D01*
X2205Y4778D01*
X2204Y4788D01*
X2200Y4797D01*
X2193Y4806D01*
X2185Y4812D01*
X2176Y4816D01*
X2165Y4817D01*
D02*
G37*
G36*
Y4917D02*
X2155Y4916D01*
X2145Y4912D01*
X2137Y4906D01*
X2131Y4897D01*
X2127Y4888D01*
X2126Y4878D01*
X2127Y4867D01*
X2131Y4858D01*
X2137Y4849D01*
X2145Y4843D01*
X2155Y4839D01*
X2165Y4838D01*
X2176Y4839D01*
X2185Y4843D01*
X2193Y4849D01*
X2200Y4858D01*
X2204Y4867D01*
X2205Y4878D01*
X2204Y4888D01*
X2200Y4897D01*
X2193Y4906D01*
X2185Y4912D01*
X2176Y4916D01*
X2165Y4917D01*
D02*
G37*
G36*
X5212Y4754D02*
X5209Y4753D01*
X5202Y4750D01*
X5195Y4745D01*
X5191Y4739D01*
X5188Y4732D01*
X5187Y4729D01*
X5212D01*
Y4754D01*
D02*
G37*
G36*
X5221D02*
Y4729D01*
X5246D01*
X5245Y4732D01*
X5242Y4739D01*
X5238Y4745D01*
X5231Y4750D01*
X5224Y4753D01*
X5221Y4754D01*
D02*
G37*
G36*
X5605D02*
X5603Y4753D01*
X5595Y4750D01*
X5589Y4745D01*
X5584Y4739D01*
X5581Y4732D01*
X5581Y4729D01*
X5605D01*
Y4754D01*
D02*
G37*
G36*
X4621Y4719D02*
X4597D01*
X4597Y4717D01*
X4600Y4710D01*
X4605Y4703D01*
X4611Y4699D01*
X4618Y4696D01*
X4621Y4695D01*
Y4719D01*
D02*
G37*
G36*
X5704Y4557D02*
X5701Y4556D01*
X5694Y4553D01*
X5688Y4549D01*
X5683Y4542D01*
X5680Y4535D01*
X5680Y4532D01*
X5704D01*
Y4557D01*
D02*
G37*
G36*
X5714D02*
Y4532D01*
X5738D01*
X5737Y4535D01*
X5734Y4542D01*
X5730Y4549D01*
X5724Y4553D01*
X5716Y4556D01*
X5714Y4557D01*
D02*
G37*
G36*
X2160Y4573D02*
X2124D01*
X2125Y4567D01*
X2129Y4557D01*
X2136Y4548D01*
X2145Y4541D01*
X2155Y4537D01*
X2160Y4537D01*
Y4573D01*
D02*
G37*
G36*
X5320Y4557D02*
Y4532D01*
X5344D01*
X5344Y4535D01*
X5341Y4542D01*
X5336Y4549D01*
X5330Y4553D01*
X5323Y4556D01*
X5320Y4557D01*
D02*
G37*
G36*
X5507D02*
X5504Y4556D01*
X5497Y4553D01*
X5491Y4549D01*
X5486Y4542D01*
X5483Y4535D01*
X5483Y4532D01*
X5507D01*
Y4557D01*
D02*
G37*
G36*
X5517D02*
Y4532D01*
X5541D01*
X5541Y4535D01*
X5538Y4542D01*
X5533Y4549D01*
X5527Y4553D01*
X5520Y4556D01*
X5517Y4557D01*
D02*
G37*
G36*
X5709Y4647D02*
X5698Y4646D01*
X5689Y4642D01*
X5681Y4636D01*
X5674Y4627D01*
X5670Y4618D01*
X5669Y4607D01*
X5670Y4597D01*
X5674Y4588D01*
X5681Y4579D01*
X5689Y4573D01*
X5698Y4569D01*
X5709Y4568D01*
X5719Y4569D01*
X5729Y4573D01*
X5737Y4579D01*
X5743Y4588D01*
X5747Y4597D01*
X5748Y4607D01*
X5747Y4618D01*
X5743Y4627D01*
X5737Y4636D01*
X5729Y4642D01*
X5719Y4646D01*
X5709Y4647D01*
D02*
G37*
G36*
X2160Y4619D02*
X2155Y4618D01*
X2145Y4614D01*
X2136Y4607D01*
X2129Y4598D01*
X2125Y4588D01*
X2124Y4582D01*
X2160D01*
Y4619D01*
D02*
G37*
G36*
X2170D02*
Y4582D01*
X2206D01*
X2206Y4588D01*
X2201Y4598D01*
X2195Y4607D01*
X2186Y4614D01*
X2176Y4618D01*
X2170Y4619D01*
D02*
G37*
G36*
X2206Y4573D02*
X2170D01*
Y4537D01*
X2176Y4537D01*
X2186Y4541D01*
X2195Y4548D01*
X2201Y4557D01*
X2206Y4567D01*
X2206Y4573D01*
D02*
G37*
G36*
X3435Y4563D02*
X3428Y4562D01*
X3421Y4559D01*
X3415Y4555D01*
X3411Y4549D01*
X3410Y4547D01*
X3400D01*
X3399Y4549D01*
X3395Y4555D01*
X3389Y4559D01*
X3382Y4562D01*
X3375Y4563D01*
X3368Y4562D01*
X3361Y4559D01*
X3355Y4555D01*
X3351Y4549D01*
X3348Y4542D01*
X3347Y4535D01*
X3348Y4528D01*
X3351Y4521D01*
X3355Y4515D01*
X3361Y4511D01*
X3368Y4508D01*
X3375Y4507D01*
X3381Y4502D01*
Y4415D01*
X3372Y4407D01*
X3370Y4408D01*
X3363Y4407D01*
X3356Y4404D01*
X3350Y4400D01*
X3346Y4394D01*
X3343Y4387D01*
X3342Y4380D01*
X3343Y4373D01*
X3346Y4366D01*
X3350Y4360D01*
X3356Y4356D01*
X3363Y4353D01*
X3370Y4352D01*
X3377Y4353D01*
X3384Y4356D01*
X3390Y4360D01*
X3394Y4366D01*
X3397Y4373D01*
X3398Y4380D01*
X3397Y4387D01*
X3398Y4389D01*
X3405Y4395D01*
X3412Y4389D01*
X3413Y4387D01*
X3412Y4380D01*
X3413Y4373D01*
X3416Y4366D01*
X3420Y4360D01*
X3426Y4356D01*
X3433Y4353D01*
X3440Y4352D01*
X3447Y4353D01*
X3454Y4356D01*
X3460Y4360D01*
X3464Y4366D01*
X3467Y4373D01*
X3468Y4380D01*
X3467Y4387D01*
X3464Y4394D01*
X3460Y4400D01*
X3454Y4404D01*
X3447Y4407D01*
X3440Y4408D01*
X3438Y4407D01*
X3429Y4415D01*
Y4502D01*
X3435Y4507D01*
X3442Y4508D01*
X3449Y4511D01*
X3455Y4515D01*
X3459Y4521D01*
X3462Y4528D01*
X3463Y4535D01*
X3462Y4542D01*
X3459Y4549D01*
X3455Y4555D01*
X3449Y4559D01*
X3442Y4562D01*
X3435Y4563D01*
D02*
G37*
G36*
X4380Y4643D02*
X4373Y4642D01*
X4366Y4639D01*
X4360Y4635D01*
X4356Y4629D01*
X4353Y4622D01*
X4352Y4615D01*
X4353Y4608D01*
X4334Y4589D01*
X4187D01*
X4181Y4588D01*
X4177Y4585D01*
X4066Y4473D01*
X4063Y4469D01*
X4062Y4463D01*
Y4360D01*
X4052Y4355D01*
X4050Y4357D01*
X4043Y4359D01*
X4040Y4360D01*
Y4331D01*
Y4302D01*
X4043Y4302D01*
X4050Y4305D01*
X4052Y4306D01*
X4062Y4301D01*
Y4124D01*
X4046Y4109D01*
X3960D01*
X3957Y4118D01*
X3961Y4124D01*
X3964Y4131D01*
X3965Y4138D01*
X3964Y4145D01*
X3961Y4152D01*
X3957Y4158D01*
X3951Y4162D01*
X3944Y4165D01*
X3937Y4166D01*
X3930Y4165D01*
X3923Y4162D01*
X3917Y4158D01*
X3913Y4152D01*
X3910Y4145D01*
X3909Y4139D01*
X3785D01*
X3731Y4193D01*
X3725Y4197D01*
X3718Y4198D01*
X3657D01*
X3648Y4207D01*
Y4219D01*
X3650Y4220D01*
X3654Y4226D01*
X3657Y4233D01*
X3658Y4240D01*
X3657Y4247D01*
X3654Y4254D01*
X3650Y4260D01*
X3644Y4264D01*
X3637Y4267D01*
X3630Y4268D01*
X3623Y4267D01*
X3616Y4264D01*
X3610Y4260D01*
X3606Y4254D01*
X3603Y4247D01*
X3602Y4240D01*
X3603Y4233D01*
X3606Y4226D01*
X3610Y4220D01*
X3612Y4219D01*
Y4200D01*
X3613Y4193D01*
X3617Y4187D01*
X3637Y4167D01*
X3643Y4163D01*
X3650Y4162D01*
X3684D01*
X3685Y4160D01*
X3688Y4152D01*
X3686Y4149D01*
X3683Y4142D01*
X3682Y4135D01*
X3683Y4128D01*
X3686Y4121D01*
X3690Y4115D01*
X3696Y4111D01*
X3698Y4110D01*
Y4100D01*
X3696Y4099D01*
X3690Y4094D01*
X3688Y4091D01*
X3679Y4089D01*
X3675Y4089D01*
X3655Y4110D01*
X3650Y4113D01*
X3645Y4114D01*
X3549D01*
X3545Y4120D01*
X3539Y4124D01*
X3532Y4127D01*
X3525Y4128D01*
X3518Y4127D01*
X3511Y4124D01*
X3505Y4120D01*
X3501Y4114D01*
X3498Y4107D01*
X3497Y4100D01*
X3498Y4093D01*
X3501Y4086D01*
X3505Y4080D01*
X3508Y4078D01*
X3509Y4076D01*
Y4069D01*
X3508Y4067D01*
X3505Y4065D01*
X3501Y4059D01*
X3498Y4052D01*
X3497Y4045D01*
X3498Y4038D01*
X3498Y4037D01*
X3498Y4037D01*
X3491Y4029D01*
X3296D01*
X3258Y4066D01*
Y4285D01*
X3257Y4290D01*
X3256Y4292D01*
X3256Y4294D01*
X3258Y4301D01*
X3260Y4304D01*
X3263Y4305D01*
X3269Y4310D01*
X3274Y4316D01*
X3277Y4323D01*
X3277Y4326D01*
X3248D01*
Y4331D01*
X3243D01*
Y4360D01*
X3240Y4359D01*
X3233Y4357D01*
X3227Y4352D01*
X3222Y4346D01*
X3221Y4342D01*
X3210Y4339D01*
X3133Y4416D01*
Y4549D01*
X3153Y4568D01*
X3160Y4567D01*
X3167Y4568D01*
X3174Y4571D01*
X3179Y4575D01*
X3184Y4581D01*
X3187Y4588D01*
X3187Y4595D01*
X3187Y4602D01*
X3184Y4609D01*
X3179Y4615D01*
X3174Y4619D01*
X3167Y4622D01*
X3160Y4623D01*
X3152Y4622D01*
X3146Y4619D01*
X3140Y4615D01*
X3136Y4609D01*
X3135Y4607D01*
X3124D01*
X3124Y4609D01*
X3119Y4615D01*
X3114Y4619D01*
X3107Y4622D01*
X3100Y4623D01*
X3092Y4622D01*
X3086Y4619D01*
X3080Y4615D01*
X3076Y4609D01*
X3075Y4607D01*
X3064D01*
X3064Y4609D01*
X3059Y4615D01*
X3054Y4619D01*
X3047Y4622D01*
X3040Y4623D01*
X3032Y4622D01*
X3026Y4619D01*
X3020Y4615D01*
X3016Y4609D01*
X3013Y4602D01*
X3012Y4595D01*
X3013Y4588D01*
X3016Y4581D01*
X3020Y4575D01*
X3026Y4571D01*
X3032Y4568D01*
X3040Y4567D01*
X3047Y4568D01*
X3066Y4549D01*
Y4394D01*
X3067Y4388D01*
X3070Y4384D01*
X3191Y4263D01*
Y4044D01*
X3192Y4039D01*
X3195Y4034D01*
X3253Y3976D01*
X3249Y3967D01*
X3248Y3967D01*
X3240Y3966D01*
X3233Y3963D01*
X3227Y3958D01*
X3222Y3952D01*
X3219Y3945D01*
X3219Y3942D01*
X3277D01*
X3277Y3945D01*
X3274Y3952D01*
X3279Y3962D01*
X3414D01*
X3419Y3952D01*
X3416Y3945D01*
X3416Y3942D01*
X3474D01*
X3474Y3945D01*
X3473Y3947D01*
X3475Y3952D01*
X3479Y3957D01*
X3590D01*
X3654Y3893D01*
X3658Y3890D01*
X3664Y3889D01*
X3747D01*
X3757Y3888D01*
X3757Y3879D01*
Y3871D01*
X3755Y3870D01*
X3751Y3864D01*
X3748Y3857D01*
X3747Y3850D01*
X3748Y3843D01*
X3751Y3836D01*
X3755Y3830D01*
X3761Y3826D01*
X3768Y3823D01*
X3775Y3822D01*
X3782Y3823D01*
X3789Y3826D01*
X3795Y3830D01*
X3799Y3836D01*
X3802Y3843D01*
X3803Y3850D01*
X3802Y3857D01*
X3799Y3864D01*
X3795Y3870D01*
X3793Y3871D01*
Y3880D01*
X3828Y3915D01*
X4014D01*
X4044Y3886D01*
Y3792D01*
X4045Y3785D01*
X4049Y3779D01*
X4068Y3761D01*
X4070Y3752D01*
X4066Y3746D01*
X4063Y3739D01*
X4062Y3732D01*
X4063Y3725D01*
X4066Y3718D01*
X4070Y3712D01*
X4076Y3708D01*
X4083Y3705D01*
X4090Y3704D01*
X4097Y3705D01*
X4104Y3708D01*
X4110Y3712D01*
X4113Y3717D01*
X4118Y3717D01*
X4124Y3716D01*
X4126Y3711D01*
X4130Y3705D01*
X4136Y3701D01*
X4143Y3698D01*
X4150Y3697D01*
X4157Y3698D01*
X4164Y3701D01*
X4170Y3705D01*
X4174Y3711D01*
X4177Y3718D01*
X4178Y3725D01*
X4177Y3732D01*
X4174Y3739D01*
X4170Y3745D01*
X4164Y3749D01*
X4162Y3750D01*
Y3760D01*
X4164Y3761D01*
X4170Y3765D01*
X4174Y3771D01*
X4177Y3778D01*
X4178Y3785D01*
X4177Y3792D01*
X4174Y3799D01*
X4170Y3805D01*
X4164Y3809D01*
X4162Y3810D01*
Y3820D01*
X4164Y3821D01*
X4170Y3825D01*
X4174Y3831D01*
X4177Y3838D01*
X4178Y3845D01*
X4177Y3852D01*
X4174Y3859D01*
X4170Y3865D01*
X4164Y3869D01*
X4157Y3872D01*
X4150Y3873D01*
X4148Y3872D01*
X4139Y3880D01*
Y3932D01*
X4138Y3938D01*
X4135Y3942D01*
X4085Y3992D01*
X4089Y4003D01*
X4090Y4003D01*
X4094Y4006D01*
X4164Y4076D01*
X4167Y4080D01*
X4168Y4086D01*
Y4425D01*
X4225Y4482D01*
X4295D01*
X4387Y4390D01*
X4392Y4387D01*
X4397Y4386D01*
X4426D01*
X4430Y4380D01*
X4436Y4376D01*
X4443Y4373D01*
X4450Y4372D01*
X4457Y4373D01*
X4464Y4376D01*
X4470Y4380D01*
X4474Y4386D01*
X4477Y4393D01*
X4478Y4400D01*
X4477Y4407D01*
X4474Y4414D01*
X4470Y4420D01*
X4464Y4424D01*
X4457Y4427D01*
X4450Y4428D01*
X4448Y4428D01*
X4441Y4436D01*
X4442Y4438D01*
X4443Y4445D01*
X4442Y4452D01*
X4439Y4459D01*
X4435Y4465D01*
X4429Y4469D01*
X4422Y4472D01*
X4415Y4473D01*
X4410Y4472D01*
X4406Y4476D01*
X4404Y4481D01*
X4404Y4481D01*
X4407Y4488D01*
X4408Y4495D01*
X4407Y4502D01*
X4404Y4509D01*
X4400Y4515D01*
X4394Y4519D01*
X4392Y4520D01*
Y4530D01*
X4394Y4531D01*
X4400Y4535D01*
X4404Y4541D01*
X4407Y4548D01*
X4408Y4555D01*
X4407Y4562D01*
X4404Y4569D01*
X4400Y4575D01*
X4394Y4579D01*
X4392Y4580D01*
Y4590D01*
X4394Y4591D01*
X4400Y4595D01*
X4404Y4601D01*
X4407Y4608D01*
X4408Y4615D01*
X4407Y4622D01*
X4404Y4629D01*
X4400Y4635D01*
X4394Y4639D01*
X4387Y4642D01*
X4380Y4643D01*
D02*
G37*
G36*
X2554Y4557D02*
X2551Y4556D01*
X2544Y4553D01*
X2538Y4549D01*
X2533Y4542D01*
X2530Y4535D01*
X2530Y4532D01*
X2554D01*
Y4557D01*
D02*
G37*
G36*
X2564D02*
Y4532D01*
X2588D01*
X2588Y4535D01*
X2585Y4542D01*
X2580Y4549D01*
X2574Y4553D01*
X2567Y4556D01*
X2564Y4557D01*
D02*
G37*
G36*
X2751D02*
X2748Y4556D01*
X2741Y4553D01*
X2735Y4549D01*
X2730Y4542D01*
X2727Y4535D01*
X2727Y4532D01*
X2751D01*
Y4557D01*
D02*
G37*
G36*
X5738Y4523D02*
X5714D01*
Y4498D01*
X5716Y4499D01*
X5724Y4502D01*
X5730Y4506D01*
X5734Y4513D01*
X5737Y4520D01*
X5738Y4523D01*
D02*
G37*
G36*
X2357Y4557D02*
X2354Y4556D01*
X2347Y4553D01*
X2341Y4549D01*
X2336Y4542D01*
X2333Y4535D01*
X2333Y4532D01*
X2357D01*
Y4557D01*
D02*
G37*
G36*
X2367D02*
Y4532D01*
X2391D01*
X2391Y4535D01*
X2388Y4542D01*
X2383Y4549D01*
X2377Y4553D01*
X2370Y4556D01*
X2367Y4557D01*
D02*
G37*
G36*
X5113D02*
X5110Y4556D01*
X5103Y4553D01*
X5097Y4549D01*
X5092Y4542D01*
X5089Y4535D01*
X5089Y4532D01*
X5113D01*
Y4557D01*
D02*
G37*
G36*
X5123D02*
Y4532D01*
X5147D01*
X5147Y4535D01*
X5144Y4542D01*
X5139Y4549D01*
X5133Y4553D01*
X5126Y4556D01*
X5123Y4557D01*
D02*
G37*
G36*
X5310D02*
X5307Y4556D01*
X5300Y4553D01*
X5294Y4549D01*
X5289Y4542D01*
X5286Y4535D01*
X5286Y4532D01*
X5310D01*
Y4557D01*
D02*
G37*
G36*
X2761D02*
Y4532D01*
X2785D01*
X2785Y4535D01*
X2782Y4542D01*
X2777Y4549D01*
X2771Y4553D01*
X2764Y4556D01*
X2761Y4557D01*
D02*
G37*
G36*
X3735D02*
X3732Y4556D01*
X3725Y4553D01*
X3719Y4549D01*
X3714Y4542D01*
X3711Y4535D01*
X3711Y4532D01*
X3735D01*
Y4557D01*
D02*
G37*
G36*
X3745D02*
Y4532D01*
X3769D01*
X3769Y4535D01*
X3766Y4542D01*
X3761Y4549D01*
X3755Y4553D01*
X3748Y4556D01*
X3745Y4557D01*
D02*
G37*
G36*
X5704Y4523D02*
X5680D01*
X5680Y4520D01*
X5683Y4513D01*
X5688Y4506D01*
X5694Y4502D01*
X5701Y4499D01*
X5704Y4498D01*
Y4523D01*
D02*
G37*
G36*
X3277Y4719D02*
X3253D01*
Y4695D01*
X3256Y4696D01*
X3263Y4699D01*
X3269Y4703D01*
X3274Y4710D01*
X3277Y4717D01*
X3277Y4719D01*
D02*
G37*
G36*
X3440D02*
X3416D01*
X3416Y4717D01*
X3419Y4710D01*
X3424Y4703D01*
X3430Y4699D01*
X3437Y4696D01*
X3440Y4695D01*
Y4719D01*
D02*
G37*
G36*
X3474D02*
X3450D01*
Y4695D01*
X3453Y4696D01*
X3460Y4699D01*
X3466Y4703D01*
X3471Y4710D01*
X3474Y4717D01*
X3474Y4719D01*
D02*
G37*
G36*
X3046D02*
X3022D01*
X3022Y4717D01*
X3025Y4710D01*
X3030Y4703D01*
X3036Y4699D01*
X3043Y4696D01*
X3046Y4695D01*
Y4719D01*
D02*
G37*
G36*
X3080D02*
X3056D01*
Y4695D01*
X3059Y4696D01*
X3066Y4699D01*
X3072Y4703D01*
X3077Y4710D01*
X3080Y4717D01*
X3080Y4719D01*
D02*
G37*
G36*
X3243D02*
X3219D01*
X3219Y4717D01*
X3222Y4710D01*
X3227Y4703D01*
X3233Y4699D01*
X3240Y4696D01*
X3243Y4695D01*
Y4719D01*
D02*
G37*
G36*
X4065D02*
X4040D01*
Y4695D01*
X4043Y4696D01*
X4050Y4699D01*
X4056Y4703D01*
X4061Y4710D01*
X4064Y4717D01*
X4065Y4719D01*
D02*
G37*
G36*
X4424D02*
X4400D01*
X4400Y4717D01*
X4403Y4710D01*
X4408Y4703D01*
X4414Y4699D01*
X4421Y4696D01*
X4424Y4695D01*
Y4719D01*
D02*
G37*
G36*
X4458D02*
X4434D01*
Y4695D01*
X4437Y4696D01*
X4444Y4699D01*
X4450Y4703D01*
X4455Y4710D01*
X4458Y4717D01*
X4458Y4719D01*
D02*
G37*
G36*
X3637D02*
X3613D01*
X3613Y4717D01*
X3616Y4710D01*
X3621Y4703D01*
X3627Y4699D01*
X3634Y4696D01*
X3637Y4695D01*
Y4719D01*
D02*
G37*
G36*
X3671D02*
X3647D01*
Y4695D01*
X3649Y4696D01*
X3657Y4699D01*
X3663Y4703D01*
X3668Y4710D01*
X3671Y4717D01*
X3671Y4719D01*
D02*
G37*
G36*
X4031D02*
X4006D01*
X4007Y4717D01*
X4010Y4710D01*
X4014Y4703D01*
X4021Y4699D01*
X4028Y4696D01*
X4031Y4695D01*
Y4719D01*
D02*
G37*
G36*
X5750Y4703D02*
X5714D01*
Y4666D01*
X5719Y4667D01*
X5730Y4671D01*
X5738Y4678D01*
X5745Y4687D01*
X5749Y4697D01*
X5750Y4703D01*
D02*
G37*
G36*
X2160Y4719D02*
X2155Y4718D01*
X2145Y4714D01*
X2136Y4707D01*
X2129Y4698D01*
X2125Y4688D01*
X2124Y4682D01*
X2160D01*
Y4719D01*
D02*
G37*
G36*
X2170D02*
Y4682D01*
X2206D01*
X2206Y4688D01*
X2201Y4698D01*
X2195Y4707D01*
X2186Y4714D01*
X2176Y4718D01*
X2170Y4719D01*
D02*
G37*
G36*
X2160Y4673D02*
X2124D01*
X2125Y4667D01*
X2129Y4657D01*
X2136Y4648D01*
X2145Y4641D01*
X2155Y4637D01*
X2160Y4637D01*
Y4673D01*
D02*
G37*
G36*
X2206D02*
X2170D01*
Y4637D01*
X2176Y4637D01*
X2186Y4641D01*
X2195Y4648D01*
X2201Y4657D01*
X2206Y4667D01*
X2206Y4673D01*
D02*
G37*
G36*
X5704Y4703D02*
X5668D01*
X5668Y4697D01*
X5673Y4687D01*
X5679Y4678D01*
X5688Y4671D01*
X5698Y4667D01*
X5704Y4666D01*
Y4703D01*
D02*
G37*
G36*
X2490Y4719D02*
X2466D01*
Y4695D01*
X2468Y4696D01*
X2476Y4699D01*
X2482Y4703D01*
X2486Y4710D01*
X2489Y4717D01*
X2490Y4719D01*
D02*
G37*
G36*
X2653D02*
X2628D01*
X2629Y4717D01*
X2632Y4710D01*
X2636Y4703D01*
X2643Y4699D01*
X2650Y4696D01*
X2653Y4695D01*
Y4719D01*
D02*
G37*
G36*
X2687D02*
X2662D01*
Y4695D01*
X2665Y4696D01*
X2672Y4699D01*
X2679Y4703D01*
X2683Y4710D01*
X2686Y4717D01*
X2687Y4719D01*
D02*
G37*
G36*
X2259D02*
X2235D01*
X2235Y4717D01*
X2238Y4710D01*
X2243Y4703D01*
X2249Y4699D01*
X2256Y4696D01*
X2259Y4695D01*
Y4719D01*
D02*
G37*
G36*
X2293D02*
X2269D01*
Y4695D01*
X2271Y4696D01*
X2279Y4699D01*
X2285Y4703D01*
X2290Y4710D01*
X2293Y4717D01*
X2293Y4719D01*
D02*
G37*
G36*
X2456D02*
X2431D01*
X2432Y4717D01*
X2435Y4710D01*
X2440Y4703D01*
X2446Y4699D01*
X2453Y4696D01*
X2456Y4695D01*
Y4719D01*
D02*
G37*
%LPD*%
G36*
X4358Y5017D02*
X4357Y5010D01*
X4358Y5003D01*
X4360Y4999D01*
X4356Y4991D01*
X4354Y4989D01*
X4150D01*
X4145Y4988D01*
X4144Y4987D01*
X4134Y4992D01*
Y5020D01*
X4151Y5037D01*
X4339D01*
X4358Y5017D01*
D02*
G37*
D10*
X3244Y4061D02*
Y4285D01*
X3100Y4402D02*
X3225Y4277D01*
Y4052D02*
Y4277D01*
X3080Y4394D02*
X3205Y4269D01*
Y4044D02*
Y4269D01*
X3244Y4061D02*
X3290Y4015D01*
X3225Y4052D02*
X3282Y3995D01*
X3205Y4044D02*
X3274Y3976D01*
X3119Y4410D02*
X3244Y4285D01*
X4097Y3791D02*
Y3842D01*
X4045Y3957D02*
X4086Y3916D01*
Y3854D02*
Y3916D01*
Y3854D02*
X4097Y3842D01*
X4053Y3976D02*
X4105Y3924D01*
Y3862D02*
Y3924D01*
Y3862D02*
X4117Y3851D01*
Y3831D02*
Y3851D01*
X4061Y3996D02*
X4125Y3932D01*
Y3870D02*
Y3932D01*
Y3870D02*
X4150Y3845D01*
X4117Y3831D02*
X4150Y3798D01*
X4097Y3791D02*
X4150Y3738D01*
X3802Y3976D02*
X4053D01*
X3794Y3996D02*
X4061D01*
X3119Y4555D02*
X3160Y4595D01*
X3119Y4410D02*
Y4555D01*
X3040Y4595D02*
X3080Y4555D01*
Y4394D02*
Y4555D01*
X3100Y4402D02*
Y4595D01*
X4150Y3785D02*
Y3798D01*
Y3725D02*
Y3738D01*
X3810Y3957D02*
X4045D01*
X3756Y3903D02*
X3810Y3957D01*
X3664Y3903D02*
X3756D01*
X3748Y3922D02*
X3802Y3976D01*
X3672Y3922D02*
X3748D01*
X3604Y3990D02*
X3672Y3922D01*
X3740Y3942D02*
X3794Y3996D01*
X3680Y3942D02*
X3740D01*
X3477Y3971D02*
X3596D01*
X3472Y3976D02*
X3477Y3971D01*
X3596D02*
X3664Y3903D01*
X3491Y3990D02*
X3604D01*
X3486Y3995D02*
X3491Y3990D01*
X3612Y4010D02*
X3680Y3942D01*
X3500Y4010D02*
X3612D01*
X3274Y3976D02*
X3472D01*
X3282Y3995D02*
X3486D01*
X3495Y4015D02*
X3500Y4010D01*
X3290Y4015D02*
X3495D01*
X4793Y4837D02*
X4812Y4818D01*
X4207Y4837D02*
X4793D01*
X4812Y4462D02*
Y4818D01*
X4803Y4453D02*
X4812Y4462D01*
X3874Y4926D02*
X4006Y4794D01*
X3874Y4926D02*
Y5505D01*
X4164Y4794D02*
X4207Y4837D01*
X4006Y4794D02*
X4164D01*
X4803Y4122D02*
X4955Y3970D01*
X4803Y4122D02*
Y4453D01*
X3411Y5635D02*
X3431Y5615D01*
X3339Y5635D02*
X3411D01*
X3503Y5615D02*
X3523Y5596D01*
X3431Y5615D02*
X3503D01*
X3193Y5709D02*
X3247Y5655D01*
X3319D02*
X3339Y5635D01*
X3247Y5655D02*
X3319D01*
X3779Y5556D02*
X3799Y5536D01*
X3707Y5556D02*
X3779D01*
X3843Y5536D02*
X3874Y5505D01*
X3799Y5536D02*
X3843D01*
X3595Y5596D02*
X3615Y5576D01*
X3523Y5596D02*
X3595D01*
X3687Y5576D02*
X3707Y5556D01*
X3615Y5576D02*
X3687D01*
X4832Y4453D02*
Y4826D01*
X4801Y4857D02*
X4832Y4826D01*
X4823Y4162D02*
Y4445D01*
X4832Y4453D01*
X4199Y4857D02*
X4801D01*
X3894Y4934D02*
Y5513D01*
X4156Y4814D02*
X4199Y4857D01*
X4014Y4814D02*
X4156D01*
X4823Y4162D02*
X4955Y4030D01*
X3511Y5635D02*
X3531Y5615D01*
X3439Y5635D02*
X3511D01*
X3603Y5615D02*
X3623Y5596D01*
X3531Y5615D02*
X3603D01*
X3293Y5709D02*
X3347Y5655D01*
X3419D02*
X3439Y5635D01*
X3347Y5655D02*
X3419D01*
X3807Y5556D02*
X3851D01*
X3787Y5576D02*
X3807Y5556D01*
X3894Y4934D02*
X4014Y4814D01*
X3851Y5556D02*
X3894Y5513D01*
X3695Y5596D02*
X3715Y5576D01*
X3623Y5596D02*
X3695D01*
X3715Y5576D02*
X3787D01*
X4852Y4445D02*
Y4834D01*
X4809Y4877D02*
X4852Y4834D01*
X4843Y4202D02*
X4955Y4090D01*
X4843Y4436D02*
X4852Y4445D01*
X4191Y4877D02*
X4809D01*
X4148Y4833D02*
X4191Y4877D01*
X4843Y4202D02*
Y4436D01*
X4022Y4833D02*
X4148D01*
X3539Y5635D02*
X3611D01*
X3519Y5655D02*
X3539Y5635D01*
X3631Y5615D02*
X3703D01*
X3611Y5635D02*
X3631Y5615D01*
X3393Y5709D02*
X3447Y5655D01*
X3519D01*
X3859Y5576D02*
X3914Y5521D01*
X3815Y5576D02*
X3859D01*
X3914Y4942D02*
X4022Y4833D01*
X3914Y4942D02*
Y5521D01*
X3723Y5596D02*
X3795D01*
X3703Y5615D02*
X3723Y5596D01*
X3795D02*
X3815Y5576D01*
X4871Y4437D02*
Y4842D01*
X4817Y4896D02*
X4871Y4842D01*
X4862Y4243D02*
X4955Y4150D01*
X4862Y4428D02*
X4871Y4437D01*
X4183Y4896D02*
X4817D01*
X4140Y4853D02*
X4183Y4896D01*
X4862Y4243D02*
Y4428D01*
X3639Y5635D02*
X3711D01*
X3619Y5655D02*
X3639Y5635D01*
X3731Y5615D02*
X3803D01*
X3711Y5635D02*
X3731Y5615D01*
X3493Y5709D02*
X3547Y5655D01*
X3619D01*
X3933Y4950D02*
X4030Y4853D01*
X3868Y5596D02*
X3933Y5530D01*
X4030Y4853D02*
X4140D01*
X3823Y5596D02*
X3868D01*
X3803Y5615D02*
X3823Y5596D01*
X3933Y4950D02*
Y5530D01*
X4891Y4429D02*
Y4851D01*
X4826Y4916D02*
X4891Y4851D01*
X4882Y4283D02*
X4955Y4210D01*
X4882Y4420D02*
X4891Y4429D01*
X4175Y4916D02*
X4826D01*
X4882Y4283D02*
Y4420D01*
X3739Y5635D02*
X3811D01*
X3719Y5655D02*
X3739Y5635D01*
X3811D02*
X3831Y5615D01*
X3593Y5709D02*
X3647Y5655D01*
X3719D01*
X4131Y4873D02*
X4175Y4916D01*
X3953Y4958D02*
X4039Y4873D01*
X4131D01*
X3876Y5615D02*
X3953Y5538D01*
X3831Y5615D02*
X3876D01*
X3953Y4958D02*
Y5538D01*
X4911Y4421D02*
Y4859D01*
X4834Y4936D02*
X4911Y4859D01*
X4902Y4323D02*
X4955Y4270D01*
X4902Y4412D02*
X4911Y4421D01*
X4166Y4936D02*
X4834D01*
X4902Y4323D02*
Y4412D01*
X3839Y5635D02*
X3884D01*
X3819Y5655D02*
X3839Y5635D01*
X3884D02*
X3973Y5547D01*
X3693Y5709D02*
X3747Y5655D01*
X3819D01*
X4123Y4892D02*
X4166Y4936D01*
X4047Y4892D02*
X4123D01*
X3973Y4966D02*
Y5547D01*
Y4966D02*
X4047Y4892D01*
X4850Y4975D02*
X4950Y4875D01*
Y4395D02*
Y4875D01*
X3893Y5682D02*
X4012Y5563D01*
Y4983D02*
Y5563D01*
X3893Y5682D02*
Y5709D01*
X4107Y4932D02*
X4150Y4975D01*
X4850D01*
X4012Y4983D02*
X4063Y4932D01*
X4107D01*
X4930Y4413D02*
Y4867D01*
X4922Y4367D02*
X4955Y4334D01*
X4922Y4404D02*
X4930Y4413D01*
X4842Y4955D02*
X4930Y4867D01*
X4922Y4367D02*
Y4404D01*
X3892Y5655D02*
X3992Y5555D01*
X3847Y5655D02*
X3892D01*
X3992Y4975D02*
Y5555D01*
X3793Y5709D02*
X3847Y5655D01*
X4158Y4955D02*
X4842D01*
X4115Y4912D02*
X4158Y4955D01*
X3992Y4975D02*
X4055Y4912D01*
X4115D01*
X3525Y4045D02*
X3605D01*
X3688Y3962D01*
X3732D01*
X3786Y4016D01*
X4084D01*
X4154Y4086D01*
Y4431D01*
X4219Y4496D01*
X4301D01*
X4397Y4400D01*
X4450D01*
X3525Y4100D02*
X3645D01*
X3676Y4069D01*
Y4001D02*
Y4069D01*
Y4001D02*
X3696Y3982D01*
X3724D01*
X3778Y4035D01*
X4076D01*
X4135Y4094D01*
Y4439D01*
X4211Y4516D01*
X4309D01*
X4380Y4445D01*
X4415D01*
X4076Y4463D02*
X4187Y4575D01*
X4095Y4455D02*
X4195Y4555D01*
X4076Y4118D02*
Y4463D01*
X4052Y4094D02*
X4076Y4118D01*
X4095Y4110D02*
Y4455D01*
X4060Y4075D02*
X4095Y4110D01*
X4115Y4447D02*
X4203Y4535D01*
X4115Y4102D02*
Y4447D01*
X4068Y4055D02*
X4115Y4102D01*
X4340Y4535D02*
X4380Y4495D01*
X4203Y4535D02*
X4340D01*
X3750Y4055D02*
X4068D01*
X3710Y4015D02*
X3750Y4055D01*
X3710Y4135D02*
X3751Y4094D01*
X4052D01*
X4187Y4575D02*
X4340D01*
X4380Y4615D01*
X3710Y4075D02*
X4060D01*
X4195Y4555D02*
X4380D01*
X4344Y5051D02*
X4385Y5010D01*
X4145Y5051D02*
X4344D01*
X4120Y5026D02*
X4145Y5051D01*
X4120Y4973D02*
Y5026D01*
X4099Y4952D02*
X4120Y4973D01*
X4071Y4952D02*
X4099D01*
X4032Y4991D02*
X4071Y4952D01*
X4032Y4991D02*
Y5092D01*
X4085Y5145D01*
Y5160D01*
X4345Y5090D02*
X4385Y5130D01*
X4113Y5090D02*
X4345D01*
X4099Y5104D02*
X4113Y5090D01*
X4071Y5104D02*
X4099D01*
X4052Y5084D02*
X4071Y5104D01*
X4052Y5056D02*
Y5084D01*
Y5056D02*
X4085Y5023D01*
Y4985D02*
Y5023D01*
Y5070D02*
X4385D01*
X2890Y3450D02*
Y3510D01*
X2950Y3450D02*
Y3490D01*
X2890Y3510D02*
X2915Y3535D01*
X3120D01*
X2950Y3490D02*
X2975Y3515D01*
X3010Y3480D02*
X3026Y3496D01*
X2975Y3515D02*
X3185D01*
X3150Y3565D02*
Y3615D01*
X3120Y3535D02*
X3150Y3565D01*
X3185Y3515D02*
X3210Y3540D01*
Y3615D01*
X3026Y3496D02*
X3246D01*
X3270Y3520D01*
Y3615D01*
X3010Y3450D02*
Y3480D01*
X3415Y4405D02*
Y4515D01*
X3435Y4535D01*
X3415Y4405D02*
X3440Y4380D01*
X3375Y4535D02*
X3395Y4515D01*
X3370Y4380D02*
X3395Y4405D01*
Y4515D01*
D28*
X5490Y2510D02*
X5620D01*
X5675Y2455D01*
X5820D01*
X5675Y2805D02*
X5820D01*
X5620Y2860D02*
X5675Y2805D01*
X5490Y2860D02*
X5620D01*
X3575Y3460D02*
X3615Y3500D01*
X3465Y3460D02*
X3575D01*
X3430Y3425D02*
X3465Y3460D01*
X3310Y3545D02*
X3430Y3425D01*
X3310Y3545D02*
Y3630D01*
X3235Y3705D02*
X3310Y3630D01*
X3140Y3705D02*
X3235D01*
X4090Y3732D02*
Y3764D01*
X4062Y3792D02*
X4090Y3764D01*
X4062Y3792D02*
Y3893D01*
X4022Y3933D02*
X4062Y3893D01*
X3820Y3933D02*
X4022D01*
X3775Y3888D02*
X3820Y3933D01*
X3775Y3850D02*
Y3888D01*
X3920Y4120D02*
X3937Y4138D01*
X3777Y4120D02*
X3920D01*
X3718Y4180D02*
X3777Y4120D01*
X3650Y4180D02*
X3718D01*
X3630Y4200D02*
X3650Y4180D01*
X3630Y4200D02*
Y4240D01*
D29*
X5820Y2100D02*
Y2805D01*
X5775Y2055D02*
X5820Y2100D01*
X2130Y2055D02*
X5775D01*
X2070Y2115D02*
X2130Y2055D01*
X2070Y2115D02*
Y5082D01*
X5820Y2805D02*
Y3430D01*
X2560Y5485D02*
X2760D01*
X2460D02*
X2560D01*
X2405D02*
X2460D01*
X2365Y5445D02*
X2405Y5485D01*
X2365Y5377D02*
Y5445D01*
X2165Y5178D02*
X2365Y5377D01*
X2070Y5082D02*
X2165Y5178D01*
X4535Y3665D02*
X4675Y3525D01*
X4535Y3665D02*
Y3755D01*
X4134Y2055D02*
Y2165D01*
X5765Y5805D02*
X5820Y5750D01*
X5480Y5805D02*
X5765D01*
X5480Y4428D02*
X5817D01*
X5709Y3430D02*
X5820D01*
X5711Y4805D02*
X5820D01*
Y3430D02*
Y4805D01*
Y5750D01*
D30*
X2165Y5278D02*
D03*
Y5178D02*
D03*
Y5078D02*
D03*
Y4978D02*
D03*
Y4878D02*
D03*
Y4578D02*
D03*
Y4678D02*
D03*
Y4778D02*
D03*
Y4378D02*
D03*
Y4278D02*
D03*
Y4178D02*
D03*
Y4478D02*
D03*
Y4078D02*
D03*
Y3778D02*
D03*
Y3878D02*
D03*
Y3978D02*
D03*
X5709Y2963D02*
D03*
Y2863D02*
D03*
X4674Y2165D02*
D03*
X4774D02*
D03*
X2759Y5709D02*
D03*
X2659D02*
D03*
X2559D02*
D03*
X2459D02*
D03*
X2359D02*
D03*
X5709Y2609D02*
D03*
Y2509D02*
D03*
X4034Y2165D02*
D03*
X4134D02*
D03*
X4234D02*
D03*
X5274Y5709D02*
D03*
X5174D02*
D03*
X5074D02*
D03*
X4974D02*
D03*
X4874D02*
D03*
X4574D02*
D03*
X4674D02*
D03*
X4774D02*
D03*
X4374D02*
D03*
X4274D02*
D03*
X4174D02*
D03*
X4474D02*
D03*
X3193D02*
D03*
X3293D02*
D03*
X3393D02*
D03*
X3493D02*
D03*
X3593D02*
D03*
X3893D02*
D03*
X3793D02*
D03*
X3693D02*
D03*
X2165Y3198D02*
D03*
Y3298D02*
D03*
X5709Y2155D02*
D03*
Y2255D02*
D03*
Y5707D02*
D03*
Y5607D02*
D03*
Y5507D02*
D03*
Y5407D02*
D03*
Y5307D02*
D03*
Y5007D02*
D03*
Y5107D02*
D03*
Y5207D02*
D03*
Y4807D02*
D03*
Y4707D02*
D03*
Y4607D02*
D03*
Y4907D02*
D03*
X2915Y4290D02*
D03*
Y4190D02*
D03*
Y4090D02*
D03*
Y3990D02*
D03*
Y3890D02*
D03*
Y3590D02*
D03*
Y3690D02*
D03*
Y3790D02*
D03*
X5709Y4330D02*
D03*
Y4230D02*
D03*
Y4130D02*
D03*
Y4030D02*
D03*
Y3930D02*
D03*
Y3630D02*
D03*
Y3730D02*
D03*
Y3830D02*
D03*
Y3430D02*
D03*
Y3330D02*
D03*
Y3230D02*
D03*
Y3530D02*
D03*
D31*
X3955Y4450D02*
D03*
X3120Y2300D02*
D03*
X3530Y2735D02*
D03*
X4245Y4365D02*
D03*
X4380Y3595D02*
D03*
X5709Y4528D02*
D03*
X5512Y4921D02*
D03*
X5610Y4724D02*
D03*
X5512Y4528D02*
D03*
X5610Y3543D02*
D03*
X5512Y3346D02*
D03*
X5610Y3150D02*
D03*
X5512Y2953D02*
D03*
Y2559D02*
D03*
X5610Y2362D02*
D03*
X5315Y4921D02*
D03*
Y4528D02*
D03*
Y4134D02*
D03*
Y3346D02*
D03*
X5413Y3150D02*
D03*
X5315Y2953D02*
D03*
Y2559D02*
D03*
X5413Y2362D02*
D03*
X5118Y4921D02*
D03*
X5217Y4724D02*
D03*
X5118Y4528D02*
D03*
X5217Y4331D02*
D03*
Y3937D02*
D03*
X5118Y3346D02*
D03*
Y2953D02*
D03*
Y2559D02*
D03*
X5217Y2362D02*
D03*
X5020Y4724D02*
D03*
Y3543D02*
D03*
X4921Y3346D02*
D03*
X5020Y3150D02*
D03*
X4823Y3543D02*
D03*
X4724Y3346D02*
D03*
X4823Y3150D02*
D03*
X4724Y2953D02*
D03*
Y2559D02*
D03*
X4626Y4724D02*
D03*
Y4331D02*
D03*
Y3937D02*
D03*
Y3150D02*
D03*
X4528Y2953D02*
D03*
X4626Y2362D02*
D03*
X4528Y2165D02*
D03*
X4429Y4724D02*
D03*
X4331Y3346D02*
D03*
X4429Y3150D02*
D03*
X4331Y2953D02*
D03*
Y2165D02*
D03*
X4134Y3346D02*
D03*
X4232Y3150D02*
D03*
X4134Y2953D02*
D03*
X4232Y2362D02*
D03*
X4035Y4724D02*
D03*
Y4331D02*
D03*
Y3150D02*
D03*
Y2756D02*
D03*
X3937Y2165D02*
D03*
X3740Y5315D02*
D03*
Y4921D02*
D03*
Y4528D02*
D03*
Y3740D02*
D03*
X3839Y3543D02*
D03*
X3740Y3346D02*
D03*
X3839Y3150D02*
D03*
X3835Y2756D02*
D03*
X3740Y2559D02*
D03*
X3839Y2362D02*
D03*
X3740Y2165D02*
D03*
X3642Y5512D02*
D03*
X3543Y5315D02*
D03*
X3642Y5118D02*
D03*
X3543Y4921D02*
D03*
X3642Y4724D02*
D03*
Y4331D02*
D03*
Y3583D02*
D03*
Y3150D02*
D03*
Y2756D02*
D03*
X3543Y2559D02*
D03*
X3642Y2362D02*
D03*
X3543Y2165D02*
D03*
X3445Y5512D02*
D03*
X3346Y5315D02*
D03*
X3445Y5118D02*
D03*
X3346Y4921D02*
D03*
X3445Y4724D02*
D03*
Y3937D02*
D03*
Y3543D02*
D03*
X3346Y3346D02*
D03*
X3445Y3150D02*
D03*
Y2362D02*
D03*
X3248Y5512D02*
D03*
X3150Y5315D02*
D03*
X3248Y5118D02*
D03*
X3150Y4921D02*
D03*
X3248Y4724D02*
D03*
Y4331D02*
D03*
Y3937D02*
D03*
X3150Y3346D02*
D03*
X3248Y3150D02*
D03*
Y2756D02*
D03*
Y2362D02*
D03*
X2953Y5709D02*
D03*
X3051Y5512D02*
D03*
X2953Y5315D02*
D03*
X3051Y5118D02*
D03*
X2953Y4921D02*
D03*
X3051Y4724D02*
D03*
Y4331D02*
D03*
Y3150D02*
D03*
X2953Y2953D02*
D03*
X3051Y2756D02*
D03*
X2854Y5512D02*
D03*
X2756Y5315D02*
D03*
X2854Y5118D02*
D03*
X2756Y4528D02*
D03*
X2854Y4331D02*
D03*
X2756Y4134D02*
D03*
X2854Y3937D02*
D03*
X2756Y3740D02*
D03*
X2854Y3543D02*
D03*
X2756Y3346D02*
D03*
X2854Y2756D02*
D03*
X2657Y4724D02*
D03*
X2559Y4528D02*
D03*
Y4134D02*
D03*
X2657Y3937D02*
D03*
X2559Y3740D02*
D03*
X2657Y3543D02*
D03*
X2559Y3346D02*
D03*
Y2953D02*
D03*
X2657Y2756D02*
D03*
Y2362D02*
D03*
X2461Y5118D02*
D03*
Y4724D02*
D03*
X2362Y4528D02*
D03*
X2461Y4331D02*
D03*
X2362Y4134D02*
D03*
X2461Y3937D02*
D03*
Y3543D02*
D03*
X2362Y3346D02*
D03*
Y2953D02*
D03*
Y2559D02*
D03*
Y2165D02*
D03*
X2165Y5709D02*
D03*
X2264Y5512D02*
D03*
Y4724D02*
D03*
Y4331D02*
D03*
Y3937D02*
D03*
Y3543D02*
D03*
Y2362D02*
D03*
X2165Y2165D02*
D03*
X5490Y2860D02*
D03*
Y2510D02*
D03*
X3430Y3425D02*
D03*
X4150Y3845D02*
D03*
X3160Y4595D02*
D03*
X4150Y3725D02*
D03*
X3040Y4595D02*
D03*
X4150Y3785D02*
D03*
X3100Y4595D02*
D03*
X2460Y5485D02*
D03*
X2560D02*
D03*
X2760D02*
D03*
X4955Y3970D02*
D03*
Y4030D02*
D03*
Y4090D02*
D03*
Y4150D02*
D03*
Y4210D02*
D03*
Y4270D02*
D03*
Y4390D02*
D03*
Y4330D02*
D03*
X3525Y4045D02*
D03*
Y4100D02*
D03*
X4450Y4400D02*
D03*
X4415Y4445D02*
D03*
X3710Y4075D02*
D03*
X3710Y4015D02*
D03*
Y4135D02*
D03*
X4380Y4495D02*
D03*
Y4615D02*
D03*
Y4555D02*
D03*
X4085Y4985D02*
D03*
Y5160D02*
D03*
Y5070D02*
D03*
X4385Y5070D02*
D03*
Y5130D02*
D03*
Y5010D02*
D03*
X5480Y3978D02*
D03*
Y4118D02*
D03*
Y4258D02*
D03*
Y5354D02*
D03*
Y5494D02*
D03*
Y5634D02*
D03*
X4975Y5460D02*
D03*
X5075D02*
D03*
X5175D02*
D03*
X5275D02*
D03*
X4575D02*
D03*
X4675D02*
D03*
X4775D02*
D03*
X4875D02*
D03*
X4475D02*
D03*
X4375D02*
D03*
X4275D02*
D03*
X4175D02*
D03*
X2890Y3450D02*
D03*
X2950D02*
D03*
X3150Y3615D02*
D03*
X3210D02*
D03*
X3270D02*
D03*
X3010Y3450D02*
D03*
X3440Y4380D02*
D03*
X3435Y4535D02*
D03*
X3370Y4380D02*
D03*
X3375Y4535D02*
D03*
X3615Y3500D02*
D03*
X3140Y3705D02*
D03*
X4675Y3525D02*
D03*
X4535Y3665D02*
D03*
Y3755D02*
D03*
X4090Y3732D02*
D03*
X3775Y3850D02*
D03*
X3937Y4138D02*
D03*
X3630Y4240D02*
D03*
X5480Y5805D02*
D03*
Y4428D02*
D03*
%TF.MD5,43DDBFA48AB2BA473B4273AA4967036A*%
M02*
