G04 Layer_Color=8388736*
%FSLAX23Y23*%
%MOIN*%
%TF.FileFunction,Soldermask,Top*%
%TF.Part,Single*%
G01*
G75*
%TA.AperFunction,SMDPad*%
%ADD36R,0.047X0.043*%
%TA.AperFunction,SMDPad*%
%ADD37R,0.043X0.047*%
%TA.AperFunction,SMDPad*%
%ADD38R,0.177X0.081*%
%TA.AperFunction,SMDPad*%
%ADD39R,0.081X0.177*%
%TA.AperFunction,SMDPad*%
%ADD40R,0.047X0.031*%
%TA.AperFunction,SMDPad*%
%ADD41R,0.035X0.043*%
%TA.AperFunction,SMDPad*%
%ADD42R,0.043X0.035*%
%TA.AperFunction,SMDPad*%
%ADD43R,0.063X0.091*%
%TA.AperFunction,SMDPad*%
%ADD44R,0.047X0.093*%
%TA.AperFunction,SMDPad*%
%ADD45R,0.136X0.093*%
%TA.AperFunction,SMDPad*%
%ADD46O,0.061X0.014*%
%TA.AperFunction,SMDPad*%
%ADD47O,0.014X0.061*%
%TA.AperFunction,SMDPad*%
%ADD48R,0.087X0.047*%
%TA.AperFunction,SMDPad*%
%ADD49R,0.051X0.043*%
%TA.AperFunction,SMDPad*%
%ADD50R,0.047X0.043*%
%TA.AperFunction,SMDPad*%
%ADD51R,0.043X0.051*%
%TA.AperFunction,SMDPad*%
%ADD52R,0.043X0.047*%
%TA.AperFunction,ViaPad*%
%ADD53C,0.071*%
D36*
X3890Y2777D02*
D03*
Y2723D02*
D03*
X3980D02*
D03*
Y2777D02*
D03*
X3900Y4503D02*
D03*
Y4557D02*
D03*
X3960Y4503D02*
D03*
Y4557D02*
D03*
X4365Y2777D02*
D03*
Y2723D02*
D03*
X4455D02*
D03*
Y2777D02*
D03*
X4930Y2723D02*
D03*
Y2777D02*
D03*
X4840D02*
D03*
Y2723D02*
D03*
X4020Y4503D02*
D03*
Y4557D02*
D03*
X3475Y2683D02*
D03*
Y2737D02*
D03*
X3410Y2683D02*
D03*
Y2737D02*
D03*
D37*
X3898Y3375D02*
D03*
X3952D02*
D03*
X4223Y4310D02*
D03*
X4277D02*
D03*
X3552Y3500D02*
D03*
X3498D02*
D03*
X4223Y3565D02*
D03*
X4277D02*
D03*
X3552Y4375D02*
D03*
X3498D02*
D03*
X4498Y3990D02*
D03*
X4552D02*
D03*
X4498Y4050D02*
D03*
X4552D02*
D03*
X4498Y3930D02*
D03*
X4552D02*
D03*
D38*
X3248Y2865D02*
D03*
X3002D02*
D03*
D39*
X5410Y4917D02*
D03*
Y4671D02*
D03*
Y3541D02*
D03*
Y3295D02*
D03*
D40*
X5503Y2170D02*
D03*
X5597Y2207D02*
D03*
Y2133D02*
D03*
D41*
X5603Y2860D02*
D03*
X5547D02*
D03*
X5603Y2510D02*
D03*
X5547D02*
D03*
X3253Y3705D02*
D03*
X3197D02*
D03*
X3328Y2075D02*
D03*
X3272D02*
D03*
X5542Y5634D02*
D03*
X5598D02*
D03*
X5598Y5704D02*
D03*
X5542D02*
D03*
X5542Y5494D02*
D03*
X5598D02*
D03*
X5598Y5564D02*
D03*
X5542D02*
D03*
X5542Y5354D02*
D03*
X5598D02*
D03*
X5598Y5424D02*
D03*
X5542D02*
D03*
X3028Y2075D02*
D03*
X2972D02*
D03*
X5522Y2280D02*
D03*
X5578D02*
D03*
X5598Y5284D02*
D03*
X5542D02*
D03*
X5542Y4258D02*
D03*
X5598D02*
D03*
X5598Y4328D02*
D03*
X5542D02*
D03*
X5542Y4118D02*
D03*
X5598D02*
D03*
X5598Y4188D02*
D03*
X5542D02*
D03*
X5542Y3978D02*
D03*
X5598D02*
D03*
X5598Y4048D02*
D03*
X5542D02*
D03*
X5598Y3908D02*
D03*
X5542D02*
D03*
D42*
X2760Y5603D02*
D03*
Y5547D02*
D03*
X2460Y5603D02*
D03*
Y5547D02*
D03*
X2560Y5603D02*
D03*
Y5547D02*
D03*
X5025Y2778D02*
D03*
Y2722D02*
D03*
X5275Y5522D02*
D03*
Y5578D02*
D03*
X5175Y5522D02*
D03*
Y5578D02*
D03*
X5075Y5522D02*
D03*
Y5578D02*
D03*
X4975Y5522D02*
D03*
Y5578D02*
D03*
X4875Y5522D02*
D03*
Y5578D02*
D03*
X4775Y5522D02*
D03*
Y5578D02*
D03*
X4675Y5522D02*
D03*
Y5578D02*
D03*
X4575Y5522D02*
D03*
Y5578D02*
D03*
X4475Y5522D02*
D03*
Y5578D02*
D03*
X4375Y5522D02*
D03*
Y5578D02*
D03*
X4275Y5522D02*
D03*
Y5578D02*
D03*
X4175Y5522D02*
D03*
Y5578D02*
D03*
X3410Y2853D02*
D03*
Y2797D02*
D03*
X5425Y2142D02*
D03*
Y2198D02*
D03*
X3470Y2853D02*
D03*
Y2797D02*
D03*
D43*
X3147Y4154D02*
D03*
X3323D02*
D03*
X3147Y3796D02*
D03*
X3323D02*
D03*
X3212Y2534D02*
D03*
X3388D02*
D03*
X3212Y2176D02*
D03*
X3388D02*
D03*
X2912Y2534D02*
D03*
X3088D02*
D03*
X2912Y2176D02*
D03*
X3088D02*
D03*
D44*
X4071Y2580D02*
D03*
X3980D02*
D03*
X3889D02*
D03*
X4546D02*
D03*
X4455D02*
D03*
X4364D02*
D03*
X5021D02*
D03*
X4930D02*
D03*
X4839D02*
D03*
D45*
X3980Y2350D02*
D03*
X4455D02*
D03*
X4930D02*
D03*
D46*
X3632Y4173D02*
D03*
Y4154D02*
D03*
Y4134D02*
D03*
Y4114D02*
D03*
Y4094D02*
D03*
Y4075D02*
D03*
Y4055D02*
D03*
Y4035D02*
D03*
Y4016D02*
D03*
Y3996D02*
D03*
Y3976D02*
D03*
Y3957D02*
D03*
Y3937D02*
D03*
Y3917D02*
D03*
Y3898D02*
D03*
Y3878D02*
D03*
Y3858D02*
D03*
Y3839D02*
D03*
Y3819D02*
D03*
Y3799D02*
D03*
Y3780D02*
D03*
Y3760D02*
D03*
Y3740D02*
D03*
Y3720D02*
D03*
Y3701D02*
D03*
X4242D02*
D03*
Y3720D02*
D03*
Y3740D02*
D03*
Y3760D02*
D03*
Y3780D02*
D03*
Y3799D02*
D03*
Y3819D02*
D03*
Y3839D02*
D03*
Y3858D02*
D03*
Y3878D02*
D03*
Y3898D02*
D03*
Y3917D02*
D03*
Y3937D02*
D03*
Y3957D02*
D03*
Y3976D02*
D03*
Y3996D02*
D03*
Y4016D02*
D03*
Y4035D02*
D03*
Y4055D02*
D03*
Y4075D02*
D03*
Y4094D02*
D03*
Y4114D02*
D03*
Y4134D02*
D03*
Y4154D02*
D03*
Y4173D02*
D03*
D47*
X3701Y3632D02*
D03*
X3720D02*
D03*
X3740D02*
D03*
X3760D02*
D03*
X3780D02*
D03*
X3799D02*
D03*
X3819D02*
D03*
X3839D02*
D03*
X3858D02*
D03*
X3878D02*
D03*
X3898D02*
D03*
X3917D02*
D03*
X3937D02*
D03*
X3957D02*
D03*
X3976D02*
D03*
X3996D02*
D03*
X4016D02*
D03*
X4035D02*
D03*
X4055D02*
D03*
X4075D02*
D03*
X4094D02*
D03*
X4114D02*
D03*
X4134D02*
D03*
X4154D02*
D03*
X4173D02*
D03*
Y4242D02*
D03*
X4154D02*
D03*
X4134D02*
D03*
X4114D02*
D03*
X4094D02*
D03*
X4075D02*
D03*
X4055D02*
D03*
X4035D02*
D03*
X4016D02*
D03*
X3996D02*
D03*
X3976D02*
D03*
X3957D02*
D03*
X3937D02*
D03*
X3917D02*
D03*
X3898D02*
D03*
X3878D02*
D03*
X3858D02*
D03*
X3839D02*
D03*
X3819D02*
D03*
X3799D02*
D03*
X3780D02*
D03*
X3760D02*
D03*
X3740D02*
D03*
X3720D02*
D03*
X3701D02*
D03*
D48*
X2146Y2933D02*
D03*
Y2854D02*
D03*
Y2776D02*
D03*
Y2697D02*
D03*
Y2618D02*
D03*
Y2539D02*
D03*
Y2461D02*
D03*
X2776Y2382D02*
D03*
X2146D02*
D03*
X2776Y2461D02*
D03*
Y2539D02*
D03*
Y2618D02*
D03*
Y2697D02*
D03*
Y2776D02*
D03*
Y2854D02*
D03*
Y2933D02*
D03*
D49*
X2325Y5193D02*
D03*
Y3743D02*
D03*
D50*
X2292Y5307D02*
D03*
X2358D02*
D03*
X2292Y3857D02*
D03*
X2358D02*
D03*
D51*
X4913Y2925D02*
D03*
D52*
X5027Y2958D02*
D03*
Y2892D02*
D03*
D53*
X2165Y5278D02*
D03*
Y5178D02*
D03*
Y5078D02*
D03*
Y4978D02*
D03*
Y4878D02*
D03*
Y4578D02*
D03*
Y4678D02*
D03*
Y4778D02*
D03*
Y4378D02*
D03*
Y4278D02*
D03*
Y4178D02*
D03*
Y4478D02*
D03*
Y4078D02*
D03*
Y3778D02*
D03*
Y3878D02*
D03*
Y3978D02*
D03*
X5709Y2963D02*
D03*
Y2863D02*
D03*
X4674Y2165D02*
D03*
X4774D02*
D03*
X2759Y5709D02*
D03*
X2659D02*
D03*
X2559D02*
D03*
X2459D02*
D03*
X2359D02*
D03*
X5709Y2609D02*
D03*
Y2509D02*
D03*
X4034Y2165D02*
D03*
X4134D02*
D03*
X4234D02*
D03*
X5274Y5709D02*
D03*
X5174D02*
D03*
X5074D02*
D03*
X4974D02*
D03*
X4874D02*
D03*
X4574D02*
D03*
X4674D02*
D03*
X4774D02*
D03*
X4374D02*
D03*
X4274D02*
D03*
X4174D02*
D03*
X4474D02*
D03*
X3193D02*
D03*
X3293D02*
D03*
X3393D02*
D03*
X3493D02*
D03*
X3593D02*
D03*
X3893D02*
D03*
X3793D02*
D03*
X3693D02*
D03*
X2165Y3198D02*
D03*
Y3298D02*
D03*
X5709Y2155D02*
D03*
Y2255D02*
D03*
Y5707D02*
D03*
Y5607D02*
D03*
Y5507D02*
D03*
Y5407D02*
D03*
Y5307D02*
D03*
Y5007D02*
D03*
Y5107D02*
D03*
Y5207D02*
D03*
Y4807D02*
D03*
Y4707D02*
D03*
Y4607D02*
D03*
Y4907D02*
D03*
X2915Y4290D02*
D03*
Y4190D02*
D03*
Y4090D02*
D03*
Y3990D02*
D03*
Y3890D02*
D03*
Y3590D02*
D03*
Y3690D02*
D03*
Y3790D02*
D03*
X5709Y4330D02*
D03*
Y4230D02*
D03*
Y4130D02*
D03*
Y4030D02*
D03*
Y3930D02*
D03*
Y3630D02*
D03*
Y3730D02*
D03*
Y3830D02*
D03*
Y3430D02*
D03*
Y3330D02*
D03*
Y3230D02*
D03*
Y3530D02*
D03*
%TF.MD5,B961F7650FC717805B00E02A1306B3A1*%
M02*
